<svg xmlns="http://www.w3.org/2000/svg" xmlns:xlink="http://www.w3.org/1999/xlink" width="1600" zoomAndPan="magnify" viewBox="0 0 1200 284.999983" height="380" preserveAspectRatio="xMidYMid meet" version="1.0"><defs><g/></defs><g fill="#ffffff" fill-opacity="1"><g transform="translate(314.693265, 210.374969)"><g><path d="M 65.203125 -102.59375 C 76.671875 -102.59375 85.9375 -98.925781 93 -91.59375 C 100.0625 -84.257812 103.59375 -74.195312 103.59375 -61.40625 L 103.59375 0 L 82 0 L 82 -59.203125 C 82 -66.671875 80 -72.40625 76 -76.40625 C 72 -80.40625 66.53125 -82.40625 59.59375 -82.40625 C 52 -82.40625 45.867188 -80.035156 41.203125 -75.296875 C 36.535156 -70.566406 34.203125 -63.332031 34.203125 -53.59375 L 34.203125 0 L 12.59375 0 L 12.59375 -100 L 34.203125 -100 L 34.203125 -87.203125 C 40.734375 -97.460938 51.066406 -102.59375 65.203125 -102.59375 Z M 65.203125 -102.59375 "/></g></g></g><g fill="#ffffff" fill-opacity="1"><g transform="translate(428.890229, 210.374969)"><g><path d="M 29.59375 -40.796875 C 31.195312 -33.203125 34.863281 -27.367188 40.59375 -23.296875 C 46.332031 -19.234375 53.332031 -17.203125 61.59375 -17.203125 C 73.0625 -17.203125 81.664062 -21.332031 87.40625 -29.59375 L 105.203125 -19.203125 C 95.335938 -4.671875 80.738281 2.59375 61.40625 2.59375 C 45.132812 2.59375 32 -2.367188 22 -12.296875 C 12 -22.234375 7 -34.800781 7 -50 C 7 -64.9375 11.929688 -77.4375 21.796875 -87.5 C 31.660156 -97.5625 44.328125 -102.59375 59.796875 -102.59375 C 74.460938 -102.59375 86.492188 -97.457031 95.890625 -87.1875 C 105.296875 -76.925781 110 -64.460938 110 -49.796875 C 110 -47.535156 109.734375 -44.535156 109.203125 -40.796875 Z M 29.40625 -58.40625 L 88.203125 -58.40625 C 86.734375 -66.53125 83.363281 -72.660156 78.09375 -76.796875 C 72.832031 -80.929688 66.664062 -83 59.59375 -83 C 51.59375 -83 44.925781 -80.796875 39.59375 -76.390625 C 34.257812 -71.992188 30.863281 -66 29.40625 -58.40625 Z M 29.40625 -58.40625 "/></g></g></g><g fill="#ffffff" fill-opacity="1"><g transform="translate(545.287114, 210.374969)"><g><path d="M 59.796875 2.59375 C 45.128906 2.59375 32.660156 -2.46875 22.390625 -12.59375 C 12.128906 -22.726562 7 -35.195312 7 -50 C 7 -64.800781 12.128906 -77.265625 22.390625 -87.390625 C 32.660156 -97.523438 45.128906 -102.59375 59.796875 -102.59375 C 74.597656 -102.59375 87.097656 -97.523438 97.296875 -87.390625 C 107.492188 -77.265625 112.59375 -64.800781 112.59375 -50 C 112.59375 -35.195312 107.492188 -22.726562 97.296875 -12.59375 C 87.097656 -2.46875 74.597656 2.59375 59.796875 2.59375 Z M 37.59375 -27.40625 C 43.59375 -21.40625 50.992188 -18.40625 59.796875 -18.40625 C 68.597656 -18.40625 76 -21.40625 82 -27.40625 C 88 -33.40625 91 -40.9375 91 -50 C 91 -59.0625 88 -66.59375 82 -72.59375 C 76 -78.59375 68.597656 -81.59375 59.796875 -81.59375 C 50.992188 -81.59375 43.59375 -78.59375 37.59375 -72.59375 C 31.59375 -66.59375 28.59375 -59.0625 28.59375 -50 C 28.59375 -40.9375 31.59375 -33.40625 37.59375 -27.40625 Z M 37.59375 -27.40625 "/></g></g></g><g fill="#ffffff" fill-opacity="1"><g transform="translate(664.883949, 210.374969)"><g><path d="M 33.09375 -119.09375 C 30.363281 -116.363281 27.128906 -115 23.390625 -115 C 19.660156 -115 16.425781 -116.363281 13.6875 -119.09375 C 10.957031 -121.832031 9.59375 -125.066406 9.59375 -128.796875 C 9.59375 -132.535156 10.925781 -135.769531 13.59375 -138.5 C 16.257812 -141.226562 19.523438 -142.59375 23.390625 -142.59375 C 27.265625 -142.59375 30.535156 -141.226562 33.203125 -138.5 C 35.867188 -135.769531 37.203125 -132.535156 37.203125 -128.796875 C 37.203125 -125.066406 35.832031 -121.832031 33.09375 -119.09375 Z M 12.59375 0 L 12.59375 -100 L 34.203125 -100 L 34.203125 0 Z M 12.59375 0 "/></g></g></g><g fill="#ffffff" fill-opacity="1"><g transform="translate(711.482684, 210.374969)"><g><path d="M 59.796875 2.59375 C 44.734375 2.59375 32.164062 -2.46875 22.09375 -12.59375 C 12.03125 -22.726562 7 -35.195312 7 -50 C 7 -64.9375 12.03125 -77.4375 22.09375 -87.5 C 32.164062 -97.5625 44.734375 -102.59375 59.796875 -102.59375 C 69.535156 -102.59375 78.40625 -100.257812 86.40625 -95.59375 C 94.40625 -90.925781 100.40625 -84.660156 104.40625 -76.796875 L 85.796875 -66 C 83.535156 -70.800781 80.101562 -74.566406 75.5 -77.296875 C 70.894531 -80.035156 65.59375 -81.40625 59.59375 -81.40625 C 50.800781 -81.40625 43.4375 -78.40625 37.5 -72.40625 C 31.5625 -66.40625 28.59375 -58.9375 28.59375 -50 C 28.59375 -41.0625 31.5625 -33.59375 37.5 -27.59375 C 43.4375 -21.59375 50.800781 -18.59375 59.59375 -18.59375 C 65.46875 -18.59375 70.769531 -19.992188 75.5 -22.796875 C 80.226562 -25.597656 83.796875 -29.332031 86.203125 -34 L 104.796875 -23.40625 C 100.535156 -15.40625 94.40625 -9.070312 86.40625 -4.40625 C 78.40625 0.257812 69.535156 2.59375 59.796875 2.59375 Z M 59.796875 2.59375 "/></g></g></g><g fill="#ffffff" fill-opacity="1"><g transform="translate(819.879783, 210.374969)"><g><path d="M 59.796875 2.59375 C 45.128906 2.59375 32.660156 -2.46875 22.390625 -12.59375 C 12.128906 -22.726562 7 -35.195312 7 -50 C 7 -64.800781 12.128906 -77.265625 22.390625 -87.390625 C 32.660156 -97.523438 45.128906 -102.59375 59.796875 -102.59375 C 74.597656 -102.59375 87.097656 -97.523438 97.296875 -87.390625 C 107.492188 -77.265625 112.59375 -64.800781 112.59375 -50 C 112.59375 -35.195312 107.492188 -22.726562 97.296875 -12.59375 C 87.097656 -2.46875 74.597656 2.59375 59.796875 2.59375 Z M 37.59375 -27.40625 C 43.59375 -21.40625 50.992188 -18.40625 59.796875 -18.40625 C 68.597656 -18.40625 76 -21.40625 82 -27.40625 C 88 -33.40625 91 -40.9375 91 -50 C 91 -59.0625 88 -66.59375 82 -72.59375 C 76 -78.59375 68.597656 -81.59375 59.796875 -81.59375 C 50.992188 -81.59375 43.59375 -78.59375 37.59375 -72.59375 C 31.59375 -66.59375 28.59375 -59.0625 28.59375 -50 C 28.59375 -40.9375 31.59375 -33.40625 37.59375 -27.40625 Z M 37.59375 -27.40625 "/></g></g></g><g fill="#ffffff" fill-opacity="1"><g transform="translate(939.476618, 210.374969)"><g><path d="M 65.203125 -102.59375 C 76.671875 -102.59375 85.9375 -98.925781 93 -91.59375 C 100.0625 -84.257812 103.59375 -74.195312 103.59375 -61.40625 L 103.59375 0 L 82 0 L 82 -59.203125 C 82 -66.671875 80 -72.40625 76 -76.40625 C 72 -80.40625 66.53125 -82.40625 59.59375 -82.40625 C 52 -82.40625 45.867188 -80.035156 41.203125 -75.296875 C 36.535156 -70.566406 34.203125 -63.332031 34.203125 -53.59375 L 34.203125 0 L 12.59375 0 L 12.59375 -100 L 34.203125 -100 L 34.203125 -87.203125 C 40.734375 -97.460938 51.066406 -102.59375 65.203125 -102.59375 Z M 65.203125 -102.59375 "/></g></g></g><g fill="#ffffff" fill-opacity="1"><g transform="translate(1053.673582, 210.374969)"><g><path d="M 32 -72.40625 C 32 -69.070312 33.832031 -66.4375 37.5 -64.5 C 41.164062 -62.5625 45.628906 -60.894531 50.890625 -59.5 C 56.160156 -58.101562 61.460938 -56.46875 66.796875 -54.59375 C 72.128906 -52.726562 76.628906 -49.5625 80.296875 -45.09375 C 83.960938 -40.632812 85.796875 -35.003906 85.796875 -28.203125 C 85.796875 -18.597656 82.09375 -11.0625 74.6875 -5.59375 C 67.289062 -0.132812 57.992188 2.59375 46.796875 2.59375 C 36.929688 2.59375 28.460938 0.53125 21.390625 -3.59375 C 14.328125 -7.726562 9.195312 -13.460938 6 -20.796875 L 24.59375 -31.59375 C 28.0625 -22 35.460938 -17.203125 46.796875 -17.203125 C 58.128906 -17.203125 63.796875 -20.9375 63.796875 -28.40625 C 63.796875 -31.601562 61.960938 -34.203125 58.296875 -36.203125 C 54.628906 -38.203125 50.160156 -39.898438 44.890625 -41.296875 C 39.628906 -42.703125 34.332031 -44.335938 29 -46.203125 C 23.664062 -48.066406 19.164062 -51.164062 15.5 -55.5 C 11.832031 -59.832031 10 -65.332031 10 -72 C 10 -81.195312 13.5 -88.59375 20.5 -94.1875 C 27.5 -99.789062 36.195312 -102.59375 46.59375 -102.59375 C 54.863281 -102.59375 62.234375 -100.757812 68.703125 -97.09375 C 75.171875 -93.425781 80.132812 -88.328125 83.59375 -81.796875 L 65.40625 -71.59375 C 61.9375 -79.195312 55.664062 -83 46.59375 -83 C 42.46875 -83 39.003906 -82.097656 36.203125 -80.296875 C 33.398438 -78.492188 32 -75.863281 32 -72.40625 Z M 32 -72.40625 "/></g></g></g><path fill="#8b5cf6" d="M 267.53125 29.019531 C 266.113281 29.050781 264.730469 29.480469 263.542969 30.242188 C 246.703125 40.832031 229.894531 51.390625 213.085938 61.984375 C 196.808594 52.117188 178.152344 46.871094 159.136719 46.839844 C 101.828125 46.839844 54.699219 94.058594 54.699219 151.410156 C 54.734375 175.992188 63.433594 199.785156 79.21875 218.59375 C 108.714844 199.15625 154.390625 156.753906 200.726562 106.332031 L 204.78125 110.128906 C 161.179688 161.375 119.523438 203.777344 88.214844 228 C 107.496094 245.949219 132.839844 255.949219 159.136719 255.980469 C 216.449219 255.980469 263.574219 208.792969 263.574219 151.410156 C 263.542969 131.015625 257.542969 111.085938 246.308594 94.058594 L 274.914062 40.898438 C 275.539062 39.710938 275.867188 38.390625 275.867188 37.070312 C 275.867188 32.648438 272.242188 29.019531 267.828125 29.019531 C 267.726562 29.019531 267.628906 29.019531 267.53125 29.019531 Z M 88.214844 228 C 85.019531 225.0625 82.019531 221.925781 79.21875 218.59375 C 50.414062 237.601562 37.101562 234.730469 53.808594 196.023438 C 47.878906 205.128906 28.5 236.675781 36.96875 246.148438 C 44.285156 255.355469 62.839844 247.632812 88.214844 228 Z M 267.828125 37.070312 L 236.023438 96.203125 L 244.429688 116.199219 L 221.984375 135.472656 L 223.46875 122.964844 L 217.503906 117.289062 L 220.007812 113.328125 L 195.058594 89.933594 L 191.269531 92.707031 L 185.207031 87.128906 L 172.847656 89.4375 L 190.542969 65.746094 L 211.042969 72.808594 C 229.960938 60.894531 248.875 48.984375 267.828125 37.070312 Z M 267.828125 37.070312 " fill-opacity="1" fill-rule="evenodd"/></svg>