<svg xmlns="http://www.w3.org/2000/svg" xmlns:xlink="http://www.w3.org/1999/xlink" width="1600" zoomAndPan="magnify" viewBox="0 0 1200 284.999983" height="380" preserveAspectRatio="xMidYMid meet" version="1.0"><defs><g/><clipPath id="d3348ac35d"><path d="M 904.898438 26.839844 L 1134.398438 26.839844 L 1134.398438 254.835938 L 904.898438 254.835938 Z M 904.898438 26.839844 " clip-rule="nonzero"/></clipPath><clipPath id="02ce89b16a"><path d="M 942.371094 26.839844 L 1096.929688 26.839844 C 1117.621094 26.839844 1134.398438 43.628906 1134.398438 64.339844 L 1134.398438 217.335938 C 1134.398438 238.046875 1117.621094 254.835938 1096.929688 254.835938 L 942.371094 254.835938 C 921.675781 254.835938 904.898438 238.046875 904.898438 217.335938 L 904.898438 64.339844 C 904.898438 43.628906 921.675781 26.839844 942.371094 26.839844 Z M 942.371094 26.839844 " clip-rule="nonzero"/></clipPath></defs><path fill="#04c4f4" d="M 314.367188 71.792969 C 314.371094 72.597656 314.445312 72.882812 314.535156 72.429688 C 314.621094 71.976562 314.617188 71.320312 314.527344 70.96875 C 314.4375 70.621094 314.363281 70.992188 314.367188 71.792969 M 302.976562 94.394531 C 302.089844 95.296875 301.449219 96.035156 301.546875 96.035156 C 301.648438 96.035156 302.457031 95.296875 303.339844 94.394531 C 304.226562 93.492188 304.871094 92.753906 304.769531 92.753906 C 304.667969 92.753906 303.863281 93.492188 302.976562 94.394531 M 284.203125 104.800781 C 283.695312 105.027344 283.917969 105.0625 284.933594 104.90625 C 285.734375 104.785156 286.460938 104.625 286.542969 104.550781 C 286.855469 104.273438 284.90625 104.480469 284.203125 104.800781 M 146.878906 106.136719 C 147.53125 106.21875 148.597656 106.21875 149.25 106.136719 C 149.902344 106.058594 149.367188 105.992188 148.0625 105.992188 C 146.761719 105.992188 146.226562 106.058594 146.878906 106.136719 M 152.136719 106.0625 C 152.378906 106.304688 242.164062 106.300781 242.40625 106.058594 C 242.507812 105.957031 222.195312 105.875 197.273438 105.875 C 172.347656 105.875 152.035156 105.960938 152.136719 106.0625 M 242.882812 106.046875 C 243.164062 106.324219 265.753906 106.40625 266.03125 106.128906 C 266.167969 105.988281 260.980469 105.875 254.5 105.875 C 248.015625 105.875 242.789062 105.953125 242.882812 106.046875 M 268.988281 106.140625 C 269.839844 106.21875 271.234375 106.21875 272.085938 106.140625 C 272.9375 106.066406 272.242188 106.003906 270.535156 106.003906 C 268.832031 106.003906 268.136719 106.066406 268.988281 106.140625 M 274.273438 106.125 C 274.625 106.21875 275.199219 106.21875 275.546875 106.125 C 275.898438 106.035156 275.613281 105.960938 274.910156 105.960938 C 274.207031 105.960938 273.921875 106.035156 274.273438 106.125 M 249.03125 141.757812 C 249.03125 142.246094 249.164062 142.730469 249.328125 142.832031 C 249.492188 142.933594 249.554688 142.53125 249.46875 141.941406 C 249.277344 140.636719 249.03125 140.535156 249.03125 141.757812 M 216.316406 190.691406 C 216.667969 190.78125 217.242188 190.78125 217.59375 190.691406 C 217.945312 190.597656 217.65625 190.523438 216.953125 190.523438 C 216.253906 190.523438 215.964844 190.597656 216.316406 190.691406 M 147.984375 191.433594 C 148.839844 191.511719 150.152344 191.511719 150.898438 191.433594 C 151.644531 191.355469 150.945312 191.292969 149.339844 191.292969 C 147.734375 191.292969 147.125 191.359375 147.984375 191.433594 M 138.769531 192.625 C 137.839844 193.023438 138.796875 193.023438 140.046875 192.625 C 140.777344 192.390625 140.8125 192.332031 140.226562 192.324219 C 139.828125 192.316406 139.171875 192.453125 138.769531 192.625 " fill-opacity="1" fill-rule="evenodd"/><path fill="#04c4ec" d="M 184.242188 56.933594 C 184.992188 57.011719 186.222656 57.011719 186.976562 56.933594 C 187.726562 56.855469 187.109375 56.789062 185.609375 56.789062 C 184.105469 56.789062 183.488281 56.855469 184.242188 56.933594 M 188.984375 191.429688 C 189.539062 191.511719 190.359375 191.511719 190.804688 191.425781 C 191.253906 191.339844 190.800781 191.269531 189.800781 191.273438 C 188.796875 191.273438 188.429688 191.347656 188.984375 191.429688 " fill-opacity="1" fill-rule="evenodd"/><path fill="#04bcec" d="M 249.488281 56.578125 C 254.648438 56.632812 263.097656 56.632812 268.257812 56.578125 C 273.421875 56.519531 269.195312 56.472656 258.871094 56.472656 C 248.546875 56.472656 244.324219 56.519531 249.488281 56.578125 M 180.050781 56.925781 C 180.5 57.011719 181.238281 57.011719 181.6875 56.925781 C 182.140625 56.839844 181.769531 56.765625 180.871094 56.765625 C 179.96875 56.765625 179.597656 56.839844 180.050781 56.925781 M 202.101562 56.941406 C 208.265625 56.996094 218.355469 56.996094 224.519531 56.941406 C 230.683594 56.882812 225.640625 56.839844 213.308594 56.839844 C 200.980469 56.839844 195.9375 56.882812 202.101562 56.941406 M 315.109375 66.691406 C 315.113281 67.695312 315.183594 68.0625 315.265625 67.507812 C 315.351562 66.953125 315.347656 66.132812 315.261719 65.683594 C 315.175781 65.234375 315.105469 65.6875 315.109375 66.691406 M 142.179688 94.484375 C 142.109375 95.238281 142.144531 97.164062 142.257812 98.765625 C 142.457031 101.578125 142.464844 101.53125 142.53125 97.402344 C 142.597656 93.179688 142.433594 91.816406 142.179688 94.484375 M 244.386719 106.5 C 244.941406 106.585938 245.761719 106.582031 246.210938 106.496094 C 246.660156 106.410156 246.207031 106.339844 245.203125 106.34375 C 244.199219 106.347656 243.832031 106.417969 244.386719 106.5 M 250.222656 154.71875 C 250.222656 155.621094 250.292969 155.988281 250.382812 155.539062 C 250.46875 155.085938 250.46875 154.347656 250.382812 153.898438 C 250.292969 153.445312 250.222656 153.816406 250.222656 154.71875 M 152.53125 191.417969 C 152.878906 191.511719 153.453125 191.511719 153.804688 191.417969 C 154.15625 191.328125 153.867188 191.253906 153.167969 191.253906 C 152.464844 191.253906 152.179688 191.328125 152.53125 191.417969 M 198.457031 191.433594 C 199.207031 191.511719 200.4375 191.511719 201.191406 191.433594 C 201.941406 191.355469 201.328125 191.289062 199.824219 191.289062 C 198.320312 191.289062 197.703125 191.355469 198.457031 191.433594 M 209.03125 191.429688 C 209.585938 191.511719 210.40625 191.511719 210.855469 191.425781 C 211.300781 191.339844 210.847656 191.269531 209.847656 191.273438 C 208.84375 191.273438 208.476562 191.347656 209.03125 191.429688 M 143.417969 192.148438 C 143.769531 192.238281 144.34375 192.238281 144.691406 192.148438 C 145.042969 192.058594 144.757812 191.980469 144.054688 191.980469 C 143.351562 191.980469 143.066406 192.058594 143.417969 192.148438 " fill-opacity="1" fill-rule="evenodd"/><path fill="#16c6ee" d="M 303.378906 44.851562 C 297.945312 50.253906 291.660156 53.753906 283.660156 55.835938 C 281.082031 56.507812 273.292969 56.644531 218.230469 57 L 174.855469 57.277344 L 171.574219 58.289062 C 169.769531 58.84375 168.046875 59.324219 167.746094 59.351562 C 167.445312 59.378906 167.117188 59.503906 167.019531 59.628906 C 166.691406 60.039062 161.609375 62.4375 161.394531 62.285156 C 161.28125 62.203125 161.265625 62.242188 161.363281 62.371094 C 161.457031 62.5 160.351562 63.441406 158.902344 64.460938 C 151.976562 69.324219 146.386719 77.285156 143.957031 85.742188 C 143.480469 87.398438 143.015625 88.675781 142.921875 88.582031 C 142.613281 88.273438 142.769531 104.214844 143.082031 104.84375 C 143.246094 105.179688 143.628906 105.550781 143.933594 105.664062 C 144.683594 105.953125 280.433594 105.960938 281.316406 105.671875 C 281.703125 105.546875 282.429688 105.292969 282.929688 105.113281 C 283.429688 104.929688 284.660156 104.613281 285.664062 104.410156 C 288.289062 103.871094 288.277344 103.875 288.816406 103.441406 C 289.289062 103.058594 291.414062 102.476562 291.902344 102.597656 C 292.035156 102.628906 292.242188 102.496094 292.367188 102.300781 C 292.488281 102.109375 293.410156 101.496094 294.410156 100.941406 C 295.414062 100.386719 296.316406 99.816406 296.414062 99.675781 C 296.515625 99.53125 297.15625 99.128906 297.835938 98.78125 C 302.40625 96.441406 309.808594 86.820312 312.414062 79.835938 C 312.859375 78.648438 313.320312 77.511719 313.445312 77.316406 C 313.566406 77.121094 313.707031 76.535156 313.761719 76.015625 C 313.816406 75.5 314.058594 73.84375 314.300781 72.339844 C 315.773438 63.179688 314.253906 54.640625 309.691406 46.476562 C 306.726562 41.167969 307.011719 41.242188 303.378906 44.851562 M 252.78125 106.507812 C 253.941406 106.582031 255.746094 106.582031 256.789062 106.507812 C 257.835938 106.433594 256.886719 106.375 254.679688 106.375 C 252.476562 106.378906 251.621094 106.4375 252.78125 106.507812 M 240.4375 128.199219 C 239.886719 128.851562 239.285156 129.339844 239.105469 129.285156 C 238.921875 129.230469 238.863281 129.335938 238.976562 129.519531 C 239.339844 130.105469 230.90625 136.492188 229.773438 136.492188 C 229.589844 136.492188 229.253906 136.710938 229.03125 136.980469 C 228.808594 137.25 227.929688 137.675781 227.074219 137.929688 C 226.21875 138.183594 225.347656 138.53125 225.140625 138.699219 C 224.402344 139.300781 218.722656 140.910156 215.941406 141.304688 C 214.171875 141.558594 200.4375 141.800781 178.863281 141.957031 C 146.5625 142.199219 144.363281 142.253906 140.410156 142.960938 C 132.460938 144.375 122.941406 147.476562 116.898438 150.621094 C 116.097656 151.039062 114.664062 151.742188 113.710938 152.183594 C 112.757812 152.625 111.980469 153.097656 111.980469 153.238281 C 111.980469 153.375 111.445312 153.769531 110.792969 154.109375 C 109.65625 154.707031 108.476562 155.460938 105.011719 157.804688 C 104.132812 158.398438 103.289062 158.847656 103.140625 158.804688 C 102.988281 158.761719 102.90625 158.867188 102.957031 159.042969 C 103.007812 159.214844 101.734375 160.421875 100.132812 161.730469 C 94.539062 166.285156 87.390625 174.429688 83.515625 180.671875 C 82.796875 181.832031 82.058594 182.65625 81.875 182.507812 C 81.691406 182.359375 81.65625 182.378906 81.796875 182.550781 C 81.9375 182.722656 81.164062 184.609375 80.082031 186.742188 C 76.507812 193.792969 75.414062 196.511719 74.035156 201.738281 C 73.640625 203.242188 73.167969 204.800781 72.980469 205.203125 C 72.796875 205.601562 72.386719 207.652344 72.070312 209.757812 C 71.753906 211.863281 71.292969 214.570312 71.050781 215.773438 C 69.792969 221.984375 71.019531 239.230469 73.222656 246.296875 C 73.765625 248.027344 74.800781 248.09375 74.800781 246.394531 C 74.800781 246.066406 74.945312 245.890625 75.125 246 C 75.300781 246.109375 75.4375 245.996094 75.425781 245.75 C 75.382812 244.910156 75.980469 242.925781 76.273438 242.925781 C 76.433594 242.925781 76.671875 242.433594 76.804688 241.832031 C 76.9375 241.226562 77.195312 240.824219 77.375 240.9375 C 77.558594 241.050781 77.609375 240.886719 77.488281 240.574219 C 77.367188 240.257812 77.476562 239.75 77.730469 239.445312 C 77.988281 239.136719 78.570312 238.074219 79.03125 237.082031 C 79.492188 236.085938 80.066406 235.273438 80.3125 235.273438 C 80.554688 235.273438 80.644531 235.167969 80.515625 235.035156 C 80.109375 234.628906 84.679688 227.222656 87.117188 224.335938 C 87.542969 223.835938 88.535156 222.65625 89.324219 221.71875 C 90.113281 220.777344 90.859375 220.109375 90.980469 220.230469 C 91.101562 220.351562 91.203125 220.179688 91.203125 219.84375 C 91.203125 219.210938 95.601562 214.632812 98.617188 212.125 C 99.582031 211.324219 100.5625 210.5 100.796875 210.296875 C 103.5625 207.894531 111.363281 202.46875 112.050781 202.46875 C 112.25 202.46875 112.886719 202.128906 113.46875 201.714844 C 114.050781 201.300781 114.691406 201.066406 114.890625 201.191406 C 115.09375 201.316406 115.257812 201.160156 115.257812 200.847656 C 115.257812 200.535156 115.527344 200.28125 115.855469 200.28125 C 116.179688 200.28125 116.960938 199.96875 117.585938 199.585938 C 118.210938 199.199219 119.050781 198.832031 119.449219 198.765625 C 119.851562 198.695312 120.34375 198.453125 120.542969 198.226562 C 120.746094 197.996094 121.769531 197.535156 122.824219 197.195312 C 123.875 196.855469 124.734375 196.460938 124.734375 196.320312 C 124.734375 196.179688 125.113281 196.035156 125.574219 195.996094 C 126.03125 195.957031 127.117188 195.679688 127.980469 195.371094 C 128.84375 195.066406 129.699219 194.910156 129.878906 195.019531 C 130.058594 195.128906 130.203125 195.0625 130.203125 194.871094 C 130.203125 194.679688 131.066406 194.320312 132.117188 194.074219 C 133.167969 193.824219 134.277344 193.496094 134.578125 193.34375 C 134.878906 193.1875 135.992188 192.96875 137.054688 192.855469 C 138.117188 192.742188 139.132812 192.558594 139.316406 192.445312 C 140.59375 191.65625 149.207031 191.390625 180.871094 191.167969 C 199.8125 191.035156 215.804688 190.808594 216.40625 190.660156 C 217.007812 190.515625 218.648438 190.148438 220.054688 189.847656 C 221.457031 189.546875 223.058594 189.050781 223.613281 188.75 C 224.171875 188.449219 225.074219 188.121094 225.621094 188.023438 C 226.167969 187.925781 226.667969 187.691406 226.734375 187.5 C 226.800781 187.3125 227.050781 187.160156 227.289062 187.160156 C 228.089844 187.160156 234.074219 183.285156 236.332031 181.304688 C 238.972656 178.988281 238.917969 179.046875 241.011719 176.554688 C 241.914062 175.480469 242.9375 174.3125 243.289062 173.957031 C 243.640625 173.597656 243.839844 173.308594 243.734375 173.308594 C 243.628906 173.308594 243.945312 172.609375 244.4375 171.757812 C 247.070312 167.214844 248.402344 163.964844 248.890625 160.902344 C 249.023438 160.074219 249.332031 159.320312 249.570312 159.226562 C 250.207031 158.984375 250.128906 143.640625 249.488281 143 C 249.234375 142.75 249.027344 142.125 249.027344 141.613281 C 249.019531 140.011719 247.015625 134.433594 245.75 132.484375 C 245.554688 132.183594 245.042969 131.28125 244.613281 130.480469 C 242.585938 126.695312 241.988281 126.367188 240.4375 128.199219 " fill-opacity="1" fill-rule="evenodd"/><path fill="#04b4e6" d="M 303.328125 44.546875 L 301.335938 46.644531 L 303.433594 44.652344 C 304.585938 43.554688 305.527344 42.613281 305.527344 42.554688 C 305.527344 42.285156 305.179688 42.601562 303.328125 44.546875 M 293.410156 51.773438 C 292.046875 52.511719 292.128906 52.820312 293.5 52.113281 C 294.101562 51.800781 294.59375 51.46875 294.59375 51.375 C 294.59375 51.136719 294.554688 51.152344 293.410156 51.773438 M 284.386719 55.210938 C 283.636719 55.449219 283.605469 55.507812 284.203125 55.53125 C 284.605469 55.550781 285.179688 55.402344 285.480469 55.210938 C 286.121094 54.796875 285.675781 54.796875 284.386719 55.210938 M 237.097656 56.566406 C 237.652344 56.648438 238.472656 56.648438 238.921875 56.558594 C 239.367188 56.472656 238.914062 56.40625 237.914062 56.40625 C 236.910156 56.410156 236.542969 56.480469 237.097656 56.566406 M 177.132812 56.925781 C 177.585938 57.011719 178.324219 57.011719 178.773438 56.925781 C 179.222656 56.839844 178.855469 56.765625 177.953125 56.765625 C 177.050781 56.765625 176.683594 56.839844 177.132812 56.925781 M 173.945312 57.414062 C 173.542969 57.683594 173.691406 57.71875 174.492188 57.539062 C 175.832031 57.238281 176.121094 57.03125 175.1875 57.039062 C 174.804688 57.039062 174.246094 57.210938 173.945312 57.414062 M 153.699219 68.421875 L 151.890625 70.335938 L 153.804688 68.527344 C 154.859375 67.53125 155.71875 66.671875 155.71875 66.613281 C 155.71875 66.34375 155.378906 66.644531 153.699219 68.421875 M 151.117188 71.339844 C 150.042969 72.566406 149.414062 73.433594 149.597656 73.433594 C 149.691406 73.433594 150.292969 72.777344 150.9375 71.976562 C 152.1875 70.421875 152.3125 69.972656 151.117188 71.339844 M 141.960938 97.308594 C 141.964844 98.113281 142.039062 98.398438 142.125 97.941406 C 142.214844 97.488281 142.210938 96.832031 142.117188 96.484375 C 142.027344 96.136719 141.957031 96.507812 141.960938 97.308594 M 142.640625 104.300781 C 142.585938 105.320312 143.519531 106.253906 144.535156 106.191406 L 145.332031 106.140625 L 144.535156 105.988281 C 143.625 105.808594 143.117188 105.277344 142.859375 104.234375 C 142.695312 103.554688 142.679688 103.5625 142.640625 104.300781 M 146.886719 106.503906 C 147.542969 106.585938 148.523438 106.582031 149.074219 106.5 C 149.621094 106.417969 149.085938 106.351562 147.882812 106.351562 C 146.679688 106.355469 146.230469 106.421875 146.886719 106.503906 M 234.722656 106.507812 C 235.976562 106.582031 238.027344 106.582031 239.28125 106.507812 C 240.535156 106.4375 239.507812 106.378906 237.003906 106.378906 C 234.496094 106.378906 233.472656 106.4375 234.722656 106.507812 M 247.851562 106.503906 C 248.507812 106.585938 249.492188 106.582031 250.039062 106.5 C 250.585938 106.417969 250.050781 106.351562 248.847656 106.351562 C 247.644531 106.355469 247.199219 106.421875 247.851562 106.503906 M 259.148438 106.496094 C 259.601562 106.585938 260.257812 106.582031 260.609375 106.492188 C 260.957031 106.398438 260.585938 106.328125 259.785156 106.332031 C 258.980469 106.335938 258.695312 106.410156 259.148438 106.496094 M 266.800781 106.496094 C 267.25 106.585938 267.988281 106.585938 268.441406 106.496094 C 268.890625 106.410156 268.523438 106.339844 267.621094 106.339844 C 266.71875 106.339844 266.347656 106.410156 266.800781 106.496094 M 240.125 128.019531 C 239.335938 129.027344 239.273438 129.195312 239.882812 128.660156 C 240.617188 128.023438 241.578125 126.652344 241.296875 126.652344 C 241.242188 126.652344 240.710938 127.265625 240.125 128.019531 M 215.222656 141.117188 C 215.574219 141.210938 216.148438 141.210938 216.5 141.117188 C 216.851562 141.027344 216.5625 140.953125 215.859375 140.953125 C 215.160156 140.953125 214.871094 141.027344 215.222656 141.117188 M 163.28125 141.871094 C 171.550781 141.925781 185.082031 141.925781 193.351562 141.871094 C 201.621094 141.816406 194.855469 141.769531 178.316406 141.769531 C 161.777344 141.769531 155.011719 141.816406 163.28125 141.871094 M 250.210938 149.613281 C 250.210938 150.316406 250.285156 150.605469 250.375 150.253906 C 250.46875 149.902344 250.46875 149.328125 250.375 148.976562 C 250.285156 148.625 250.210938 148.914062 250.210938 149.613281 M 94.660156 166.472656 L 90.65625 170.574219 L 94.757812 166.570312 C 98.566406 162.851562 99.023438 162.371094 98.757812 162.371094 C 98.707031 162.371094 96.859375 164.21875 94.660156 166.472656 M 86.097656 176.222656 C 85.671875 176.824219 85.402344 177.316406 85.503906 177.316406 C 85.605469 177.316406 86.035156 176.824219 86.464844 176.222656 C 86.890625 175.621094 87.160156 175.128906 87.058594 175.128906 C 86.960938 175.128906 86.527344 175.621094 86.097656 176.222656 M 158.550781 191.433594 C 159.207031 191.511719 160.1875 191.511719 160.738281 191.429688 C 161.285156 191.347656 160.75 191.28125 159.546875 191.28125 C 158.34375 191.28125 157.894531 191.351562 158.550781 191.433594 M 170.046875 191.441406 C 172.613281 191.503906 176.714844 191.503906 179.160156 191.441406 C 181.601562 191.378906 179.503906 191.324219 174.492188 191.324219 C 169.480469 191.328125 167.476562 191.378906 170.046875 191.441406 M 193.527344 191.429688 C 194.175781 191.511719 195.324219 191.511719 196.078125 191.433594 C 196.835938 191.355469 196.304688 191.289062 194.902344 191.289062 C 193.5 191.285156 192.878906 191.351562 193.527344 191.429688 M 70.171875 222.515625 C 70.171875 223.617188 70.238281 224.070312 70.324219 223.515625 C 70.40625 222.964844 70.40625 222.0625 70.324219 221.511719 C 70.238281 220.960938 70.171875 221.414062 70.171875 222.515625 M 70.175781 227.4375 C 70.175781 228.640625 70.246094 229.085938 70.324219 228.433594 C 70.40625 227.777344 70.40625 226.792969 70.320312 226.246094 C 70.238281 225.699219 70.171875 226.234375 70.175781 227.4375 M 72.988281 247.140625 C 72.957031 248.261719 73.878906 248.789062 74.402344 247.945312 C 74.867188 247.203125 74.859375 247.167969 74.339844 247.59375 C 73.859375 247.992188 73.703125 247.964844 73.382812 247.414062 C 73.171875 247.050781 72.996094 246.929688 72.988281 247.140625 " fill-opacity="1" fill-rule="evenodd"/><g fill="#ffffff" fill-opacity="1"><g transform="translate(352.650435, 219.987253)"><g><path d="M 146.703125 -114.796875 L 172.890625 -114.796875 L 136.84375 0 L 112.5 0 L 88.625 -77.375 L 64.515625 0 L 40.171875 0 L 4.125 -114.796875 L 30.3125 -114.796875 L 52.578125 -35.59375 L 76.6875 -114.796875 L 100.328125 -114.796875 L 124.203125 -35.59375 Z M 146.703125 -114.796875 "/></g></g></g><g fill="#ffffff" fill-opacity="1"><g transform="translate(529.432131, 219.987253)"><g><path d="M 38 -136.71875 C 34.863281 -133.582031 31.148438 -132.015625 26.859375 -132.015625 C 22.578125 -132.015625 18.863281 -133.582031 15.71875 -136.71875 C 12.582031 -139.863281 11.015625 -143.578125 11.015625 -147.859375 C 11.015625 -152.140625 12.546875 -155.847656 15.609375 -158.984375 C 18.671875 -162.128906 22.421875 -163.703125 26.859375 -163.703125 C 31.296875 -163.703125 35.046875 -162.128906 38.109375 -158.984375 C 41.171875 -155.847656 42.703125 -152.140625 42.703125 -147.859375 C 42.703125 -143.578125 41.132812 -139.863281 38 -136.71875 Z M 14.46875 0 L 14.46875 -114.796875 L 39.265625 -114.796875 L 39.265625 0 Z M 14.46875 0 "/></g></g></g><g fill="#ffffff" fill-opacity="1"><g transform="translate(582.925783, 219.987253)"><g><path d="M 74.84375 -117.78125 C 88.007812 -117.78125 98.644531 -113.570312 106.75 -105.15625 C 114.863281 -96.738281 118.921875 -85.179688 118.921875 -70.484375 L 118.921875 0 L 94.140625 0 L 94.140625 -67.953125 C 94.140625 -76.523438 91.84375 -83.109375 87.25 -87.703125 C 82.65625 -92.296875 76.378906 -94.59375 68.421875 -94.59375 C 59.691406 -94.59375 52.648438 -91.875 47.296875 -86.4375 C 41.941406 -81.007812 39.265625 -72.707031 39.265625 -61.53125 L 39.265625 0 L 14.46875 0 L 14.46875 -114.796875 L 39.265625 -114.796875 L 39.265625 -100.109375 C 46.765625 -111.890625 58.625 -117.78125 74.84375 -117.78125 Z M 74.84375 -117.78125 "/></g></g></g><g fill="#ffffff" fill-opacity="1"><g transform="translate(714.019748, 219.987253)"><g><path d="M 105.390625 -160.71875 L 130.171875 -160.71875 L 130.171875 0 L 105.390625 0 L 105.390625 -16.53125 C 96.046875 -3.519531 82.648438 2.984375 65.203125 2.984375 C 49.441406 2.984375 35.972656 -2.867188 24.796875 -14.578125 C 13.617188 -26.285156 8.03125 -40.5625 8.03125 -57.40625 C 8.03125 -74.394531 13.617188 -88.703125 24.796875 -100.328125 C 35.972656 -111.960938 49.441406 -117.78125 65.203125 -117.78125 C 82.648438 -117.78125 96.046875 -111.351562 105.390625 -98.5 Z M 43.15625 -31.109375 C 50.050781 -24.140625 58.703125 -20.65625 69.109375 -20.65625 C 79.515625 -20.65625 88.160156 -24.140625 95.046875 -31.109375 C 101.941406 -38.078125 105.390625 -46.835938 105.390625 -57.390625 C 105.390625 -67.953125 101.941406 -76.71875 95.046875 -83.6875 C 88.160156 -90.65625 79.515625 -94.140625 69.109375 -94.140625 C 58.703125 -94.140625 50.050781 -90.65625 43.15625 -83.6875 C 36.269531 -76.71875 32.828125 -67.953125 32.828125 -57.390625 C 32.828125 -46.835938 36.269531 -38.078125 43.15625 -31.109375 Z M 43.15625 -31.109375 "/></g></g></g><g clip-path="url(#d3348ac35d)"><g clip-path="url(#02ce89b16a)"><path stroke-linecap="butt" transform="matrix(0.749426, 0, 0, 0.75, 904.89868, 26.838996)" fill="none" stroke-linejoin="miter" d="M 50.00149 0.00113097 L 256.237471 0.00113097 C 283.847145 0.00113097 306.234072 22.38655 306.234072 50.001136 L 306.234072 253.995948 C 306.234072 281.610535 283.847145 303.995953 256.237471 303.995953 L 50.00149 303.995953 C 22.386603 303.995953 -0.000323726 281.610535 -0.000323726 253.995948 L -0.000323726 50.001136 C -0.000323726 22.38655 22.386603 0.00113097 50.00149 0.00113097 Z M 50.00149 0.00113097 " stroke="#ffffff" stroke-width="40" stroke-opacity="1" stroke-miterlimit="4"/></g></g><g fill="#ffffff" fill-opacity="1"><g transform="translate(951.487739, 193.49997)"><g><path d="M 77.84375 -8.015625 C 70.445312 -1.367188 60.898438 1.953125 49.203125 1.953125 C 37.503906 1.953125 27.953125 -1.367188 20.546875 -8.015625 C 13.148438 -14.671875 9.453125 -23.597656 9.453125 -34.796875 L 9.453125 -105 L 26.703125 -105 L 26.703125 -35.84375 C 26.703125 -29.445312 28.578125 -24.347656 32.328125 -20.546875 C 36.078125 -16.742188 41.703125 -14.84375 49.203125 -14.84375 C 56.703125 -14.84375 62.328125 -16.742188 66.078125 -20.546875 C 69.828125 -24.347656 71.703125 -29.445312 71.703125 -35.84375 L 71.703125 -105 L 88.953125 -105 L 88.953125 -34.796875 C 88.953125 -23.597656 85.25 -14.671875 77.84375 -8.015625 Z M 77.84375 -8.015625 "/></g></g></g><g fill="#ffffff" fill-opacity="1"><g transform="translate(1049.737753, 193.49997)"><g><path d="M 10.5 -105 L 27.75 -105 L 27.75 0 L 10.5 0 Z M 10.5 -105 "/></g></g></g></svg>