<svg xmlns="http://www.w3.org/2000/svg" xmlns:xlink="http://www.w3.org/1999/xlink" width="900" zoomAndPan="magnify" viewBox="0 0 675 225" height="300" preserveAspectRatio="xMidYMid meet" version="1.0"><defs><g/><clipPath id="1ff4fc52d0"><path d="M 54.894531 54.894531 L 193.792969 54.894531 L 193.792969 193.792969 L 54.894531 193.792969 Z M 54.894531 54.894531 " clip-rule="nonzero"/></clipPath><clipPath id="9de2c807bf"><path d="M 30.675781 30.675781 L 194.34375 30.675781 L 194.34375 194.34375 L 30.675781 194.34375 Z M 30.675781 30.675781 " clip-rule="nonzero"/></clipPath></defs><g clip-path="url(#1ff4fc52d0)"><path fill="#ffffff" d="M 54.894531 54.894531 L 193.792969 54.894531 L 193.792969 193.792969 L 54.894531 193.792969 Z M 54.894531 54.894531 " fill-opacity="1" fill-rule="nonzero"/></g><g clip-path="url(#9de2c807bf)"><path stroke-linecap="butt" transform="matrix(0.166689, 0, 0, 0.166689, 30.675775, 30.675785)" fill="none" stroke-linejoin="miter" d="M 0.000036764 -0.000023228 L 981.876969 -0.000023228 L 981.876969 981.876909 L 0.000036764 981.876909 L 0.000036764 -0.000023228 " stroke="#ffffff" stroke-width="24" stroke-opacity="1" stroke-miterlimit="4"/></g><g fill="#ffffff" fill-opacity="1"><g transform="translate(258.740615, 147.000004)"><g><path d="M 67.5 -56 C 67.5 -47.644531 64.085938 -41.9375 57.265625 -38.875 C 63.554688 -36.800781 67.851562 -33.003906 70.15625 -27.484375 C 71 -25.335938 71.421875 -22.847656 71.421875 -20.015625 C 71.421875 -10.804688 66.550781 -4.671875 56.8125 -1.609375 C 53.59375 -0.535156 49.796875 0 45.421875 0 L 9.3125 0 L 9.3125 -76.125 L 43.46875 -76.125 C 51.675781 -76.125 57.925781 -73.898438 62.21875 -69.453125 C 65.738281 -65.929688 67.5 -61.445312 67.5 -56 Z M 17.9375 -42.09375 L 43.46875 -42.09375 C 50.519531 -42.09375 55.234375 -44.503906 57.609375 -49.328125 C 58.453125 -51.015625 58.875 -52.835938 58.875 -54.796875 C 58.875 -56.753906 58.601562 -58.476562 58.0625 -59.96875 C 57.53125 -61.46875 56.691406 -62.789062 55.546875 -63.9375 C 53.015625 -66.625 49.296875 -67.96875 44.390625 -67.96875 L 17.9375 -67.96875 Z M 46.34375 -8.171875 C 51.632812 -8.171875 55.695312 -9.257812 58.53125 -11.4375 C 61.375 -13.625 62.796875 -16.710938 62.796875 -20.703125 C 62.796875 -24.535156 61.414062 -27.675781 58.65625 -30.125 C 55.582031 -32.882812 51.171875 -34.265625 45.421875 -34.265625 L 17.9375 -34.265625 L 17.9375 -8.171875 Z M 46.34375 -8.171875 "/></g></g></g><g fill="#ffffff" fill-opacity="1"><g transform="translate(334.868049, 147.000004)"><g><path d="M 32.4375 -58.421875 C 41.019531 -58.421875 47.992188 -55.546875 53.359375 -49.796875 C 58.421875 -44.273438 60.953125 -37.257812 60.953125 -28.75 C 60.953125 -20.238281 58.421875 -13.222656 53.359375 -7.703125 C 47.992188 -1.953125 41.019531 0.921875 32.4375 0.921875 C 23.84375 0.921875 16.863281 -1.953125 11.5 -7.703125 C 6.4375 -13.222656 3.90625 -20.238281 3.90625 -28.75 C 3.90625 -37.257812 6.4375 -44.273438 11.5 -49.796875 C 16.863281 -55.546875 23.84375 -58.421875 32.4375 -58.421875 Z M 32.4375 -6.90625 C 38.644531 -6.90625 43.550781 -9.050781 47.15625 -13.34375 C 50.601562 -17.40625 52.328125 -22.539062 52.328125 -28.75 C 52.328125 -34.957031 50.601562 -40.09375 47.15625 -44.15625 C 43.550781 -48.445312 38.644531 -50.59375 32.4375 -50.59375 C 26.21875 -50.59375 21.304688 -48.445312 17.703125 -44.15625 C 14.253906 -40.09375 12.53125 -34.957031 12.53125 -28.75 C 12.53125 -22.539062 14.253906 -17.40625 17.703125 -13.34375 C 21.304688 -9.050781 26.21875 -6.90625 32.4375 -6.90625 Z M 32.4375 -6.90625 "/></g></g></g><g fill="#ffffff" fill-opacity="1"><g transform="translate(399.725869, 147.000004)"><g><path d="M 32.65625 -29.671875 L 54.96875 0 L 43.9375 0 L 27.71875 -23.453125 L 11.390625 0 L 0.453125 0 L 22.65625 -29.671875 L 1.84375 -57.5 L 12.875 -57.5 L 27.71875 -35.765625 L 42.4375 -57.5 L 53.46875 -57.5 Z M 32.65625 -29.671875 "/></g></g></g><g fill="#ffffff" fill-opacity="1"><g transform="translate(455.153998, 147.000004)"><g><path d="M 32.4375 -58.421875 C 41.019531 -58.421875 47.992188 -55.546875 53.359375 -49.796875 C 58.421875 -44.273438 60.953125 -37.257812 60.953125 -28.75 C 60.953125 -20.238281 58.421875 -13.222656 53.359375 -7.703125 C 47.992188 -1.953125 41.019531 0.921875 32.4375 0.921875 C 23.84375 0.921875 16.863281 -1.953125 11.5 -7.703125 C 6.4375 -13.222656 3.90625 -20.238281 3.90625 -28.75 C 3.90625 -37.257812 6.4375 -44.273438 11.5 -49.796875 C 16.863281 -55.546875 23.84375 -58.421875 32.4375 -58.421875 Z M 32.4375 -6.90625 C 38.644531 -6.90625 43.550781 -9.050781 47.15625 -13.34375 C 50.601562 -17.40625 52.328125 -22.539062 52.328125 -28.75 C 52.328125 -34.957031 50.601562 -40.09375 47.15625 -44.15625 C 43.550781 -48.445312 38.644531 -50.59375 32.4375 -50.59375 C 26.21875 -50.59375 21.304688 -48.445312 17.703125 -44.15625 C 14.253906 -40.09375 12.53125 -34.957031 12.53125 -28.75 C 12.53125 -22.539062 14.253906 -17.40625 17.703125 -13.34375 C 21.304688 -9.050781 26.21875 -6.90625 32.4375 -6.90625 Z M 32.4375 -6.90625 "/></g></g></g><g fill="#ffffff" fill-opacity="1"><g transform="translate(520.011829, 147.000004)"><g><path d="M 52.328125 -9.203125 C 47.722656 -2.453125 40.859375 0.921875 31.734375 0.921875 C 23.453125 0.921875 16.707031 -1.953125 11.5 -7.703125 C 6.4375 -13.378906 3.90625 -20.394531 3.90625 -28.75 C 3.90625 -37.101562 6.4375 -44.117188 11.5 -49.796875 C 16.707031 -55.546875 23.644531 -58.421875 32.3125 -58.421875 C 40.976562 -58.421875 47.648438 -55.007812 52.328125 -48.1875 L 52.328125 -80.5 L 60.953125 -80.5 L 60.953125 0 L 52.328125 0 Z M 32.890625 -6.90625 C 39.097656 -6.90625 44.003906 -9.050781 47.609375 -13.34375 C 51.054688 -17.40625 52.78125 -22.539062 52.78125 -28.75 C 52.78125 -34.957031 51.054688 -40.09375 47.609375 -44.15625 C 44.003906 -48.445312 39.097656 -50.59375 32.890625 -50.59375 C 26.753906 -50.59375 21.769531 -48.445312 17.9375 -44.15625 C 14.332031 -40.09375 12.53125 -34.957031 12.53125 -28.75 C 12.53125 -22.539062 14.332031 -17.40625 17.9375 -13.34375 C 21.769531 -9.050781 26.753906 -6.90625 32.890625 -6.90625 Z M 32.890625 -6.90625 "/></g></g></g><g fill="#ffffff" fill-opacity="1"><g transform="translate(588.434541, 147.000004)"><g><path d="M 33.125 -6.90625 C 40.863281 -6.90625 46.421875 -10.125 49.796875 -16.5625 L 59.21875 -16.5625 C 57.226562 -11.34375 54.066406 -7.125 49.734375 -3.90625 C 45.398438 -0.6875 39.820312 0.921875 33 0.921875 C 24.34375 0.921875 17.289062 -1.953125 11.84375 -7.703125 C 6.550781 -13.296875 3.90625 -20.3125 3.90625 -28.75 C 3.90625 -37.257812 6.4375 -44.273438 11.5 -49.796875 C 16.863281 -55.546875 23.84375 -58.421875 32.4375 -58.421875 C 41.019531 -58.421875 47.992188 -55.546875 53.359375 -49.796875 C 58.421875 -44.273438 60.953125 -37.257812 60.953125 -28.75 L 60.953125 -25.296875 L 12.765625 -25.296875 C 13.378906 -20.003906 15.488281 -15.632812 19.09375 -12.1875 C 22.769531 -8.664062 27.445312 -6.90625 33.125 -6.90625 Z M 32.4375 -50.59375 C 27.144531 -50.59375 22.695312 -48.945312 19.09375 -45.65625 C 15.71875 -42.507812 13.644531 -38.40625 12.875 -33.34375 L 51.984375 -33.34375 C 51.210938 -38.40625 49.140625 -42.507812 45.765625 -45.65625 C 42.160156 -48.945312 37.71875 -50.59375 32.4375 -50.59375 Z M 32.4375 -50.59375 "/></g></g></g></svg>