<svg fill="none" viewBox="0 0 1447 162" xmlns="http://www.w3.org/2000/svg" xmlns:xlink="http://www.w3.org/1999/xlink">
	<linearGradient id="a" gradientUnits="userSpaceOnUse" x1="1447" x2="1388.91" y1="161.111" y2="-211.53">
		<stop offset="0" stop-color="#FFFFFF" />
		<stop offset="1" stop-color="#C4C4C4" />
	</linearGradient>
	<g clip-rule="evenodd" fill-rule="evenodd">
		<path
			d="m1447 141.182v-74.9073-54.1758-7.0989h-1447v59.4831 6.1375c0 8.9588 6.37173 16.9494 15.011 19.3208 391.91 107.5786 596.973 55.8896 775.132 10.9816 180.928-45.6053 334.107-84.2165 627.057 58.082 13.44 6.53 29.8-2.879 29.8-17.823z"
			fill="url(#a)" />
		<path
			d="m1447 136.182v-74.9073-54.17582-7.09888h-1447v59.4831 6.1375c0 8.9588 6.37173 16.9494 15.011 19.3208 391.91 107.5786 596.973 55.8896 775.132 10.9818 180.928-45.6055 334.107-84.2167 627.057 58.0818 13.44 6.53 29.8-2.879 29.8-17.823z"
			fill="#000000" />
	</g>
</svg>
