<svg xmlns="http://www.w3.org/2000/svg" xmlns:xlink="http://www.w3.org/1999/xlink" width="1000" zoomAndPan="magnify"
	viewBox="0 0 750 749.999995" height="1000" preserveAspectRatio="xMidYMid meet" version="1.0">
	<defs>
		<clipPath id="9b12c3d349">
			<path d="M 7.34375 0 L 742.34375 0 L 742.34375 750 L 7.34375 750 Z M 7.34375 0 " clip-rule="nonzero" />
		</clipPath>
	</defs>
	<g clip-path="url(#9b12c3d349)">
		<path fill="#ffffff"
			d="M 67.1875 636.230469 C 68.125 636.722656 68.980469 637.167969 70.019531 637.6875 C 61.804688 625.515625 54.5 613.292969 47.691406 601.09375 C 46.625 600.652344 45.6875 600.261719 44.832031 599.871094 C 44.597656 599.480469 44.390625 599.039062 44.257812 598.648438 C 45.144531 599.039062 46.050781 599.429688 47.09375 599.871094 C 41.296875 587.699219 35.863281 575.53125 31.027344 563.359375 C 29.960938 562.96875 29.023438 562.578125 28.167969 562.292969 C 28.011719 561.902344 27.882812 561.460938 27.726562 561.070312 C 28.609375 561.355469 29.519531 561.695312 30.585938 562.03125 C 26.296875 549.859375 22.449219 537.792969 19.25 525.515625 C 18.289062 525.230469 17.351562 524.945312 16.417969 524.582031 C 16.363281 524.296875 16.234375 523.851562 16.128906 523.410156 C 17.066406 523.695312 17.976562 523.90625 18.964844 524.296875 C 16 512.125 13.894531 499.953125 11.917969 487.703125 C 10.957031 487.519531 9.96875 487.261719 9.085938 487.027344 C 9.085938 486.6875 9.085938 486.296875 9.035156 485.855469 C 9.917969 486.039062 10.878906 486.296875 11.816406 486.480469 C 10.800781 474.308594 10.152344 462.136719 10.074219 449.886719 C 9.113281 449.730469 8.226562 449.601562 7.34375 449.445312 C 7.34375 449.054688 7.34375 448.613281 7.34375 448.222656 C 8.226562 448.40625 9.085938 448.5625 10.074219 448.71875 C 10.800781 436.546875 11.972656 424.324219 14.492188 412.175781 C 13.53125 412.023438 12.648438 411.996094 11.761719 411.890625 C 11.816406 411.5 11.917969 411.058594 11.945312 410.617188 C 12.828125 410.773438 13.738281 410.851562 14.675781 410.902344 C 17.976562 398.730469 22.421875 386.613281 28.921875 374.390625 C 27.984375 374.285156 27.128906 374.285156 26.191406 374.207031 C 26.347656 373.921875 26.582031 373.480469 26.867188 373.035156 C 27.75 373.035156 28.609375 373.089844 29.597656 373.191406 C 38.539062 361.019531 51.199219 348.851562 71.738281 336.601562 C 70.671875 336.652344 69.789062 336.652344 68.902344 336.652344 C 69.632812 336.3125 70.308594 335.925781 71.140625 335.480469 C 72.023438 335.378906 72.882812 335.378906 73.921875 335.378906 C 91.105469 323.308594 99.421875 311.085938 103.453125 298.914062 C 102.515625 299.019531 101.554688 299.070312 100.671875 299.148438 C 100.671875 298.863281 100.722656 298.371094 100.722656 297.925781 C 101.660156 297.875 102.570312 297.769531 103.558594 297.746094 C 104.492188 285.523438 103.894531 273.351562 102.59375 261.152344 C 101.582031 261.335938 100.59375 261.4375 99.734375 261.59375 C 99.683594 261.207031 99.578125 260.816406 99.554688 260.371094 C 100.4375 260.21875 101.398438 260.085938 102.414062 259.929688 C 99.890625 247.757812 97.003906 235.589844 93.652344 223.390625 C 92.636719 223.625 91.652344 223.78125 90.6875 224.015625 C 90.636719 223.625 90.507812 223.183594 90.351562 222.792969 C 91.3125 222.558594 92.25 222.402344 93.261719 222.117188 C 89.675781 209.945312 85.90625 197.773438 81.980469 185.601562 C 80.914062 185.886719 79.898438 186.097656 78.964844 186.433594 C 78.859375 186.042969 78.730469 185.601562 78.574219 185.109375 C 79.535156 184.925781 80.574219 184.664062 81.589844 184.378906 C 77.613281 172.207031 73.816406 160.035156 70.097656 147.789062 C 69.035156 148.175781 68.019531 148.464844 67.03125 148.75 C 66.875 148.464844 66.796875 148.019531 66.640625 147.527344 C 67.605469 147.242188 68.644531 146.957031 69.761719 146.566406 C 66.460938 134.394531 63.289062 122.222656 60.820312 109.972656 C 59.699219 110.414062 58.6875 110.804688 57.699219 111.195312 C 57.648438 110.804688 57.542969 110.414062 57.515625 109.972656 C 58.453125 109.582031 59.46875 109.246094 60.480469 108.800781 C 58.582031 96.578125 57.515625 84.40625 57.804688 72.261719 C 56.683594 72.808594 55.722656 73.199219 54.789062 73.613281 C 54.789062 73.222656 54.789062 72.78125 54.789062 72.390625 C 55.722656 71.847656 56.683594 71.507812 57.804688 70.988281 C 59.15625 58.816406 62.769531 46.695312 70.074219 34.449219 C 69.113281 35.070312 68.175781 35.515625 67.238281 36.058594 C 67.578125 35.667969 67.863281 35.226562 68.175781 34.785156 C 69.058594 34.238281 69.96875 33.769531 70.957031 33.277344 C 71.632812 32.316406 72.28125 31.273438 72.855469 30.261719 C 73.246094 30.105469 73.582031 29.871094 74.023438 29.714844 C 73.453125 30.78125 72.804688 31.769531 72.230469 32.730469 C 84.398438 26.019531 96.617188 21.15625 108.808594 16.710938 C 109.378906 15.75 109.925781 14.65625 110.421875 13.640625 C 110.808594 13.539062 111.25 13.40625 111.640625 13.304688 C 111.148438 14.371094 110.679688 15.4375 110.082031 16.425781 C 122.300781 12.863281 134.46875 10.105469 146.761719 7.609375 C 147.207031 6.542969 147.648438 5.527344 147.984375 4.433594 C 148.375 4.382812 148.816406 4.277344 149.257812 4.148438 C 148.921875 5.214844 148.425781 6.230469 147.933594 7.320312 C 160.152344 5.710938 172.34375 4.148438 184.613281 3.421875 C 184.953125 2.355469 185.34375 1.289062 185.628906 0.246094 C 186.019531 0.144531 186.355469 0.144531 186.796875 0.144531 C 186.511719 1.210938 186.226562 2.222656 185.863281 3.316406 C 198.027344 2.640625 210.246094 2.875 222.492188 3.082031 C 222.726562 2.121094 222.933594 1.078125 223.167969 0.015625 C 223.558594 0.015625 224 0.015625 224.335938 0.015625 C 224.179688 1.078125 224 2.09375 223.714844 3.082031 C 235.878906 4.304688 248.097656 5.527344 260.394531 7.710938 C 260.550781 6.644531 260.679688 5.65625 260.730469 4.589844 C 261.121094 4.695312 261.5625 4.746094 262.003906 4.824219 C 261.902344 5.890625 261.773438 6.878906 261.617188 7.894531 C 273.835938 10.183594 286.027344 13.640625 298.296875 17.386719 C 298.296875 16.320312 298.402344 15.332031 298.402344 14.316406 C 298.738281 14.472656 299.128906 14.605469 299.570312 14.761719 C 299.570312 15.773438 299.570312 16.761719 299.46875 17.828125 C 311.683594 22.796875 323.878906 28.828125 336.148438 35.800781 C 336.148438 34.835938 336.097656 33.746094 335.964844 32.730469 C 336.304688 32.886719 336.746094 33.277344 337.136719 33.5625 C 337.292969 34.578125 337.316406 35.644531 337.421875 36.632812 C 349.640625 46.410156 361.832031 59.257812 374.101562 78.085938 C 373.945312 77.074219 373.714844 76.007812 373.53125 74.96875 C 373.867188 75.644531 374.3125 76.476562 374.753906 77.308594 C 374.988281 78.320312 375.144531 79.386719 375.296875 80.429688 C 387.515625 117.125 399.710938 126.226562 411.875 127.113281 C 411.695312 126.148438 411.382812 125.160156 411.097656 124.148438 C 411.433594 124.042969 411.824219 123.964844 412.265625 123.914062 C 412.65625 124.980469 412.941406 125.96875 413.148438 126.929688 C 425.367188 124.457031 437.558594 120.011719 449.832031 114.265625 C 449.492188 113.300781 449.101562 112.261719 448.660156 111.195312 C 449 111.039062 449.492188 110.804688 449.933594 110.621094 C 450.273438 111.636719 450.714844 112.703125 451 113.691406 C 463.21875 107.605469 475.410156 100.894531 487.683594 93.976562 C 487.238281 92.964844 486.746094 91.898438 486.226562 90.804688 C 486.5625 90.625 487.058594 90.363281 487.5 90.078125 C 487.992188 91.144531 488.511719 92.15625 488.957031 93.25 C 501.175781 86.253906 513.339844 79.335938 525.636719 72.261719 C 525.066406 71.195312 524.46875 70.179688 523.894531 69.039062 C 524.234375 68.882812 524.621094 68.648438 525.066406 68.414062 C 525.6875 69.53125 526.285156 70.597656 526.804688 71.664062 C 539.023438 64.953125 551.21875 58.425781 563.488281 52.390625 C 562.8125 51.378906 562.160156 50.3125 561.433594 49.167969 C 561.773438 48.933594 562.214844 48.726562 562.65625 48.492188 C 563.332031 49.609375 564.058594 50.675781 564.734375 51.714844 C 576.902344 46.175781 589.121094 41.054688 601.363281 36.632812 C 600.636719 35.566406 599.855469 34.550781 598.972656 33.40625 C 599.3125 33.25 599.753906 33.171875 600.195312 33.015625 C 601.027344 34.136719 601.859375 35.203125 602.585938 36.242188 C 614.753906 32.445312 626.972656 29.972656 639.265625 28.074219 C 638.4375 27.007812 637.472656 25.996094 636.589844 24.902344 C 636.980469 24.851562 637.316406 24.851562 637.757812 24.851562 C 638.722656 25.863281 639.605469 26.929688 640.488281 28.023438 C 652.707031 28.308594 664.898438 29.6875 677.171875 33.5625 C 676.234375 32.601562 675.167969 31.613281 674.15625 30.546875 C 674.542969 30.648438 674.988281 30.78125 675.429688 30.988281 C 676.441406 32.054688 677.429688 33.042969 678.339844 34.003906 C 679.300781 34.238281 680.289062 34.449219 681.304688 34.785156 C 681.796875 35.226562 682.238281 35.667969 682.628906 36.058594 C 681.617188 35.773438 680.628906 35.515625 679.71875 35.226562 C 691.441406 47.398438 700.773438 59.570312 708.289062 71.742188 C 709.25 71.976562 710.289062 72.234375 711.40625 72.417969 C 711.589844 72.808594 711.902344 73.25 712.136719 73.640625 C 711.019531 73.40625 710.003906 73.25 708.964844 72.964844 C 715.4375 85.238281 720.921875 97.386719 725.367188 109.554688 C 726.304688 109.710938 727.421875 109.84375 728.539062 110 C 728.695312 110.441406 728.824219 110.832031 728.980469 111.222656 C 727.863281 111.066406 726.796875 110.988281 725.808594 110.777344 C 729.710938 123.003906 732.621094 135.199219 735.144531 147.371094 C 736.078125 147.421875 737.195312 147.527344 738.3125 147.554688 C 738.367188 148.046875 738.46875 148.488281 738.496094 148.777344 C 737.429688 148.671875 736.3125 148.671875 735.324219 148.542969 C 737.117188 160.816406 738.339844 172.9375 739.066406 185.082031 C 740.132812 185.132812 741.148438 185.132812 742.238281 185.132812 C 742.238281 185.628906 742.34375 186.070312 742.34375 186.460938 C 741.226562 186.355469 740.210938 186.355469 739.171875 186.355469 C 739.015625 198.527344 738.625 210.699219 737.328125 222.894531 C 738.289062 222.894531 739.328125 222.792969 740.445312 222.792969 C 740.445312 223.183594 740.34375 223.625 740.289062 224.015625 C 739.171875 224.015625 738.15625 224.066406 737.171875 224.066406 C 735.558594 236.34375 732.882812 248.488281 729.578125 260.660156 C 730.542969 260.605469 731.582031 260.476562 732.59375 260.371094 C 732.4375 260.816406 732.308594 261.207031 732.257812 261.59375 C 731.242188 261.648438 730.203125 261.777344 729.242188 261.882812 C 724.953125 274.15625 719.464844 286.222656 712.757812 298.394531 C 713.722656 298.34375 714.710938 298.109375 715.722656 297.953125 C 715.4375 298.394531 715.152344 298.890625 714.890625 299.175781 C 713.878906 299.410156 712.890625 299.566406 711.980469 299.722656 C 703.503906 311.789062 692.039062 323.960938 676.261719 336.082031 C 677.144531 335.925781 678.054688 335.691406 679.09375 335.507812 C 678.46875 335.949219 677.925781 336.339844 677.429688 336.679688 C 676.417969 336.914062 675.429688 337.222656 674.570312 337.355469 C 656.761719 349.527344 642.464844 361.75 630.585938 373.894531 C 631.46875 373.660156 632.429688 373.347656 633.445312 373.0625 C 633.105469 373.503906 632.820312 373.945312 632.558594 374.234375 C 631.546875 374.570312 630.558594 374.910156 629.699219 375.066406 C 621.097656 387.339844 615.402344 399.484375 611.164062 411.65625 C 612.101562 411.371094 613.011719 411.035156 614.023438 410.644531 C 613.972656 411.085938 613.867188 411.527344 613.84375 411.917969 C 612.828125 412.203125 611.839844 412.699219 610.984375 412.878906 C 608.929688 425.15625 608.929688 437.300781 609.710938 449.421875 C 610.59375 449.082031 611.554688 448.640625 612.570312 448.25 C 612.671875 448.640625 612.804688 449.082031 612.855469 449.472656 C 611.839844 449.914062 610.851562 450.304688 609.996094 450.695312 C 612.28125 462.867188 615.585938 475.039062 619.589844 487.207031 C 620.523438 486.871094 621.484375 486.324219 622.5 485.882812 C 622.65625 486.324219 622.785156 486.714844 622.941406 487.050781 C 621.929688 487.597656 620.941406 488.015625 620.03125 488.40625 C 624.941406 500.679688 630.246094 512.824219 635.730469 524.996094 C 636.617188 524.554688 637.628906 524.035156 638.644531 523.4375 C 638.878906 523.878906 639.136719 524.320312 639.265625 524.605469 C 638.203125 525.230469 637.1875 525.777344 636.304688 526.21875 C 642.152344 538.441406 647.691406 550.640625 653.382812 562.734375 C 654.320312 562.292969 655.332031 561.71875 656.398438 561.070312 C 656.554688 561.460938 656.738281 561.902344 656.972656 562.292969 C 655.957031 562.863281 654.890625 563.515625 653.957031 564.035156 C 659.101562 576.207031 663.886719 588.378906 668.070312 600.546875 C 669.007812 600.003906 670.074219 599.324219 671.085938 598.648438 C 671.242188 599.039062 671.375 599.480469 671.527344 599.871094 C 670.515625 600.546875 669.476562 601.222656 668.511719 601.769531 C 671.582031 613.996094 673.972656 626.191406 675.039062 638.363281 C 676 637.738281 676.988281 637.011719 678.003906 636.230469 C 678.003906 636.722656 678.054688 637.0625 678.054688 637.453125 C 677.039062 638.234375 676.105469 638.960938 675.195312 639.535156 C 675.296875 640.496094 675.351562 641.433594 675.429688 642.367188 C 674.988281 642.550781 674.542969 642.992188 674.15625 643.253906 C 674.101562 642.367188 674 641.457031 673.972656 640.46875 C 661.753906 649.183594 649.640625 657.503906 637.472656 665.644531 C 637.578125 666.710938 637.707031 667.699219 637.757812 668.558594 C 637.316406 668.894531 636.980469 669.105469 636.589844 669.335938 C 636.433594 668.402344 636.40625 667.4375 636.25 666.425781 C 624.035156 674.199219 611.917969 681.613281 599.753906 688.714844 C 599.910156 689.78125 600.039062 690.769531 600.195312 691.730469 C 599.753906 691.964844 599.3125 692.277344 598.972656 692.457031 C 598.816406 691.496094 598.6875 690.507812 598.53125 689.492188 C 586.3125 696.253906 574.144531 702.78125 562.03125 708.867188 C 562.265625 709.933594 562.421875 710.921875 562.605469 711.886719 C 562.160156 712.121094 561.71875 712.328125 561.382812 712.5625 C 561.226562 711.601562 560.992188 710.613281 560.835938 709.546875 C 548.617188 715.476562 536.503906 720.832031 524.3125 726.136719 C 524.597656 727.203125 524.753906 728.191406 524.988281 729.15625 C 524.542969 729.3125 524.15625 729.441406 523.816406 729.597656 C 523.582031 728.632812 523.324219 727.644531 523.140625 726.632812 C 510.921875 731.105469 498.808594 735.5 486.695312 739.089844 C 486.875 740.050781 487.136719 741.039062 487.421875 742.003906 C 486.980469 742.160156 486.484375 742.289062 486.148438 742.390625 C 485.914062 741.429688 485.707031 740.441406 485.421875 739.480469 C 473.203125 742.703125 461.085938 745.175781 448.921875 746.96875 C 449.207031 748.035156 449.542969 749.023438 449.855469 749.882812 C 449.414062 749.882812 448.921875 749.988281 448.582031 749.988281 C 448.296875 749.050781 448.011719 748.085938 447.699219 747.074219 C 435.480469 748.242188 423.367188 747.699219 411.199219 746.292969 C 411.589844 747.359375 411.875 748.242188 412.160156 749.152344 C 411.71875 749.050781 411.328125 749 410.992188 748.921875 C 410.601562 748.035156 410.316406 747.125 410.03125 746.058594 C 397.914062 743.09375 385.699219 737.191406 373.582031 727.621094 C 373.921875 728.582031 374.3125 729.570312 374.648438 730.53125 C 374.207031 730.089844 373.765625 729.699219 373.425781 729.414062 C 373.035156 728.453125 372.75 727.464844 372.414062 726.398438 C 360.195312 709.179688 348.082031 688.582031 335.914062 672.5625 C 336.304688 673.628906 336.640625 674.617188 337.03125 675.527344 C 336.640625 675.035156 336.199219 674.511719 335.863281 674.070312 C 335.421875 673.1875 335.03125 672.222656 334.691406 671.160156 C 322.472656 658.882812 310.308594 649.363281 298.191406 642.964844 C 298.636719 643.929688 299.023438 644.917969 299.464844 645.828125 C 299.023438 645.59375 298.636719 645.332031 298.296875 645.203125 C 297.855469 644.320312 297.414062 643.355469 296.945312 642.367188 C 284.777344 638.078125 272.613281 635.113281 260.496094 633.941406 C 261.042969 634.902344 261.382812 635.890625 261.902344 636.777344 C 261.460938 636.777344 261.019531 636.726562 260.628906 636.726562 C 260.1875 635.789062 259.742188 634.824219 259.222656 633.863281 C 247.058594 634.097656 234.890625 634.824219 222.777344 636.4375 C 223.324219 637.453125 223.738281 638.441406 224.234375 639.351562 C 223.894531 639.402344 223.453125 639.507812 223.0625 639.535156 C 222.515625 638.648438 222.101562 637.6875 221.605469 636.621094 C 209.390625 638.804688 197.273438 641.199219 185.109375 643.824219 C 185.652344 644.890625 186.175781 645.878906 186.667969 646.789062 C 186.226562 646.839844 185.886719 646.945312 185.496094 646.972656 C 184.925781 646.085938 184.378906 645.125 183.886719 644.058594 C 171.667969 646.632812 159.554688 649.027344 147.386719 650.714844 C 147.960938 651.78125 148.503906 652.769531 149.101562 653.679688 C 148.660156 653.734375 148.21875 653.835938 147.828125 653.863281 C 147.257812 652.980469 146.761719 652.015625 146.164062 650.949219 C 133.945312 652.070312 121.832031 652.691406 109.667969 651.625 C 110.238281 652.691406 110.835938 653.679688 111.460938 654.539062 C 111.070312 654.488281 110.628906 654.488281 110.238281 654.382812 C 109.613281 653.5 109.066406 652.535156 108.445312 651.472656 C 96.226562 649.234375 84.058594 645.59375 71.945312 639.457031 C 72.621094 640.417969 73.21875 641.300781 73.84375 642.238281 C 73.402344 642.003906 73.0625 641.796875 72.671875 641.664062 C 72.050781 640.730469 71.453125 639.871094 70.773438 638.832031 C 69.761719 638.335938 68.878906 637.867188 67.992188 637.425781 C 67.8125 637.0625 67.578125 636.722656 67.1875 636.230469 Z M 678.339844 34.8125 C 666.070312 30.960938 653.773438 29.609375 641.554688 29.324219 C 652.058594 42.171875 660.664062 54.914062 667.578125 67.761719 C 680.628906 67.582031 693.703125 68.386719 706.832031 71.402344 C 699.34375 59.179688 690.117188 47.007812 678.339844 34.8125 Z M 707.585938 72.679688 C 694.457031 69.558594 681.355469 68.828125 668.28125 69.089844 C 674.3125 81.9375 679.511719 94.785156 683.695312 107.527344 C 697.082031 106.851562 710.445312 106.980469 723.835938 109.269531 C 719.492188 97.097656 714.007812 84.875 707.585938 72.679688 Z M 724.277344 110.542969 C 710.886719 108.308594 697.527344 108.152344 684.136719 108.828125 C 688.035156 121.726562 690.898438 134.523438 693.46875 147.371094 C 706.859375 146.042969 720.21875 145.628906 733.609375 147.136719 C 731.113281 134.964844 728.253906 122.792969 724.277344 110.542969 Z M 733.84375 148.359375 C 720.453125 146.902344 707.09375 147.398438 693.703125 148.644531 C 695.601562 161.492188 697.003906 174.238281 697.941406 187.136719 C 711.175781 185.289062 724.355469 184.277344 737.636719 185.003906 C 736.910156 172.832031 735.609375 160.582031 733.84375 148.359375 Z M 737.742188 186.226562 C 724.511719 185.550781 711.277344 186.617188 698.046875 188.410156 C 698.203125 201.257812 698.046875 214.105469 697.03125 226.847656 C 709.976562 224.5625 722.871094 222.949219 735.898438 222.894531 C 737.195312 210.648438 737.585938 198.476562 737.742188 186.226562 Z M 735.742188 224.09375 C 722.792969 224.195312 709.847656 225.835938 696.929688 228.175781 C 695.601562 241.074219 693.339844 253.871094 690.402344 266.71875 C 702.957031 263.859375 715.59375 261.59375 728.253906 260.683594 C 731.476562 248.511719 734.179688 236.34375 735.742188 224.09375 Z M 727.863281 262.011719 C 715.203125 262.894531 702.671875 265.132812 690.011719 267.992188 C 686.113281 280.839844 680.964844 293.636719 674.648438 306.484375 C 686.945312 303.078125 699.113281 300.214844 711.433594 298.605469 C 718.089844 286.378906 723.625 274.207031 727.863281 262.011719 Z M 710.679688 299.773438 C 698.332031 301.515625 686.113281 304.351562 673.894531 307.757812 C 665.679688 320.5 654.421875 333.347656 638.511719 346.066406 C 650.574219 342.269531 662.742188 338.8125 674.855469 336.339844 C 690.6875 324.195312 702.128906 312.023438 710.679688 299.773438 Z M 673.191406 337.589844 C 661.078125 339.980469 648.964844 343.441406 636.796875 347.417969 C 618.9375 360.265625 604.589844 373.0625 593.019531 385.910156 C 605.082031 381.488281 617.09375 377.378906 629.257812 374.179688 C 641.0625 362.007812 655.464844 349.863281 673.191406 337.589844 Z M 628.324219 375.402344 C 616.207031 378.707031 604.144531 382.761719 592.136719 387.183594 C 583.660156 400.03125 578.019531 412.878906 573.886719 425.675781 C 585.84375 420.707031 597.828125 416.027344 609.890625 412.046875 C 614.078125 399.875 619.769531 387.625 628.324219 375.402344 Z M 609.683594 413.269531 C 597.621094 417.300781 585.664062 421.980469 573.625 426.949219 C 571.546875 439.796875 571.441406 452.644531 572.171875 465.441406 C 584.234375 459.953125 596.296875 454.671875 608.359375 449.914062 C 607.550781 437.742188 607.605469 425.546875 609.683594 413.269531 Z M 608.667969 451.136719 C 596.605469 455.949219 584.542969 461.203125 572.480469 466.765625 C 574.613281 479.613281 577.785156 492.410156 581.632812 505.257812 C 593.800781 499.222656 606.019531 493.371094 618.261719 487.832031 C 614.3125 475.582031 610.90625 463.410156 608.667969 451.136719 Z M 618.730469 489.003906 C 606.433594 494.59375 594.164062 500.550781 581.945312 506.53125 C 586.703125 519.378906 591.824219 532.226562 597.074219 545.023438 C 609.527344 538.441406 621.875 532.019531 634.355469 525.59375 C 628.867188 513.449219 623.566406 501.277344 618.730469 489.003906 Z M 634.953125 526.921875 C 622.5 533.292969 610.152344 539.769531 597.671875 546.296875 C 603.367188 559.144531 608.851562 571.992188 614.464844 584.789062 C 626.972656 577.738281 639.476562 570.613281 652.03125 563.515625 C 646.363281 551.34375 640.671875 539.144531 634.953125 526.921875 Z M 652.605469 564.683594 C 640.046875 571.941406 627.542969 578.988281 615.039062 586.0625 C 620.109375 599.015625 624.96875 611.757812 629.234375 624.605469 C 641.683594 616.960938 654.191406 609.261719 666.695312 601.378906 C 662.535156 589.210938 657.75 576.960938 652.605469 564.683594 Z M 667.160156 602.601562 C 654.65625 610.535156 642.203125 618.234375 629.753906 625.878906 C 633.003906 638.726562 635.730469 651.574219 637.238281 664.371094 C 649.40625 656.230469 661.574219 647.960938 673.765625 639.246094 C 672.59375 627.050781 670.253906 614.828125 667.160156 602.601562 Z M 640.332031 29.351562 C 628.035156 31.25 615.765625 33.769531 603.546875 37.566406 C 612.882812 50.703125 620.628906 63.863281 626.996094 76.941406 C 640.046875 72.964844 653.125 70.179688 666.25 67.894531 C 659.363281 55.046875 650.863281 42.199219 640.332031 29.351562 Z M 666.953125 69.21875 C 653.773438 71.457031 640.671875 74.34375 627.59375 78.320312 C 633.183594 91.457031 638.203125 104.511719 642.230469 117.695312 C 655.621094 113.457031 668.980469 110.386719 682.371094 107.65625 C 678.183594 94.914062 672.984375 82.066406 666.953125 69.21875 Z M 682.8125 109.035156 C 669.371094 111.664062 656.0625 114.785156 642.671875 118.972656 C 646.417969 132.207031 649.378906 145.265625 651.929688 158.347656 C 665.316406 154.003906 678.679688 150.570312 692.171875 147.554688 C 689.570312 134.730469 686.710938 121.882812 682.8125 109.035156 Z M 692.351562 148.800781 C 678.914062 151.871094 665.550781 155.277344 652.265625 159.699219 C 654.214844 172.832031 655.851562 185.992188 656.945312 199.074219 C 670.175781 194.496094 683.410156 190.75 696.640625 187.34375 C 695.652344 174.601562 694.300781 161.726562 692.351562 148.800781 Z M 696.71875 188.59375 C 683.488281 192 670.253906 195.746094 657.074219 200.425781 C 657.464844 213.558594 657.515625 226.667969 656.894531 239.800781 C 669.839844 234.988281 682.785156 230.933594 695.757812 227.1875 C 696.71875 214.339844 696.875 201.542969 696.71875 188.59375 Z M 695.601562 228.460938 C 682.65625 232.207031 669.710938 236.238281 656.789062 241.074219 C 655.851562 254.210938 653.773438 267.394531 651.304688 280.449219 C 663.859375 275.429688 676.46875 271.164062 689.15625 267.003906 C 692.015625 254.15625 694.355469 241.363281 695.601562 228.460938 Z M 688.738281 268.277344 C 676.128906 272.414062 663.546875 276.808594 650.992188 281.804688 C 647.40625 294.9375 642.621094 308.042969 636.640625 321.179688 C 648.9375 315.925781 661.105469 311.242188 673.425781 306.820312 C 679.742188 293.972656 684.867188 281.230469 688.738281 268.277344 Z M 672.699219 308.148438 C 660.402344 312.621094 648.183594 317.304688 636.019531 322.503906 C 627.984375 335.636719 616.9375 348.695312 600.949219 361.773438 C 613.0625 356.289062 625.230469 351.371094 637.34375 346.535156 C 653.175781 333.738281 664.433594 320.996094 672.699219 308.148438 Z M 635.628906 347.808594 C 623.410156 352.671875 611.296875 357.640625 599.234375 363.050781 C 581.191406 376.289062 566.972656 389.367188 555.507812 402.476562 C 567.570312 396.832031 579.632812 391.578125 591.746094 386.378906 C 603.417969 373.503906 617.664062 360.761719 635.628906 347.808594 Z M 590.914062 387.625 C 578.800781 392.828125 566.683594 398.183594 554.621094 403.777344 C 546.304688 416.960938 540.765625 430.097656 536.660156 443.152344 C 548.667969 437.300781 560.652344 431.761719 572.613281 426.222656 C 576.796875 413.320312 582.386719 400.472656 590.914062 387.625 Z M 572.429688 427.496094 C 560.421875 433.035156 548.4375 438.601562 536.476562 444.480469 C 534.34375 457.714844 534.1875 470.773438 534.761719 483.90625 C 546.824219 477.820312 558.886719 471.96875 571 466.039062 C 570.273438 453.191406 570.324219 440.34375 572.429688 427.496094 Z M 571.261719 467.285156 C 559.199219 473.214844 547.136719 479.121094 535.074219 485.207031 C 537.074219 498.339844 540.089844 511.5 543.679688 524.582031 C 555.898438 518.339844 568.089844 512.070312 580.359375 505.804688 C 576.617188 493.007812 573.339844 480.132812 571.261719 467.285156 Z M 580.800781 507.15625 C 568.53125 513.425781 556.234375 519.613281 544.066406 525.933594 C 548.589844 539.066406 553.503906 552.175781 558.652344 565.308594 C 571.105469 558.730469 583.425781 552.304688 595.878906 545.59375 C 590.574219 532.851562 585.507812 520.003906 580.800781 507.15625 Z M 596.449219 546.871094 C 584 553.578125 571.597656 560.105469 559.222656 566.582031 C 564.683594 579.820312 570.117188 592.875 575.574219 605.957031 C 588.082031 599.300781 600.636719 592.511719 613.191406 585.464844 C 607.605469 572.667969 602.09375 559.820312 596.449219 546.871094 Z M 613.789062 586.738281 C 601.128906 593.785156 588.679688 600.652344 576.175781 607.335938 C 581.320312 620.46875 586.15625 633.628906 590.472656 646.710938 C 602.976562 639.792969 615.480469 632.746094 627.984375 625.308594 C 623.695312 612.433594 618.886719 599.636719 613.789062 586.738281 Z M 628.53125 626.554688 C 615.921875 633.992188 603.417969 641.144531 591.019531 648.0625 C 594.527344 661.199219 597.492188 674.304688 599.542969 687.4375 C 611.710938 680.285156 623.824219 672.847656 636.042969 665.097656 C 634.457031 652.25 631.726562 639.507812 628.53125 626.554688 Z M 602.351562 37.90625 C 590.003906 42.328125 577.785156 47.449219 565.515625 53.09375 C 573.730469 66.332031 580.644531 79.570312 586.441406 92.703125 C 599.492188 87.164062 612.570312 81.9375 625.699219 77.359375 C 619.378906 64.25 611.683594 51.171875 602.351562 37.90625 Z M 626.296875 78.660156 C 613.21875 83.238281 600.117188 88.4375 587.039062 94.082031 C 592.1875 107.320312 596.917969 120.503906 600.820312 133.742188 C 614.207031 128.101562 627.570312 122.792969 640.957031 118.035156 C 636.902344 104.980469 631.882812 91.84375 626.296875 78.660156 Z M 641.375 119.386719 C 627.90625 124.148438 614.519531 129.425781 601.234375 135.015625 C 604.925781 148.359375 607.863281 161.597656 610.488281 174.730469 C 623.878906 169.085938 637.1875 163.675781 650.628906 158.761719 C 648.027344 145.734375 645.117188 132.546875 641.375 119.386719 Z M 650.863281 160.140625 C 637.472656 165.054688 624.113281 170.464844 610.722656 176.109375 C 612.855469 189.292969 614.621094 202.53125 615.921875 215.769531 C 629.15625 210.074219 642.386719 204.585938 655.621094 199.515625 C 654.449219 186.460938 652.890625 173.273438 650.863281 160.140625 Z M 655.773438 200.867188 C 642.492188 205.941406 629.3125 211.375 616.078125 217.019531 C 616.753906 230.308594 617.09375 243.492188 616.652344 256.679688 C 629.597656 250.984375 642.542969 245.445312 655.566406 240.21875 C 656.296875 227.214844 656.164062 214 655.773438 200.867188 Z M 655.464844 241.621094 C 642.464844 246.824219 629.570312 252.386719 616.652344 258.085938 C 616.027344 271.320312 614.3125 284.558594 612.128906 297.796875 C 624.734375 291.996094 637.316406 286.355469 649.976562 280.996094 C 652.550781 267.941406 654.5 254.753906 655.464844 241.621094 Z M 649.691406 282.347656 C 637.03125 287.601562 624.449219 293.296875 611.894531 299.046875 C 608.667969 312.335938 604.25 325.46875 598.660156 338.707031 C 610.929688 332.90625 623.125 327.210938 635.496094 321.722656 C 641.375 308.617188 646.128906 295.484375 649.691406 282.347656 Z M 634.742188 323.078125 C 622.472656 328.484375 610.175781 334.257812 597.960938 340.058594 C 590.316406 353.191406 579.476562 366.429688 563.359375 379.589844 C 575.472656 373.738281 587.585938 367.964844 599.753906 362.320312 C 615.765625 349.316406 626.816406 336.183594 634.742188 323.078125 Z M 597.960938 363.675781 C 585.792969 369.214844 573.730469 375.066406 561.617188 380.863281 C 543.367188 394.207031 529.25 407.339844 518.019531 420.578125 C 530.03125 414.699219 542.09375 408.847656 554.257812 403.050781 C 565.722656 389.96875 579.917969 376.808594 597.960938 363.675781 Z M 553.453125 404.402344 C 541.339844 410.097656 529.277344 416.027344 517.214844 421.878906 C 509 435.117188 503.488281 448.355469 499.511719 461.589844 C 511.46875 455.660156 523.453125 449.628906 535.464844 443.777344 C 539.542969 430.695312 545.082031 417.5625 553.453125 404.402344 Z M 535.203125 445.15625 C 523.246094 451.007812 511.261719 457.039062 499.25 462.867188 C 497.066406 476.15625 496.859375 489.339844 497.351562 502.527344 C 509.414062 496.597656 521.476562 490.511719 533.589844 484.53125 C 532.914062 471.421875 533.175781 458.289062 535.203125 445.15625 Z M 533.800781 485.882812 C 521.683594 491.863281 509.726562 497.949219 497.664062 503.878906 C 499.511719 517.117188 502.394531 530.355469 505.75 543.488281 C 517.96875 537.558594 530.160156 531.367188 542.429688 525.230469 C 538.816406 512.070312 535.800781 499.042969 533.800781 485.882812 Z M 542.792969 526.53125 C 530.523438 532.773438 518.332031 538.9375 506.113281 544.894531 C 510.53125 558.183594 515.160156 571.316406 520.230469 584.554688 C 532.578125 578.574219 545.003906 572.277344 557.40625 566.011719 C 552.28125 552.824219 547.316406 539.769531 542.792969 526.53125 Z M 558.027344 567.257812 C 545.523438 573.578125 533.175781 579.871094 520.75 585.90625 C 526 599.144531 531.304688 612.328125 536.761719 625.515625 C 549.265625 619.480469 561.773438 613.160156 574.328125 606.738281 C 568.867188 593.550781 563.4375 580.496094 558.027344 567.257812 Z M 574.898438 608.011719 C 562.34375 614.488281 549.839844 620.859375 537.28125 626.839844 C 542.40625 640.183594 547.265625 653.316406 551.839844 666.554688 C 564.242188 660.46875 576.746094 654.046875 589.25 647.464844 C 584.933594 634.28125 579.96875 621.25 574.898438 608.011719 Z M 589.742188 648.738281 C 577.1875 655.371094 564.789062 661.796875 552.28125 667.828125 C 556.027344 681.117188 559.328125 694.355469 561.773438 707.492188 C 573.886719 701.40625 586.105469 694.875 598.296875 688.167969 C 596.21875 675.035156 593.304688 661.976562 589.742188 648.738281 Z M 564.242188 53.796875 C 551.972656 59.832031 539.675781 66.304688 527.507812 72.964844 C 534.476562 86.203125 540.558594 99.335938 545.863281 112.496094 C 558.914062 105.863281 571.988281 99.414062 585.117188 93.40625 C 579.34375 80.273438 572.429688 67.035156 564.242188 53.796875 Z M 585.714844 94.757812 C 572.585938 100.738281 559.484375 107.214844 546.40625 113.847656 C 551.164062 126.980469 555.609375 140.140625 559.355469 153.328125 C 572.742188 146.851562 586.027344 140.480469 599.492188 134.445312 C 595.59375 121.207031 590.863281 107.996094 585.714844 94.757812 Z M 599.804688 135.695312 C 586.417969 141.726562 573.054688 148.097656 559.667969 154.628906 C 563.253906 167.863281 566.242188 181 568.945312 194.183594 C 582.335938 187.707031 595.695312 181.386719 609.085938 175.40625 C 606.433594 162.222656 603.574219 149.035156 599.804688 135.695312 Z M 609.398438 176.734375 C 595.929688 182.765625 582.542969 189.085938 569.257812 195.484375 C 571.441406 208.722656 573.339844 221.855469 574.898438 235.015625 C 588.132812 228.644531 601.363281 222.402344 614.597656 216.472656 C 613.296875 203.207031 611.503906 189.972656 609.398438 176.734375 Z M 614.753906 217.722656 C 601.519531 223.753906 588.289062 229.996094 575.054688 236.265625 C 575.941406 249.5 576.617188 262.636719 576.511719 275.820312 C 589.457031 269.554688 602.40625 263.414062 615.429688 257.382812 C 615.765625 244.195312 615.429688 231.011719 614.753906 217.722656 Z M 615.324219 258.734375 C 602.328125 264.664062 589.433594 270.855469 576.511719 277.121094 C 576.171875 290.359375 574.847656 303.441406 573.003906 316.601562 C 585.664062 310.464844 598.191406 304.324219 610.851562 298.394531 C 613.035156 285.210938 614.648438 271.972656 615.324219 258.734375 Z M 610.621094 299.722656 C 597.960938 305.703125 585.375 311.789062 572.769531 317.980469 C 569.910156 331.214844 565.957031 344.351562 560.652344 357.511719 C 572.925781 351.425781 585.117188 345.441406 597.492188 339.410156 C 603.082031 326.144531 607.394531 313.011719 610.621094 299.722656 Z M 596.789062 340.761719 C 584.441406 346.691406 572.273438 352.699219 560.054688 358.757812 C 552.621094 371.945312 541.960938 385.078125 525.792969 398.183594 C 537.90625 392.152344 549.96875 386.222656 562.1875 380.265625 C 578.304688 367.132812 589.121094 353.894531 596.789062 340.761719 Z M 560.367188 381.539062 C 548.253906 387.574219 536.085938 393.503906 524.078125 399.511719 C 505.59375 412.75 491.632812 425.882812 480.53125 438.992188 C 492.59375 433.140625 504.65625 427.261719 516.773438 421.28125 C 528.105469 408.015625 542.117188 394.882812 560.367188 381.539062 Z M 515.941406 422.582031 C 503.824219 428.511719 491.761719 434.414062 479.699219 440.34375 C 471.617188 453.582031 466.183594 466.714844 462.230469 479.875 C 474.191406 474.023438 486.175781 468.25 498.234375 462.292969 C 502.265625 449.054688 507.726562 435.816406 515.941406 422.582031 Z M 498.027344 463.542969 C 485.964844 469.523438 474.007812 475.324219 461.972656 481.121094 C 459.890625 494.359375 459.578125 507.496094 460.019531 520.679688 C 471.980469 514.878906 484.042969 509.132812 496.15625 503.203125 C 495.664062 490.015625 495.898438 476.832031 498.027344 463.542969 Z M 496.390625 504.582031 C 484.277344 510.511719 472.316406 516.207031 460.253906 522.007812 C 461.972656 535.191406 464.597656 548.324219 467.847656 561.484375 C 480.066406 555.84375 492.308594 550.199219 504.527344 544.214844 C 501.097656 531.058594 498.234375 517.820312 496.390625 504.582031 Z M 504.839844 545.570312 C 492.570312 551.5 480.375 557.117188 468.160156 562.835938 C 472.34375 576.074219 476.867188 589.210938 481.675781 602.367188 C 494.128906 596.726562 506.453125 591.1875 518.957031 585.230469 C 513.988281 571.992188 509.285156 558.859375 504.839844 545.570312 Z M 519.5 586.582031 C 507.101562 592.511719 494.648438 598.078125 482.222656 603.617188 C 487.371094 616.855469 492.59375 629.988281 497.898438 643.175781 C 510.402344 637.6875 522.960938 632.121094 535.515625 626.191406 C 530.054688 613.03125 524.804688 599.820312 519.5 586.582031 Z M 536.035156 627.519531 C 523.425781 633.449219 510.972656 638.960938 498.46875 644.449219 C 503.539062 657.6875 508.453125 670.820312 513.054688 683.980469 C 525.507812 678.570312 538.011719 673.1875 550.464844 667.230469 C 546.019531 653.992188 541.183594 640.859375 536.035156 627.519531 Z M 551.007812 668.503906 C 538.453125 674.488281 526 679.949219 513.496094 685.359375 C 517.472656 698.597656 521.085938 711.730469 524.050781 724.785156 C 536.164062 719.480469 548.28125 714.121094 560.550781 708.191406 C 558.082031 695.03125 554.753906 681.796875 551.007812 668.503906 Z M 526.261719 73.535156 C 513.988281 80.585938 501.695312 87.605469 489.476562 94.523438 C 495.324219 107.605469 500.628906 120.609375 505.28125 133.5625 C 518.332031 126.800781 531.40625 120.039062 544.535156 113.121094 C 539.335938 99.933594 533.203125 86.773438 526.261719 73.535156 Z M 545.082031 114.394531 C 531.902344 121.3125 518.800781 128.125 505.722656 134.886719 C 510.144531 147.890625 514.277344 160.921875 517.890625 173.820312 C 531.277344 167.292969 544.5625 160.6875 558.027344 153.925781 C 554.285156 140.765625 549.839844 127.632812 545.082031 114.394531 Z M 558.367188 155.277344 C 544.976562 161.933594 531.617188 168.671875 518.226562 175.171875 C 521.789062 188.175781 524.699219 201.152344 527.507812 214.105469 C 540.792969 207.785156 554.179688 201.308594 567.648438 194.679688 C 564.945312 181.542969 561.953125 168.410156 558.367188 155.277344 Z M 567.855469 196.058594 C 554.464844 202.636719 541.105469 209.058594 527.714844 215.484375 C 530.160156 228.488281 532.1875 241.464844 533.902344 254.417969 C 547.136719 248.28125 560.367188 242.011719 573.601562 235.535156 C 572.039062 222.375 570.144531 209.292969 567.855469 196.058594 Z M 573.730469 236.886719 C 560.496094 243.261719 547.265625 249.578125 534.136719 255.71875 C 535.203125 268.722656 536.085938 281.75 536.320312 294.652344 C 549.265625 288.796875 562.214844 282.636719 575.1875 276.289062 C 575.289062 263.257812 574.71875 250.125 573.730469 236.886719 Z M 575.210938 277.667969 C 562.214844 283.910156 549.292969 290.074219 536.398438 296.027344 C 536.347656 309.03125 535.386719 322.011719 533.929688 334.960938 C 546.484375 329.316406 559.121094 323.335938 571.78125 317.199219 C 573.601562 304.066406 574.847656 290.90625 575.210938 277.667969 Z M 571.546875 318.5 C 558.886719 324.585938 546.304688 330.566406 533.644531 336.3125 C 531.175781 349.316406 527.558594 362.296875 522.648438 375.300781 C 534.917969 369.8125 547.109375 363.960938 559.484375 358.03125 C 564.683594 344.898438 568.6875 331.738281 571.546875 318.5 Z M 558.808594 359.304688 C 546.539062 365.234375 534.34375 371.136719 522.128906 376.574219 C 515.03125 389.523438 504.527344 402.503906 488.253906 415.453125 C 500.367188 410.199219 512.429688 404.453125 524.648438 398.652344 C 540.792969 385.625 551.449219 372.4375 558.808594 359.304688 Z M 522.804688 400.03125 C 510.585938 405.832031 498.523438 411.476562 486.40625 416.730469 C 467.820312 429.808594 454.015625 442.710938 443.070312 455.714844 C 455.082031 450.695312 467.25 445.15625 479.363281 439.511719 C 490.410156 426.378906 504.371094 413.269531 522.804688 400.03125 Z M 478.480469 440.863281 C 466.363281 446.457031 454.300781 451.96875 442.238281 457.015625 C 434.3125 470.070312 429.007812 482.996094 425.03125 496 C 437.039062 491.1875 449.023438 485.777344 461.085938 480.367188 C 465.011719 467.261719 470.394531 454.050781 478.480469 440.863281 Z M 460.828125 481.644531 C 448.765625 487.128906 436.804688 492.4375 424.820312 497.273438 C 422.636719 510.355469 422.25 523.308594 422.636719 536.308594 C 434.648438 531.628906 446.660156 526.425781 458.773438 521.175781 C 458.332031 508.039062 458.667969 494.90625 460.828125 481.644531 Z M 458.980469 522.5 C 446.867188 527.804688 434.804688 533.007812 422.847656 537.585938 C 424.40625 550.667969 426.875 563.566406 429.996094 576.570312 C 442.160156 572.148438 454.378906 567.128906 466.675781 562.003906 C 463.402344 548.871094 460.671875 535.6875 458.980469 522.5 Z M 466.960938 563.28125 C 454.667969 568.480469 442.449219 573.5 430.28125 577.871094 C 434.3125 590.925781 438.546875 603.851562 443.28125 616.855469 C 455.679688 612.667969 468.054688 607.855469 480.507812 602.785156 C 475.621094 589.652344 471.121094 576.519531 466.960938 563.28125 Z M 480.972656 604.164062 C 468.574219 609.132812 456.175781 613.996094 443.800781 618.128906 C 448.765625 631.210938 453.859375 644.214844 459.085938 657.167969 C 471.589844 653.1875 484.09375 648.507812 496.652344 643.640625 C 491.320312 630.484375 486.121094 617.296875 480.972656 604.164062 Z M 497.222656 644.996094 C 484.667969 649.753906 472.058594 654.539062 459.605469 658.441406 C 464.675781 671.523438 469.667969 684.527344 474.34375 697.425781 C 486.796875 693.679688 499.25 689.207031 511.753906 684.421875 C 507.230469 671.289062 502.265625 658.179688 497.222656 644.996094 Z M 512.300781 685.773438 C 499.796875 690.457031 487.292969 694.929688 474.789062 698.777344 C 479.078125 711.78125 482.949219 724.757812 486.277344 737.710938 C 498.496094 734.148438 510.609375 729.832031 522.804688 725.253906 C 519.839844 712.171875 516.226562 699.011719 512.300781 685.773438 Z M 488.253906 95.304688 C 475.90625 102.222656 463.6875 108.878906 451.417969 114.964844 C 456.042969 127.761719 460.515625 140.53125 464.699219 153.222656 C 477.75 147.371094 490.828125 140.945312 503.957031 134.289062 C 499.25 121.285156 494 108.335938 488.253906 95.304688 Z M 504.5 135.5625 C 491.320312 142.273438 478.21875 148.644531 465.144531 154.496094 C 469.042969 167.292969 472.914062 180.011719 476.425781 192.753906 C 489.761719 187.164062 503.097656 180.972656 516.511719 174.601562 C 512.925781 161.597656 508.738281 148.644531 504.5 135.5625 Z M 516.929688 175.847656 C 503.488281 182.324219 490.175781 188.410156 476.789062 194.054688 C 480.195312 206.796875 483.210938 219.515625 485.992188 232.207031 C 499.378906 226.847656 512.742188 221.023438 526.128906 214.78125 C 523.375 201.855469 520.464844 188.851562 516.929688 175.847656 Z M 526.390625 216.160156 C 512.925781 222.296875 499.535156 228.226562 486.25 233.480469 C 488.722656 246.277344 490.984375 259.046875 492.882812 271.738281 C 506.113281 266.71875 519.34375 261.074219 532.578125 255.042969 C 530.835938 242.140625 528.730469 229.136719 526.390625 216.160156 Z M 532.785156 256.367188 C 519.5 262.347656 506.320312 267.992188 493.089844 273.0625 C 494.492188 285.808594 495.664062 298.527344 496.207031 311.269531 C 509.15625 306.511719 522.101562 301.046875 535.074219 295.351562 C 534.867188 282.347656 533.902344 269.398438 532.785156 256.367188 Z M 535.074219 296.601562 C 522.074219 302.402344 509.15625 307.757812 496.261719 312.570312 C 496.496094 325.3125 495.921875 338.03125 494.804688 350.722656 C 507.414062 346.25 519.96875 341.125 532.65625 335.636719 C 534.136719 322.632812 535.019531 309.707031 535.074219 296.601562 Z M 532.449219 336.914062 C 519.789062 342.398438 507.257812 347.523438 494.648438 351.996094 C 492.464844 364.792969 489.191406 377.5625 484.667969 390.253906 C 496.9375 385.960938 509.128906 381.203125 521.503906 375.84375 C 526.3125 362.894531 529.898438 349.890625 532.449219 336.914062 Z M 520.90625 377.199219 C 508.609375 382.449219 496.339844 387.316406 484.121094 391.554688 C 477.308594 404.246094 467.09375 417.015625 450.6875 429.65625 C 462.804688 425.675781 474.867188 421.097656 487.082031 415.972656 C 503.304688 403.101562 513.757812 390.097656 520.90625 377.199219 Z M 485.132812 417.300781 C 473.019531 422.371094 460.90625 426.949219 448.738281 430.929688 C 429.996094 443.671875 416.296875 456.390625 405.53125 469.183594 C 417.59375 465.441406 429.710938 461.148438 441.824219 456.234375 C 452.742188 443.359375 466.574219 430.304688 485.132812 417.300781 Z M 441.070312 457.507812 C 428.902344 462.421875 416.894531 466.714844 404.726562 470.460938 C 396.953125 483.253906 391.726562 495.921875 387.855469 508.613281 C 399.8125 505.152344 411.796875 501.121094 423.859375 496.546875 C 427.734375 483.542969 433.035156 470.617188 441.070312 457.507812 Z M 423.652344 497.820312 C 411.589844 502.5 399.632812 506.53125 387.59375 509.9375 C 385.410156 522.683594 384.96875 535.503906 385.203125 548.195312 C 397.214844 545.023438 409.277344 541.199219 421.339844 536.855469 C 421.078125 523.800781 421.417969 510.902344 423.652344 497.820312 Z M 421.546875 538.105469 C 409.433594 542.449219 397.371094 546.269531 385.410156 549.445312 C 386.816406 562.1875 389.15625 574.90625 392.039062 587.699219 C 404.257812 584.789062 416.453125 581.226562 428.722656 577.039062 C 425.707031 564.113281 423.105469 551.109375 421.546875 538.105469 Z M 429.007812 578.363281 C 416.738281 582.5 404.542969 586.0625 392.328125 588.976562 C 396.175781 601.769531 400.253906 614.488281 404.832031 627.179688 C 417.179688 624.554688 429.605469 621.25 442.003906 617.296875 C 437.328125 604.398438 433.035156 591.417969 429.007812 578.363281 Z M 442.527344 618.625 C 430.019531 622.578125 417.671875 625.828125 405.246094 628.453125 C 410.109375 641.199219 415.019531 654.019531 420.195312 666.710938 C 432.699219 664.265625 445.253906 661.300781 457.8125 657.609375 C 452.585938 644.605469 447.542969 631.652344 442.527344 618.625 Z M 458.332031 658.855469 C 445.722656 662.550781 433.269531 665.617188 420.6875 667.960938 C 425.808594 680.753906 430.75 693.472656 435.636719 706.214844 C 448.035156 704.136719 460.542969 701.351562 473.148438 697.894531 C 468.417969 684.917969 463.402344 671.964844 458.332031 658.855469 Z M 473.566406 699.167969 C 461.0625 702.628906 448.558594 705.410156 436.050781 707.492188 C 440.523438 720.285156 444.710938 733.003906 448.558594 745.695312 C 460.671875 743.902344 472.890625 741.402344 485.082031 738.101562 C 481.703125 725.148438 477.804688 712.171875 473.566406 699.167969 Z M 450.167969 115.539062 C 437.898438 121.285156 425.601562 125.601562 413.4375 128.203125 C 416.894531 140.660156 420.53125 153.171875 424.144531 165.628906 C 437.195312 163.289062 450.273438 159.152344 463.402344 153.792969 C 459.265625 141.050781 454.796875 128.359375 450.167969 115.539062 Z M 463.84375 155.121094 C 450.714844 160.425781 437.613281 164.5625 424.535156 166.851562 C 428.046875 179.359375 431.632812 191.765625 434.933594 204.273438 C 448.269531 202.140625 461.632812 198.398438 475.074219 193.273438 C 471.617188 180.582031 467.714844 167.863281 463.84375 155.121094 Z M 475.464844 194.546875 C 461.996094 199.671875 448.609375 203.441406 435.324219 205.445312 C 438.625 218.007812 441.640625 230.414062 444.421875 242.871094 C 457.8125 241.074219 471.175781 237.5625 484.667969 232.753906 C 481.832031 220.035156 478.816406 207.34375 475.464844 194.546875 Z M 484.847656 234.027344 C 471.460938 238.839844 458.097656 242.351562 444.710938 244.09375 C 447.386719 256.652344 449.726562 269.058594 451.910156 281.515625 C 465.089844 279.957031 478.324219 276.785156 491.554688 272.230469 C 489.632812 259.515625 487.421875 246.824219 484.847656 234.027344 Z M 491.761719 273.480469 C 478.480469 278.058594 465.296875 281.230469 452.066406 282.765625 C 453.78125 295.273438 455.1875 307.628906 455.964844 320.136719 C 468.914062 318.8125 481.859375 315.898438 494.882812 311.605469 C 494.335938 298.941406 493.167969 286.25 491.761719 273.480469 Z M 494.933594 312.90625 C 481.9375 317.199219 469.015625 320.058594 456.148438 321.4375 C 456.640625 333.894531 456.433594 346.40625 455.601562 358.757812 C 468.261719 357.746094 480.792969 355.167969 493.453125 351.164062 C 494.621094 338.472656 495.21875 325.703125 494.933594 312.90625 Z M 493.324219 352.492188 C 480.664062 356.46875 468.132812 359.019531 455.523438 360.085938 C 453.730469 372.542969 450.84375 385 446.660156 397.40625 C 458.929688 396.574219 471.121094 394.335938 483.496094 390.644531 C 487.96875 377.925781 491.191406 365.234375 493.324219 352.492188 Z M 482.847656 391.917969 C 470.574219 395.609375 458.382812 397.847656 446.21875 398.679688 C 439.640625 411.085938 429.578125 423.542969 413.125 435.972656 C 425.238281 435.402344 437.300781 433.453125 449.519531 430.042969 C 465.820312 417.300781 476.085938 404.609375 482.847656 391.917969 Z M 447.59375 431.242188 C 435.375 434.699219 423.367188 436.648438 411.199219 437.171875 C 392.273438 449.730469 378.652344 462.136719 368.046875 474.59375 C 380.210938 474.308594 392.273438 472.644531 404.390625 469.472656 C 415.097656 456.78125 428.851562 443.984375 447.59375 431.242188 Z M 403.558594 470.746094 C 391.441406 473.867188 379.378906 475.480469 367.316406 475.816406 C 359.621094 488.378906 354.476562 500.730469 350.628906 513.242188 C 362.636719 513.136719 374.621094 511.785156 386.683594 508.949219 C 390.480469 496.257812 395.730469 483.542969 403.558594 470.746094 Z M 386.425781 510.226562 C 374.363281 513.085938 362.40625 514.414062 350.421875 514.515625 C 348.132812 526.972656 347.585938 539.378906 347.742188 551.835938 C 359.804688 551.992188 371.867188 550.953125 383.980469 548.378906 C 383.695312 535.6875 384.242188 522.96875 386.425781 510.226562 Z M 384.136719 549.703125 C 372.023438 552.226562 359.960938 553.292969 347.898438 553.164062 C 349.25 565.621094 351.460938 578.078125 354.085938 590.484375 C 366.304688 590.925781 378.496094 590.199219 390.765625 587.855469 C 387.882812 575.164062 385.566406 562.449219 384.136719 549.703125 Z M 391.050781 589.132812 C 378.78125 591.472656 366.589844 592.148438 354.371094 591.757812 C 358.0625 604.265625 361.960938 616.726562 366.304688 629.128906 C 378.757812 629.808594 391.078125 629.3125 403.582031 627.386719 C 399.035156 614.671875 394.898438 601.925781 391.050781 589.132812 Z M 404 628.636719 C 391.597656 630.640625 379.199219 631.082031 366.824219 630.378906 C 371.453125 642.835938 376.3125 655.347656 381.382812 667.699219 C 393.886719 668.636719 406.390625 668.53125 418.945312 666.816406 C 413.773438 654.148438 408.859375 641.433594 404 628.636719 Z M 419.464844 668.117188 C 406.859375 669.859375 394.355469 669.910156 381.902344 669.050781 C 386.867188 681.507812 391.960938 693.964844 396.875 706.371094 C 409.277344 707.59375 421.78125 707.722656 434.335938 706.320312 C 429.527344 693.628906 424.535156 680.910156 419.464844 668.117188 Z M 434.804688 707.59375 C 422.351562 709 409.847656 708.867188 397.394531 707.648438 C 402.128906 720.15625 406.597656 732.613281 410.785156 745.070312 C 423.003906 746.421875 435.117188 746.96875 447.308594 745.746094 C 443.539062 733.054688 439.328125 720.339844 434.804688 707.59375 Z M 412.160156 128.4375 C 399.945312 127.5 387.699219 118.398438 375.429688 81.804688 C 377.664062 94.808594 380.550781 107.789062 383.566406 120.84375 C 396.640625 155.847656 409.742188 164.691406 422.820312 165.757812 C 419.234375 153.378906 415.515625 140.894531 412.160156 128.4375 Z M 423.210938 167.03125 C 410.132812 166.019531 397.03125 157.097656 383.957031 122.171875 C 387.128906 135.25 390.429688 148.203125 393.601562 161.207031 C 406.882812 194.546875 420.273438 203.207031 433.636719 204.429688 C 430.308594 191.921875 426.71875 179.542969 423.210938 167.03125 Z M 433.921875 205.679688 C 420.636719 204.457031 407.25 195.746094 393.886719 162.558594 C 397.109375 175.613281 400.125 188.59375 403.089844 201.648438 C 416.375 233.195312 429.761719 241.699219 443.125 243.027344 C 440.238281 230.570312 437.222656 218.136719 433.921875 205.679688 Z M 443.410156 244.25 C 430.019531 242.972656 416.660156 234.46875 403.375 202.921875 C 406.105469 215.976562 408.625 229.007812 411.019531 242.011719 C 424.144531 271.894531 437.378906 280.164062 450.558594 281.621094 C 448.425781 269.214844 446.085938 256.785156 443.410156 244.25 Z M 450.742188 282.867188 C 437.613281 281.414062 424.378906 273.195312 411.199219 243.261719 C 413.046875 256.339844 414.761719 269.34375 415.929688 282.347656 C 428.878906 310.617188 441.824219 318.65625 454.742188 320.214844 C 453.859375 307.808594 452.457031 295.351562 450.742188 282.867188 Z M 454.796875 321.488281 C 441.851562 319.929688 428.902344 311.816406 416.007812 283.625 C 416.894531 296.703125 417.023438 309.707031 416.582031 322.710938 C 429.136719 349.238281 441.773438 357.121094 454.328125 358.863281 C 455.1875 346.40625 455.367188 334 454.796875 321.488281 Z M 454.300781 360.085938 C 441.695312 358.421875 429.113281 350.539062 416.503906 323.960938 C 415.046875 337.042969 412.550781 350.046875 408.730469 363.050781 C 421 387.964844 433.191406 395.609375 445.464844 397.507812 C 449.570312 385 452.457031 372.621094 454.300781 360.085938 Z M 444.96875 398.679688 C 432.75 396.886719 420.558594 389.238281 408.289062 364.375 C 402.023438 377.378906 392.195312 390.355469 375.636719 403.308594 C 387.699219 426.535156 399.8125 434.023438 411.875 435.972656 C 428.332031 423.542969 438.390625 411.1875 444.96875 398.679688 Z M 409.976562 437.171875 C 397.914062 435.21875 385.800781 427.78125 373.636719 404.609375 C 354.527344 417.691406 340.984375 430.644531 330.636719 443.644531 C 342.699219 465.207031 354.867188 472.515625 366.875 474.492188 C 377.378906 462.136719 391.050781 449.730469 409.976562 437.171875 Z M 366.097656 475.816406 C 354.035156 473.683594 341.972656 466.429688 329.910156 445 C 322.371094 458.054688 317.25 471.03125 313.503906 484.085938 C 325.515625 503.90625 337.5 510.953125 349.457031 513.136719 C 353.203125 500.730469 358.347656 488.273438 366.097656 475.816406 Z M 349.277344 514.414062 C 337.265625 512.175781 325.28125 505.128906 313.324219 485.363281 C 311.035156 498.417969 310.464844 511.449219 310.464844 524.449219 C 322.527344 542.550781 334.589844 549.46875 346.597656 551.8125 C 346.441406 539.273438 346.988281 526.921875 349.277344 514.414062 Z M 346.726562 553.058594 C 334.71875 550.667969 322.65625 543.800781 310.59375 525.699219 C 311.761719 538.78125 313.765625 551.785156 316.234375 564.789062 C 328.453125 581.25 340.644531 587.960938 352.914062 590.433594 C 350.1875 577.921875 348.003906 565.515625 346.726562 553.058594 Z M 353.148438 591.601562 C 340.929688 589.132812 328.738281 582.5 316.519531 566.035156 C 319.976562 579.117188 323.667969 592.121094 327.960938 605.125 C 340.253906 619.925781 352.734375 626.398438 365.132812 628.972656 C 360.6875 616.570312 356.816406 604.164062 353.148438 591.601562 Z M 365.550781 630.25 C 353.148438 627.621094 340.773438 621.144531 328.375 606.398438 C 332.847656 619.480469 337.628906 632.484375 342.542969 645.488281 C 355.046875 658.570312 367.550781 664.917969 380.109375 667.59375 C 375.039062 655.214844 370.175781 642.707031 365.550781 630.25 Z M 380.652344 668.894531 C 368.148438 666.0625 355.59375 659.84375 343.089844 646.789062 C 348.105469 659.84375 353.203125 672.824219 358.21875 685.878906 C 370.621094 697.269531 383.125 703.355469 395.628906 706.214844 C 390.714844 693.757812 385.644531 681.351562 380.652344 668.894531 Z M 396.070312 707.492188 C 383.667969 704.578125 371.164062 698.597656 358.765625 687.152344 C 363.679688 700.234375 368.4375 713.238281 373.167969 726.242188 C 385.28125 736.019531 397.394531 741.871094 409.613281 744.890625 C 405.296875 732.351562 400.828125 720 396.070312 707.492188 Z M 374.234375 79.492188 C 361.9375 60.664062 349.71875 47.710938 337.394531 38.035156 C 338.511719 50.78125 340.566406 63.601562 342.984375 76.34375 C 356.0625 86.515625 369.164062 99.90625 382.34375 118.582031 C 379.328125 105.578125 376.46875 92.574219 374.234375 79.492188 Z M 382.683594 119.933594 C 369.554688 101.15625 356.453125 87.761719 343.375 77.644531 C 346 90.492188 349.121094 103.238281 352.136719 116.058594 C 365.421875 126.566406 378.808594 140.402344 392.171875 159.023438 C 389 146.019531 385.699219 133.015625 382.683594 119.933594 Z M 392.558594 160.375 C 379.09375 141.726562 365.808594 127.8125 352.421875 117.304688 C 355.59375 130.152344 358.609375 142.949219 361.519531 155.71875 C 374.910156 166.617188 388.269531 180.972656 401.660156 199.515625 C 398.800781 186.460938 395.785156 173.429688 392.558594 160.375 Z M 401.945312 200.816406 C 388.558594 182.222656 375.195312 167.863281 361.804688 156.96875 C 364.667969 169.816406 367.394531 182.609375 369.96875 195.378906 C 383.097656 206.667969 396.328125 221.464844 409.5625 239.957031 C 407.25 226.847656 404.726562 213.871094 401.945312 200.816406 Z M 409.820312 241.230469 C 396.589844 222.84375 383.359375 207.941406 370.175781 196.707031 C 372.308594 209.554688 374.3125 222.296875 375.714844 235.121094 C 388.660156 246.746094 401.554688 262.089844 414.578125 280.425781 C 413.488281 267.316406 411.773438 254.3125 409.820312 241.230469 Z M 414.734375 281.671875 C 401.683594 263.3125 388.816406 247.992188 375.871094 236.367188 C 377.039062 249.214844 377.535156 262.011719 377.480469 274.675781 C 390.039062 286.796875 402.671875 302.554688 415.332031 320.867188 C 415.722656 307.808594 415.621094 294.753906 414.734375 281.671875 Z M 415.230469 322.113281 C 402.621094 303.910156 390.039062 288.042969 377.378906 276.027344 C 376.3125 288.824219 374.207031 301.59375 370.722656 314.390625 C 382.992188 326.847656 395.1875 343.152344 407.558594 361.253906 C 411.328125 348.25 413.773438 335.195312 415.230469 322.113281 Z M 407.117188 362.554688 C 394.820312 344.402344 382.550781 328.097656 370.332031 315.636719 C 364.300781 328.433594 354.65625 341.203125 338.070312 353.894531 C 350.132812 366.742188 362.25 383.492188 374.363281 401.539062 C 390.898438 388.589844 400.773438 375.609375 407.117188 362.554688 Z M 372.464844 402.894531 C 360.246094 384.84375 348.132812 368.09375 336.070312 355.246094 C 316.753906 367.992188 303.367188 380.8125 293.148438 393.554688 C 305.265625 406.792969 317.328125 424.0625 329.441406 441.980469 C 339.8125 429.003906 353.359375 416 372.464844 402.894531 Z M 328.6875 443.359375 C 316.519531 425.390625 304.511719 408.171875 292.449219 394.882812 C 285.011719 407.730469 279.996094 420.472656 276.355469 433.296875 C 288.3125 446.871094 300.296875 464.632812 312.308594 482.449219 C 316.027344 469.394531 321.097656 456.390625 328.6875 443.359375 Z M 312.050781 483.75 C 300.089844 465.933594 288.105469 448.222656 276.097656 434.542969 C 273.757812 447.390625 273.082031 460.136719 273.027344 472.957031 C 285.089844 486.921875 297.101562 505.179688 309.265625 522.941406 C 309.164062 509.835938 309.761719 496.832031 312.050781 483.75 Z M 309.421875 524.191406 C 297.308594 506.480469 285.246094 488.273438 273.183594 474.203125 C 274.199219 487.050781 276.042969 499.847656 278.382812 512.617188 C 290.601562 526.972656 302.792969 545.726562 315.066406 563.382812 C 312.570312 550.277344 310.488281 537.296875 309.421875 524.191406 Z M 315.296875 564.632812 C 303.003906 547.050781 290.835938 528.324219 278.617188 513.917969 C 281.839844 526.765625 285.375 539.507812 289.457031 552.332031 C 301.804688 567.023438 314.257812 586.296875 326.683594 603.773438 C 322.5 590.71875 318.757812 577.738281 315.296875 564.632812 Z M 327.128906 605.074219 C 314.726562 587.542969 302.273438 568.378906 289.847656 553.578125 C 294.191406 566.425781 298.789062 579.144531 303.703125 591.886719 C 316.207031 607.179688 328.710938 626.789062 341.320312 644.214844 C 336.328125 631.210938 331.597656 618.128906 327.128906 605.074219 Z M 341.816406 645.488281 C 329.257812 628.0625 316.753906 608.453125 304.199219 593.265625 C 309.164062 606.0625 314.3125 618.832031 319.484375 631.628906 C 331.882812 647.257812 344.390625 667.308594 356.894531 684.683594 C 351.902344 671.679688 346.832031 658.570312 341.816406 645.488281 Z M 357.386719 685.929688 C 344.933594 668.660156 332.429688 648.507812 319.976562 632.875 C 325.125 645.722656 330.296875 658.519531 335.34375 671.289062 C 347.558594 687.308594 359.675781 707.878906 371.867188 725.125 C 367.265625 712.121094 362.40625 699.011719 357.386719 685.929688 Z M 336.175781 37.179688 C 323.878906 30.128906 311.605469 24.097656 299.390625 19.128906 C 299.234375 31.792969 300.507812 44.332031 302.40625 56.839844 C 315.480469 61.910156 328.582031 68.125 341.761719 75.488281 C 339.242188 62.742188 337.1875 49.949219 336.175781 37.179688 Z M 342.074219 76.8125 C 328.894531 69.425781 315.792969 63.183594 302.714844 58.0625 C 305.003906 70.726562 307.835938 83.238281 310.59375 95.875 C 323.980469 101 337.34375 107.449219 350.730469 115.097656 C 347.714844 102.351562 344.699219 89.660156 342.074219 76.8125 Z M 351.070312 116.371094 C 337.628906 108.722656 324.265625 102.25 310.984375 97.097656 C 313.945312 109.710938 317.066406 122.273438 319.976562 134.808594 C 333.367188 140.0625 346.726562 146.746094 360.222656 154.707031 C 357.230469 142.039062 354.191406 129.269531 351.070312 116.371094 Z M 360.507812 156.082031 C 347.039062 148.046875 333.652344 141.335938 320.367188 136.082031 C 323.28125 148.699219 326.164062 161.257812 328.972656 173.792969 C 342.101562 179.152344 355.332031 186.070312 368.667969 194.390625 C 366.097656 181.648438 363.367188 168.851562 360.507812 156.082031 Z M 368.878906 195.71875 C 355.59375 187.34375 342.414062 180.425781 329.179688 175.09375 C 331.625 187.761719 333.808594 200.296875 335.601562 212.859375 C 348.546875 218.265625 361.441406 225.417969 374.464844 234.027344 C 373.011719 221.257812 371.007812 208.566406 368.878906 195.71875 Z M 374.621094 235.277344 C 361.625 226.667969 348.703125 219.515625 335.757812 214.105469 C 337.265625 226.71875 338.046875 239.28125 338.382812 251.816406 C 350.941406 257.304688 363.546875 264.664062 376.234375 273.609375 C 376.207031 260.917969 375.765625 248.125 374.621094 235.277344 Z M 376.15625 274.988281 C 363.496094 265.9375 350.914062 258.578125 338.359375 253.089844 C 337.527344 265.757812 335.886719 278.292969 332.714844 290.800781 C 344.988281 296.394531 357.179688 303.988281 369.554688 313.296875 C 373.011719 300.554688 375.039062 287.757812 376.15625 274.988281 Z M 369.113281 314.570312 C 356.816406 305.289062 344.648438 297.691406 332.429688 292.128906 C 326.683594 304.6875 317.195312 317.199219 300.507812 329.707031 C 312.570312 335.402344 324.683594 343.152344 336.796875 352.777344 C 353.4375 340.109375 363.132812 327.367188 369.113281 314.570312 Z M 334.875 354.128906 C 322.707031 344.402344 310.59375 336.601562 298.480469 330.957031 C 279.058594 343.570312 265.75 356.132812 255.664062 368.667969 C 267.828125 374.46875 279.839844 382.449219 292.003906 392.410156 C 302.117188 379.695312 315.585938 366.898438 334.875 354.128906 Z M 291.277344 393.710938 C 279.113281 383.726562 266.996094 375.714844 254.933594 369.96875 C 247.683594 382.632812 242.714844 395.167969 239.078125 407.730469 C 251.035156 413.582031 263.019531 421.75 275.082031 432.074219 C 278.773438 419.25 283.789062 406.558594 291.277344 393.710938 Z M 274.875 433.320312 C 262.8125 423.046875 250.851562 414.832031 238.816406 408.980469 C 236.582031 421.59375 235.800781 434.152344 235.644531 446.6875 C 247.65625 452.617188 259.667969 461.046875 271.832031 471.65625 C 271.910156 458.964844 272.585938 446.167969 274.875 433.320312 Z M 272.015625 473.035156 C 259.847656 462.320312 247.835938 453.917969 235.773438 447.964844 C 236.660156 460.523438 238.347656 473.164062 240.507812 485.675781 C 252.671875 491.707031 264.890625 500.367188 277.1875 511.316406 C 274.769531 498.601562 272.925781 485.804688 272.015625 473.035156 Z M 277.371094 512.617188 C 265.097656 501.667969 252.90625 493.007812 240.6875 486.921875 C 243.808594 499.589844 247.109375 512.097656 251.007812 524.632812 C 263.410156 530.824219 275.785156 539.664062 288.289062 550.953125 C 284.128906 538.15625 280.671875 525.464844 277.371094 512.617188 Z M 288.601562 552.226562 C 276.199219 540.941406 263.800781 532.070312 251.425781 525.933594 C 255.507812 538.546875 260.082031 551.109375 264.867188 563.644531 C 277.371094 569.886719 289.875 578.988281 302.429688 590.613281 C 297.59375 577.871094 292.914062 565.074219 288.601562 552.226562 Z M 302.949219 591.886719 C 290.34375 580.261719 277.890625 571.160156 265.386719 564.917969 C 270.296875 577.53125 275.496094 590.09375 280.75 602.628906 C 293.148438 608.949219 305.652344 618.257812 318.210938 630.222656 C 313.0625 617.453125 307.96875 604.710938 302.949219 591.886719 Z M 318.757812 631.523438 C 306.148438 619.585938 293.644531 610.25 281.242188 603.929688 C 286.703125 616.59375 292.136719 629.128906 297.648438 641.691406 C 309.761719 648.0625 321.980469 657.609375 334.171875 669.882812 C 329.023438 657.0625 323.878906 644.371094 318.757812 631.523438 Z M 298.167969 18.6875 C 285.871094 14.941406 273.601562 11.484375 261.328125 9.195312 C 260.054688 21.859375 260.496094 34.394531 261.824219 46.957031 C 274.898438 49.195312 288.003906 52.546875 301.183594 56.398438 C 299.257812 43.808594 298.035156 31.25 298.167969 18.6875 Z M 301.390625 57.621094 C 288.261719 53.875 275.210938 50.414062 262.136719 48.230469 C 263.980469 60.84375 266.476562 73.484375 269.128906 86.046875 C 282.515625 88.125 295.878906 91.507812 309.265625 95.332031 C 306.40625 82.792969 303.679688 70.234375 301.390625 57.621094 Z M 309.554688 96.605469 C 296.164062 92.808594 282.804688 89.402344 269.414062 87.320312 C 272.429688 99.933594 275.445312 112.496094 278.511719 125.136719 C 291.902344 127.136719 305.210938 130.542969 318.652344 134.394531 C 315.636719 121.832031 312.621094 109.269531 309.554688 96.605469 Z M 318.964844 135.640625 C 305.574219 131.6875 292.214844 128.4375 278.824219 126.382812 C 281.996094 138.996094 285.011719 151.558594 287.976562 164.09375 C 301.105469 166.148438 314.335938 169.453125 327.621094 173.351562 C 324.839844 160.816406 321.980469 148.253906 318.964844 135.640625 Z M 327.855469 174.625 C 314.621094 170.726562 301.390625 167.421875 288.160156 165.367188 C 290.886719 178.035156 293.304688 190.621094 295.359375 203.183594 C 308.304688 205.132812 321.25 208.382812 334.222656 212.335938 C 332.480469 199.75 330.296875 187.1875 327.855469 174.625 Z M 334.484375 213.585938 C 321.484375 209.683594 308.566406 206.382812 295.621094 204.484375 C 297.464844 217.148438 298.53125 229.683594 299.207031 242.296875 C 311.867188 244.09375 324.398438 247.421875 337.058594 251.296875 C 336.773438 238.734375 335.941406 226.171875 334.484375 213.585938 Z M 337.058594 252.570312 C 324.398438 248.617188 311.867188 245.367188 299.257812 243.519531 C 298.816406 256.210938 297.515625 268.722656 294.734375 281.28125 C 307.003906 283.078125 319.199219 286.355469 331.574219 290.332031 C 334.613281 277.773438 336.328125 265.210938 337.058594 252.570312 Z M 331.15625 291.582031 C 318.886719 287.601562 306.695312 284.378906 294.421875 282.582031 C 288.964844 295.09375 279.683594 307.757812 262.941406 320.214844 C 275.003906 321.957031 287.117188 325.183594 299.234375 329.164062 C 316.027344 316.703125 325.410156 304.144531 331.15625 291.582031 Z M 297.308594 330.4375 C 285.089844 326.40625 272.925781 323.234375 260.914062 321.488281 C 241.261719 334.15625 228.027344 346.691406 218.253906 359.304688 C 230.316406 360.96875 242.378906 364.117188 254.492188 368.171875 C 264.5 355.636719 277.785156 343.074219 297.308594 330.4375 Z M 253.765625 369.472656 C 241.652344 365.390625 229.589844 362.21875 217.527344 360.578125 C 210.324219 373.246094 205.464844 385.78125 201.851562 398.339844 C 213.859375 400.007812 225.84375 403.074219 237.90625 407.210938 C 241.546875 394.621094 246.40625 382.085938 253.765625 369.472656 Z M 237.648438 408.40625 C 225.585938 404.324219 213.625 401.148438 201.640625 399.589844 C 199.300781 412.203125 198.46875 424.84375 198.234375 437.40625 C 210.296875 438.859375 222.359375 442.035156 234.421875 446.117188 C 234.578125 433.554688 235.332031 421.019531 237.648438 408.40625 Z M 234.578125 447.390625 C 222.414062 443.257812 210.402344 440.1875 198.339844 438.679688 C 199.066406 451.292969 200.628906 463.855469 202.527344 476.492188 C 214.742188 477.898438 226.9375 480.96875 239.207031 485.101562 C 237.074219 472.566406 235.359375 460.003906 234.578125 447.390625 Z M 239.414062 486.375 C 227.144531 482.242188 214.953125 479.171875 202.785156 477.664062 C 205.621094 490.355469 208.765625 502.917969 212.507812 515.476562 C 224.960938 516.882812 237.308594 519.898438 249.734375 524.140625 C 245.835938 511.578125 242.535156 499.042969 239.414062 486.375 Z M 250.152344 525.414062 C 237.648438 521.175781 225.296875 518.210938 212.871094 516.753906 C 216.902344 529.417969 221.347656 541.953125 226 554.566406 C 238.503906 555.917969 251.007812 558.9375 263.617188 563.125 C 258.808594 550.5625 254.285156 538.027344 250.152344 525.414062 Z M 264.113281 564.347656 C 251.554688 560.105469 238.945312 557.089844 226.496094 555.816406 C 231.40625 568.480469 236.710938 580.992188 241.960938 593.527344 C 254.414062 594.851562 266.917969 597.816406 279.476562 602.058594 C 274.300781 589.519531 269.023438 576.960938 264.113281 564.347656 Z M 279.996094 603.332031 C 267.4375 599.144531 255.039062 596.128906 242.535156 594.851562 C 248.175781 607.464844 253.921875 620.054688 259.953125 632.617188 C 272.066406 633.835938 284.234375 636.75 296.398438 641.042969 C 290.886719 628.507812 285.429688 615.996094 279.996094 603.332031 Z M 260.1875 9.011719 C 247.835938 6.828125 235.621094 5.605469 223.347656 4.433594 C 220.828125 17.179688 220.488281 30 221.269531 42.691406 C 234.34375 43.652344 247.449219 44.773438 260.628906 46.828125 C 259.199219 34.160156 258.78125 21.625 260.1875 9.011719 Z M 260.808594 47.996094 C 247.683594 46.046875 234.578125 44.929688 221.503906 43.964844 C 222.855469 56.710938 225.144531 69.425781 227.691406 82.222656 C 241.078125 83.054688 254.363281 83.9375 267.828125 85.8125 C 265.097656 73.25 262.65625 60.6875 260.808594 47.996094 Z M 268.113281 87.085938 C 254.648438 85.238281 241.363281 84.304688 227.976562 83.496094 C 230.835938 96.292969 233.902344 109.011719 237.023438 121.703125 C 250.410156 122.324219 263.773438 123.160156 277.214844 124.925781 C 274.144531 112.339844 271.027344 99.726562 268.113281 87.085938 Z M 277.5 126.148438 C 264.058594 124.433594 250.699219 123.625 237.359375 122.925781 C 240.609375 135.667969 243.78125 148.488281 246.953125 161.179688 C 260.082031 161.621094 273.3125 162.402344 286.597656 163.964844 C 283.582031 151.375 280.621094 138.816406 277.5 126.148438 Z M 286.832031 165.238281 C 273.601562 163.675781 260.367188 162.898438 247.238281 162.457031 C 250.152344 175.25 252.882812 187.96875 255.222656 200.710938 C 268.167969 201 281.113281 201.648438 294.136719 203.050781 C 292.058594 190.414062 289.5625 177.902344 286.832031 165.238281 Z M 294.292969 204.273438 C 281.347656 202.820312 268.402344 202.273438 255.480469 201.988281 C 257.613281 214.78125 259.066406 227.5 260.109375 240.191406 C 272.769531 240.347656 285.296875 240.761719 297.957031 242.039062 C 297.308594 229.503906 296.085938 216.992188 294.292969 204.273438 Z M 298.035156 243.363281 C 285.375 242.039062 272.742188 241.621094 260.1875 241.464844 C 260.082031 254.210938 259.121094 267.03125 256.78125 279.722656 C 269 279.617188 281.191406 280.007812 293.511719 281.125 C 296.242188 268.566406 297.59375 255.976562 298.035156 243.363281 Z M 293.226562 282.453125 C 280.957031 281.28125 268.710938 280.945312 256.496094 280.996094 C 251.347656 293.6875 242.25 306.511719 225.296875 319.097656 C 237.464844 318.863281 249.578125 319.097656 261.695312 320.058594 C 278.511719 307.601562 287.714844 294.960938 293.226562 282.453125 Z M 259.640625 321.332031 C 247.527344 320.371094 235.359375 320.164062 223.246094 320.371094 C 203.488281 333.167969 190.410156 345.886719 180.765625 358.628906 C 192.828125 358.1875 204.839844 358.34375 217.003906 359.175781 C 226.859375 346.535156 240.039062 334 259.640625 321.332031 Z M 216.304688 360.421875 C 204.136719 359.589844 192.074219 359.460938 180.066406 359.929688 C 173.019531 372.671875 168.183594 385.390625 164.699219 398.082031 C 176.660156 397.535156 188.644531 397.507812 200.707031 398.238281 C 204.292969 385.625 209.050781 373.0625 216.304688 360.421875 Z M 200.496094 399.460938 C 188.4375 398.785156 176.476562 398.835938 164.441406 399.355469 C 162.101562 412.152344 161.21875 424.921875 160.851562 437.613281 C 172.914062 436.882812 184.976562 436.726562 197.039062 437.273438 C 197.328125 424.714844 198.105469 412.152344 200.496094 399.460938 Z M 197.171875 438.523438 C 185.003906 437.976562 172.992188 438.132812 160.929688 438.859375 C 161.503906 451.65625 162.828125 464.375 164.570312 477.117188 C 176.867188 476.15625 189.035156 475.949219 201.25 476.285156 C 199.378906 463.800781 197.820312 451.136719 197.171875 438.523438 Z M 201.511719 477.613281 C 189.242188 477.222656 177.050781 477.457031 164.832031 478.445312 C 167.558594 491.1875 170.472656 503.90625 174.085938 516.597656 C 186.433594 515.582031 198.859375 515.191406 211.3125 515.375 C 207.542969 502.785156 204.421875 490.226562 201.511719 477.613281 Z M 211.625 516.699219 C 199.222656 516.464844 186.824219 516.855469 174.449219 517.871094 C 178.246094 530.667969 182.535156 543.4375 187.136719 556.128906 C 199.640625 554.855469 212.144531 554.332031 224.699219 554.464844 C 220.046875 541.851562 215.679688 529.3125 211.625 516.699219 Z M 225.246094 555.6875 C 212.636719 555.632812 200.1875 556.128906 187.683594 557.429688 C 192.59375 570.171875 197.792969 582.890625 203.253906 595.683594 C 215.652344 594.175781 228.160156 593.550781 240.765625 593.5 C 235.359375 580.9375 230.160156 568.378906 225.246094 555.6875 Z M 241.261719 594.773438 C 228.703125 594.878906 216.304688 595.449219 203.800781 596.960938 C 209.726562 609.703125 215.757812 622.421875 222.152344 635.113281 C 234.320312 633.550781 246.484375 632.769531 258.679688 632.589844 C 252.648438 620.027344 246.953125 607.363281 241.261719 594.773438 Z M 222.101562 4.433594 C 209.832031 4.277344 197.535156 3.941406 185.316406 4.617188 C 181.675781 17.570312 180.507812 30.417969 180.6875 43.265625 C 193.765625 42.535156 206.867188 42.585938 220.046875 42.691406 C 219.214844 29.972656 219.605469 17.28125 222.101562 4.433594 Z M 220.203125 43.964844 C 207.023438 43.863281 193.921875 43.808594 180.84375 44.640625 C 181.859375 57.542969 183.859375 70.390625 186.25 83.238281 C 199.640625 82.351562 212.925781 82.273438 226.390625 82.222656 C 223.789062 69.503906 221.554688 56.710938 220.203125 43.964844 Z M 226.652344 83.472656 C 213.183594 83.574219 199.796875 83.628906 186.511719 84.539062 C 189.242188 97.4375 192.359375 110.386719 195.507812 123.234375 C 208.84375 122.171875 222.207031 121.960938 235.644531 121.726562 C 232.605469 109.035156 229.484375 96.265625 226.652344 83.472656 Z M 235.957031 123.003906 C 222.570312 123.234375 209.207031 123.496094 195.820312 124.511719 C 199.222656 137.460938 202.527344 150.308594 205.878906 163.15625 C 219.113281 162.039062 232.292969 161.648438 245.574219 161.257812 C 242.429688 148.488281 239.257812 135.796875 235.957031 123.003906 Z M 245.886719 162.558594 C 232.605469 162.898438 219.421875 163.289062 206.242188 164.511719 C 209.363281 177.410156 212.378906 190.257812 215.054688 203.105469 C 228.003906 201.832031 240.949219 201.308594 253.921875 200.816406 C 251.582031 188.019531 248.851562 175.328125 245.886719 162.558594 Z M 254.15625 202.089844 C 241.207031 202.636719 228.261719 203.105469 215.34375 204.429688 C 217.785156 217.332031 219.632812 230.28125 220.984375 243.128906 C 233.589844 241.726562 246.175781 240.945312 258.835938 240.269531 C 257.792969 227.550781 256.234375 214.835938 254.15625 202.089844 Z M 258.914062 241.570312 C 246.25 242.296875 233.722656 242.972656 221.0625 244.40625 C 221.347656 257.355469 220.828125 270.203125 218.773438 283.050781 C 230.992188 281.542969 243.234375 280.605469 255.507812 279.800781 C 257.898438 267.109375 258.808594 254.417969 258.914062 241.570312 Z M 255.21875 281.074219 C 242.949219 281.90625 230.757812 282.792969 218.539062 284.378906 C 213.625 297.226562 204.8125 310.074219 187.734375 322.816406 C 199.898438 321.152344 211.910156 320.136719 224.128906 319.175781 C 241.050781 306.535156 250.097656 293.84375 255.21875 281.074219 Z M 222.101562 320.5 C 209.882812 321.464844 197.769531 322.554688 185.707031 324.195312 C 165.714844 337.144531 152.714844 349.992188 143.28125 362.839844 C 155.34375 361.046875 167.40625 359.824219 179.519531 358.707031 C 189.164062 346.015625 202.238281 333.296875 222.101562 320.5 Z M 178.789062 359.980469 C 166.675781 361.097656 154.613281 362.425781 142.550781 364.117188 C 135.636719 377.066406 130.929688 389.96875 127.472656 402.816406 C 139.484375 400.96875 151.46875 399.511719 163.53125 398.238281 C 167.015625 385.519531 171.746094 372.828125 178.789062 359.980469 Z M 163.269531 399.484375 C 151.207031 400.8125 139.25 402.214844 127.265625 404.113281 C 124.820312 417.015625 123.859375 429.863281 123.417969 442.710938 C 135.480469 440.757812 147.542969 439.199219 159.65625 437.742188 C 159.96875 425.050781 160.828125 412.308594 163.269531 399.484375 Z M 159.761719 439.070312 C 147.59375 440.472656 135.585938 442.035156 123.523438 444.089844 C 123.964844 457.039062 125.132812 469.886719 126.746094 482.734375 C 138.964844 480.601562 151.15625 478.886719 163.425781 477.324219 C 161.660156 464.609375 160.253906 451.8125 159.761719 439.070312 Z M 163.558594 478.601562 C 151.285156 480.160156 139.09375 481.902344 126.875 484.007812 C 129.398438 496.960938 132.179688 509.859375 135.585938 522.707031 C 147.984375 520.472656 160.359375 518.574219 172.863281 516.855469 C 169.25 504.035156 166.285156 491.34375 163.558594 478.601562 Z M 173.203125 518.105469 C 160.699219 519.847656 148.347656 521.695312 135.921875 523.957031 C 139.613281 536.910156 143.800781 549.757812 148.269531 562.605469 C 160.828125 560.261719 173.332031 558.183594 185.941406 556.363281 C 181.261719 543.566406 177.050781 530.902344 173.203125 518.105469 Z M 186.382812 557.636719 C 173.773438 559.535156 161.269531 561.589844 148.816406 563.957031 C 153.730469 576.90625 159.035156 589.753906 164.519531 602.601562 C 176.917969 600.132812 189.421875 597.84375 201.980469 595.839844 C 196.597656 583.125 191.296875 570.433594 186.382812 557.636719 Z M 202.527344 597.140625 C 190.019531 599.144531 177.515625 601.378906 165.011719 603.851562 C 171.199219 616.804688 177.515625 629.703125 184.433594 642.550781 C 196.597656 639.921875 208.714844 637.53125 220.929688 635.347656 C 214.511719 622.65625 208.480469 609.964844 202.527344 597.140625 Z M 184.09375 4.722656 C 171.796875 5.449219 159.527344 7.0625 147.257812 8.621094 C 142.394531 21.625 140.496094 34.550781 140.109375 47.449219 C 153.183594 45.890625 166.285156 44.226562 179.464844 43.417969 C 179.179688 30.46875 180.402344 17.621094 184.09375 4.722656 Z M 179.519531 44.695312 C 166.441406 45.527344 153.339844 47.164062 140.265625 48.777344 C 140.835938 61.78125 142.550781 74.679688 144.734375 87.605469 C 158.125 86.046875 171.433594 84.304688 184.875 83.316406 C 182.480469 70.46875 180.53125 57.621094 179.519531 44.695312 Z M 185.109375 84.695312 C 171.71875 85.65625 158.359375 87.320312 144.96875 88.878906 C 147.699219 101.882812 150.765625 114.808594 154.015625 127.761719 C 167.40625 126.148438 180.765625 124.457031 194.15625 123.339844 C 191.007812 110.441406 187.890625 97.59375 185.109375 84.695312 Z M 194.492188 124.613281 C 181.050781 125.734375 167.742188 127.449219 154.355469 129.035156 C 157.8125 142.039062 161.347656 154.964844 164.855469 167.863281 C 178.089844 166.304688 191.269531 164.511719 204.554688 163.289062 C 201.226562 150.441406 197.898438 137.488281 194.492188 124.613281 Z M 204.867188 164.5625 C 191.632812 165.785156 178.402344 167.578125 165.167969 169.242188 C 168.625 182.195312 171.929688 195.09375 174.890625 208.046875 C 187.835938 206.433594 200.785156 204.585938 213.757812 203.3125 C 211.050781 190.414062 208.035156 177.511719 204.867188 164.5625 Z M 214.015625 204.5625 C 201.070312 205.914062 188.125 207.734375 175.203125 209.371094 C 177.933594 222.273438 180.117188 235.222656 181.859375 248.125 C 194.464844 246.5625 207.101562 244.664062 219.761719 243.261719 C 218.332031 230.308594 216.433594 217.460938 214.015625 204.5625 Z M 219.8125 244.535156 C 207.152344 245.992188 194.621094 247.835938 182.015625 249.5 C 182.636719 262.503906 182.507812 275.429688 180.792969 288.382812 C 193.011719 286.71875 205.253906 284.742188 217.527344 283.179688 C 219.605469 270.332031 220.097656 257.484375 219.8125 244.535156 Z M 217.316406 284.535156 C 205.019531 286.042969 192.855469 287.992188 180.53125 289.65625 C 175.90625 302.554688 167.300781 315.507812 150.167969 328.355469 C 162.335938 326.691406 174.34375 324.664062 186.5625 323 C 203.566406 310.230469 212.351562 297.382812 217.316406 284.535156 Z M 184.433594 324.351562 C 172.316406 326.015625 160.203125 327.941406 148.035156 329.605469 C 127.890625 342.609375 115.046875 355.535156 105.820312 368.484375 C 117.828125 366.820312 129.890625 364.792969 142.058594 362.996094 C 151.496094 350.148438 164.441406 337.300781 184.433594 324.351562 Z M 141.382812 364.273438 C 129.265625 366.066406 117.207031 368.121094 105.089844 369.757812 C 98.332031 382.761719 93.652344 395.6875 90.296875 408.589844 C 102.257812 406.925781 114.242188 404.84375 126.304688 402.945312 C 129.761719 390.097656 134.363281 377.199219 141.382812 364.273438 Z M 126.097656 404.269531 C 114.035156 406.117188 102.074219 408.222656 90.039062 409.863281 C 87.59375 422.917969 86.582031 435.792969 86.007812 448.742188 C 98.070312 447.078125 110.132812 444.894531 122.25 442.945312 C 122.691406 430.121094 123.679688 417.171875 126.097656 404.269531 Z M 122.351562 444.21875 C 110.1875 446.167969 98.175781 448.355469 86.113281 450.019531 C 86.398438 463.023438 87.4375 475.949219 88.84375 488.847656 C 101.007812 487.183594 113.226562 484.945312 125.523438 482.917969 C 123.859375 470.019531 122.691406 457.171875 122.351562 444.21875 Z M 125.652344 484.242188 C 113.359375 486.324219 101.140625 488.535156 88.972656 490.171875 C 91.3125 503.175781 93.78125 516.078125 97.109375 529.003906 C 109.5625 527.335938 121.910156 525.101562 134.335938 522.8125 C 130.90625 509.992188 128.203125 497.144531 125.652344 484.242188 Z M 134.675781 524.191406 C 122.273438 526.375 109.875 528.613281 97.5 530.378906 C 100.957031 543.28125 104.988281 556.230469 109.457031 569.183594 C 121.960938 567.519531 134.46875 565.203125 147.023438 562.863281 C 142.550781 549.988281 138.367188 537.140625 134.675781 524.191406 Z M 147.542969 564.113281 C 134.933594 566.453125 122.378906 568.792969 109.875 570.484375 C 114.839844 583.4375 120.195312 596.335938 125.785156 609.285156 C 138.183594 607.621094 150.6875 605.253906 163.246094 602.8125 C 157.757812 589.9375 152.457031 577.0625 147.542969 564.113281 Z M 163.816406 604.113281 C 151.3125 606.582031 138.808594 608.871094 126.304688 610.640625 C 132.777344 623.644531 139.378906 636.492188 146.683594 649.441406 C 158.902344 647.699219 171.019531 645.359375 183.210938 642.808594 C 176.320312 629.859375 169.976562 617.011719 163.816406 604.113281 Z M 146.085938 8.90625 C 133.738281 11.378906 121.519531 14.160156 109.25 17.800781 C 103.21875 30.546875 100.386719 43.367188 99.527344 56.113281 C 112.605469 52.808594 125.707031 50.183594 138.886719 47.789062 C 139.199219 34.863281 141.121094 21.910156 146.085938 8.90625 Z M 138.9375 49.0625 C 125.808594 51.457031 112.707031 54.082031 99.632812 57.386719 C 99.789062 70.179688 101.242188 82.949219 103.269531 95.746094 C 116.660156 92.730469 129.96875 90.257812 143.410156 87.917969 C 141.121094 75.019531 139.535156 62.066406 138.9375 49.0625 Z M 143.667969 89.167969 C 130.203125 91.507812 116.917969 93.976562 103.53125 96.996094 C 106.105469 109.84375 109.277344 122.558594 112.472656 135.355469 C 125.863281 132.625 139.222656 130.285156 152.714844 128.046875 C 149.441406 115.121094 146.398438 102.222656 143.667969 89.167969 Z M 153.003906 129.320312 C 139.613281 131.558594 126.25 133.898438 112.863281 136.628906 C 116.453125 149.476562 120.117188 162.222656 123.859375 175.042969 C 137.09375 172.570312 150.273438 170.308594 163.558594 168.175781 C 160.046875 155.277344 156.511719 142.324219 153.003906 129.320312 Z M 163.84375 169.476562 C 150.609375 171.609375 137.378906 173.820312 124.25 176.292969 C 127.890625 189.085938 131.453125 201.855469 134.648438 214.652344 C 147.59375 212.46875 160.542969 210.359375 173.566406 208.332031 C 170.628906 195.378906 167.300781 182.480469 163.84375 169.476562 Z M 173.878906 209.582031 C 160.929688 211.660156 147.984375 213.714844 135.066406 215.898438 C 138.082031 228.746094 140.652344 241.464844 142.8125 254.210938 C 155.367188 252.363281 167.925781 250.410156 180.664062 248.460938 C 178.84375 235.535156 176.660156 222.585938 173.878906 209.582031 Z M 180.792969 249.734375 C 168.054688 251.789062 155.496094 253.714844 142.941406 255.535156 C 143.878906 268.382812 144.113281 281.125 142.785156 293.84375 C 154.953125 292.335938 167.25 290.488281 179.519531 288.589844 C 181.234375 275.691406 181.363281 262.738281 180.792969 249.734375 Z M 179.363281 289.839844 C 167.09375 291.738281 154.796875 293.636719 142.628906 295.09375 C 138.261719 307.886719 129.839844 320.683594 112.605469 333.347656 C 124.71875 332.074219 136.78125 330.382812 149 328.589844 C 166.105469 315.742188 174.761719 302.789062 179.363281 289.839844 Z M 146.867188 329.890625 C 134.648438 331.738281 122.535156 333.347656 110.472656 334.648438 C 90.144531 347.496094 77.378906 360.214844 68.28125 372.957031 C 80.34375 371.996094 92.40625 370.4375 104.519531 368.667969 C 113.800781 355.792969 126.695312 342.84375 146.867188 329.890625 Z M 103.867188 370.046875 C 91.753906 371.789062 79.691406 373.269531 67.683594 374.234375 C 60.972656 387.132812 56.503906 399.875 53.097656 412.671875 C 65.109375 411.890625 77.09375 410.488281 89.050781 408.824219 C 92.480469 395.898438 97.058594 382.996094 103.867188 370.046875 Z M 88.84375 410.199219 C 76.832031 411.761719 64.847656 413.164062 52.890625 413.945312 C 50.367188 426.691406 49.300781 439.511719 48.703125 452.253906 C 60.664062 451.8125 72.726562 450.539062 84.839844 448.953125 C 85.386719 436.050781 86.398438 423.101562 88.84375 410.199219 Z M 84.839844 450.304688 C 72.777344 451.8125 60.765625 453.085938 48.703125 453.554688 C 48.859375 466.402344 49.71875 479.121094 50.886719 491.863281 C 63.105469 491.707031 75.296875 490.589844 87.570312 489.082031 C 86.164062 476.15625 85.125 463.308594 84.839844 450.304688 Z M 87.726562 490.460938 C 75.453125 491.863281 63.261719 493.085938 51.042969 493.136719 C 53.175781 505.984375 55.515625 518.78125 58.6875 531.5 C 71.035156 531.65625 83.460938 530.667969 95.914062 529.261719 C 92.636719 516.3125 90.039062 503.464844 87.726562 490.460938 Z M 96.226562 530.5625 C 83.722656 531.914062 71.425781 533.007812 58.945312 532.746094 C 62.25 545.59375 66.25 558.390625 70.566406 571.160156 C 83.125 571.601562 95.628906 570.71875 108.234375 569.367188 C 103.714844 556.464844 99.683594 543.566406 96.226562 530.5625 Z M 108.679688 570.71875 C 96.070312 571.992188 83.566406 572.902344 71.113281 572.433594 C 75.921875 585.230469 81.328125 598 87.023438 610.796875 C 99.476562 611.523438 111.980469 610.796875 124.535156 609.519531 C 118.894531 596.570312 113.589844 583.722656 108.679688 570.71875 Z M 125.082031 610.875 C 112.578125 612.042969 100.074219 612.824219 87.621094 612.042969 C 94.25 624.890625 101.140625 637.609375 108.988281 650.40625 C 121.105469 651.417969 133.21875 650.847656 145.515625 649.625 C 138.105469 636.777344 131.503906 623.875 125.082031 610.875 Z M 108.003906 18.011719 C 95.730469 22.433594 83.4375 27.347656 71.269531 33.980469 C 63.964844 46.203125 60.429688 58.375 58.972656 70.570312 C 72.050781 64.773438 85.152344 60.351562 98.332031 56.371094 C 99.113281 43.652344 101.972656 30.859375 108.003906 18.011719 Z M 98.332031 57.621094 C 85.152344 61.597656 72.050781 65.941406 59.078125 71.820312 C 58.789062 84.042969 59.960938 96.242188 61.859375 108.410156 C 75.195312 103.339844 88.558594 99.542969 101.996094 95.902344 C 99.839844 83.238281 98.460938 70.46875 98.332031 57.621094 Z M 102.207031 97.253906 C 88.738281 100.84375 75.351562 104.691406 62.066406 109.609375 C 64.535156 121.882812 67.707031 134.03125 71.007812 146.304688 C 84.398438 142.011719 97.683594 138.710938 111.148438 135.539062 C 107.898438 122.792969 104.777344 110.101562 102.207031 97.253906 Z M 111.5625 136.8125 C 98.097656 139.984375 84.8125 143.289062 71.425781 147.527344 C 75.167969 159.75 78.914062 171.949219 82.863281 184.121094 C 96.097656 180.710938 109.277344 177.878906 122.558594 175.171875 C 118.789062 162.429688 115.152344 149.710938 111.5625 136.8125 Z M 122.949219 176.445312 C 109.613281 179.179688 96.484375 181.933594 83.253906 185.394531 C 87.207031 197.667969 90.949219 209.816406 94.589844 221.984375 C 107.480469 219.359375 120.429688 217.121094 133.453125 214.78125 C 130.152344 201.988281 126.589844 189.292969 122.949219 176.445312 Z M 133.738281 216.054688 C 120.6875 218.398438 107.847656 220.632812 94.925781 223.207031 C 98.226562 235.433594 101.164062 247.628906 103.582031 259.851562 C 116.242188 258.007812 128.824219 256.261719 141.433594 254.390625 C 139.378906 241.621094 136.804688 228.902344 133.738281 216.054688 Z M 141.667969 255.664062 C 129.007812 257.511719 116.476562 259.253906 103.816406 261.074219 C 105.144531 273.351562 105.714844 285.496094 104.777344 297.667969 C 116.945312 296.703125 129.242188 295.429688 141.511719 293.972656 C 142.835938 281.230469 142.628906 268.433594 141.667969 255.664062 Z M 141.382812 295.300781 C 129.113281 296.703125 116.917969 297.925781 104.699219 298.941406 C 100.566406 311.113281 92.351562 323.335938 75.066406 335.402344 C 87.179688 335.222656 99.242188 334.519531 111.460938 333.453125 C 128.589844 320.734375 137.039062 307.992188 141.382812 295.300781 Z M 109.277344 334.726562 C 97.109375 335.792969 84.996094 336.46875 72.882812 336.679688 C 52.34375 348.953125 39.710938 361.097656 30.84375 373.269531 C 42.855469 373.816406 54.917969 373.660156 67.03125 373.089844 C 76.183594 360.265625 88.972656 347.574219 109.277344 334.726562 Z M 66.40625 374.335938 C 54.292969 374.910156 42.230469 375.066406 30.167969 374.492188 C 23.644531 386.769531 19.222656 399.019531 15.921875 411.1875 C 27.882812 412.515625 39.867188 412.90625 51.875 412.699219 C 55.203125 399.875 59.699219 387.132812 66.40625 374.335938 Z M 51.617188 413.945312 C 39.65625 414.128906 27.671875 413.710938 15.664062 412.332031 C 13.191406 424.609375 12.023438 436.753906 11.296875 448.925781 C 23.304688 451.109375 35.367188 452.046875 47.429688 452.230469 C 48.105469 439.511719 49.171875 426.714844 51.617188 413.945312 Z M 47.429688 453.582031 C 35.367188 453.347656 23.304688 452.410156 11.296875 450.277344 C 11.296875 462.5 11.917969 474.671875 13.035156 486.871094 C 25.253906 489.785156 37.449219 491.214844 49.71875 491.890625 C 48.445312 479.121094 47.585938 466.324219 47.429688 453.582031 Z M 49.769531 493.136719 C 37.5 492.460938 25.308594 491.058594 13.089844 488.015625 C 15.089844 500.289062 17.222656 512.539062 20.1875 524.710938 C 32.585938 528.457031 44.960938 530.40625 57.464844 531.472656 C 54.292969 518.703125 52.003906 505.933594 49.769531 493.136719 Z M 57.75 532.773438 C 45.296875 531.757812 32.898438 529.703125 20.472656 525.960938 C 23.695312 538.183594 27.515625 550.355469 31.753906 562.550781 C 44.257812 567.128906 56.761719 569.601562 69.320312 571.03125 C 65.003906 558.3125 61.050781 545.570312 57.75 532.773438 Z M 69.761719 572.277344 C 57.207031 570.875 44.699219 568.378906 32.195312 563.800781 C 37.058594 576.074219 42.515625 588.222656 48.289062 600.390625 C 60.742188 605.75 73.191406 608.714844 85.800781 610.613281 C 80.082031 597.921875 74.726562 585.125 69.761719 572.277344 Z M 86.398438 611.886719 C 73.789062 610.042969 61.339844 607.023438 48.886719 601.613281 C 55.75 613.839844 63.003906 626.085938 71.164062 638.257812 C 83.382812 644.449219 95.496094 647.933594 107.691406 650.222656 C 99.96875 637.558594 93.027344 624.761719 86.398438 611.886719 Z M 86.398438 611.886719 "
			fill-opacity="1" fill-rule="nonzero" />
	</g>
</svg>