<svg xmlns="http://www.w3.org/2000/svg" xmlns:xlink="http://www.w3.org/1999/xlink" width="900" zoomAndPan="magnify" viewBox="0 0 675 225" height="300" preserveAspectRatio="xMidYMid meet" version="1.0"><defs><g/><clipPath id="6293ab85cb"><path d="M 22.5 33.125 L 181.25 33.125 L 181.25 191.875 L 22.5 191.875 Z M 22.5 33.125 " clip-rule="nonzero"/></clipPath></defs><g fill="#ffffff" fill-opacity="1"><g transform="translate(215.581177, 152.250004)"><g><path d="M 51.40625 -41.0625 C 55.695312 -40.289062 59.335938 -38.023438 62.328125 -34.265625 C 65.316406 -30.515625 66.8125 -26.257812 66.8125 -21.5 C 66.8125 -17.4375 65.753906 -13.773438 63.640625 -10.515625 C 61.535156 -7.265625 58.488281 -4.695312 54.5 -2.8125 C 50.519531 -0.9375 45.882812 0 40.59375 0 L 8.625 0 L 8.625 -79.921875 L 39.09375 -79.921875 C 44.539062 -79.921875 49.21875 -79 53.125 -77.15625 C 57.039062 -75.320312 59.992188 -72.851562 61.984375 -69.75 C 63.972656 -66.644531 64.96875 -63.175781 64.96875 -59.34375 C 64.96875 -54.738281 63.738281 -50.898438 61.28125 -47.828125 C 58.832031 -44.765625 55.539062 -42.507812 51.40625 -41.0625 Z M 21.734375 -46.34375 L 37.953125 -46.34375 C 42.242188 -46.34375 45.597656 -47.316406 48.015625 -49.265625 C 50.429688 -51.222656 51.640625 -54.046875 51.640625 -57.734375 C 51.640625 -61.335938 50.429688 -64.15625 48.015625 -66.1875 C 45.597656 -68.21875 42.242188 -69.234375 37.953125 -69.234375 L 21.734375 -69.234375 Z M 39.4375 -10.6875 C 43.882812 -10.6875 47.375 -11.757812 49.90625 -13.90625 C 52.4375 -16.0625 53.703125 -19.054688 53.703125 -22.890625 C 53.703125 -26.796875 52.359375 -29.898438 49.671875 -32.203125 C 46.992188 -34.503906 43.429688 -35.65625 38.984375 -35.65625 L 21.734375 -35.65625 L 21.734375 -10.6875 Z M 39.4375 -10.6875 "/></g></g></g><g fill="#ffffff" fill-opacity="1"><g transform="translate(288.028741, 152.250004)"><g><path d="M 36.109375 1.03125 C 30.128906 1.03125 24.722656 -0.328125 19.890625 -3.046875 C 15.066406 -5.765625 11.273438 -9.597656 8.515625 -14.546875 C 5.753906 -19.492188 4.375 -25.222656 4.375 -31.734375 C 4.375 -38.179688 5.789062 -43.894531 8.625 -48.875 C 11.457031 -53.851562 15.328125 -57.6875 20.234375 -60.375 C 25.140625 -63.0625 30.625 -64.40625 36.6875 -64.40625 C 42.738281 -64.40625 48.21875 -63.0625 53.125 -60.375 C 58.03125 -57.6875 61.898438 -53.851562 64.734375 -48.875 C 67.578125 -43.894531 69 -38.179688 69 -31.734375 C 69 -25.296875 67.539062 -19.582031 64.625 -14.59375 C 61.71875 -9.613281 57.75 -5.765625 52.71875 -3.046875 C 47.695312 -0.328125 42.160156 1.03125 36.109375 1.03125 Z M 36.109375 -10.34375 C 39.484375 -10.34375 42.644531 -11.148438 45.59375 -12.765625 C 48.550781 -14.378906 50.945312 -16.796875 52.78125 -20.015625 C 54.625 -23.234375 55.546875 -27.140625 55.546875 -31.734375 C 55.546875 -36.335938 54.660156 -40.226562 52.890625 -43.40625 C 51.128906 -46.59375 48.789062 -48.988281 45.875 -50.59375 C 42.96875 -52.207031 39.828125 -53.015625 36.453125 -53.015625 C 33.078125 -53.015625 29.953125 -52.207031 27.078125 -50.59375 C 24.203125 -48.988281 21.921875 -46.59375 20.234375 -43.40625 C 18.546875 -40.226562 17.703125 -36.335938 17.703125 -31.734375 C 17.703125 -24.910156 19.445312 -19.640625 22.9375 -15.921875 C 26.425781 -12.203125 30.816406 -10.34375 36.109375 -10.34375 Z M 36.109375 -10.34375 "/></g></g></g><g fill="#ffffff" fill-opacity="1"><g transform="translate(361.396273, 152.250004)"><g><path d="M 35.765625 -32.078125 L 56.234375 0 L 41.40625 0 L 27.71875 -21.5 L 14.828125 0 L 1.15625 0 L 21.625 -31.171875 L 1.15625 -63.359375 L 15.984375 -63.359375 L 29.671875 -41.859375 L 42.546875 -63.359375 L 56.234375 -63.359375 Z M 35.765625 -32.078125 "/></g></g></g><g fill="#ffffff" fill-opacity="1"><g transform="translate(418.77935, 152.250004)"><g><path d="M 36.109375 1.03125 C 30.128906 1.03125 24.722656 -0.328125 19.890625 -3.046875 C 15.066406 -5.765625 11.273438 -9.597656 8.515625 -14.546875 C 5.753906 -19.492188 4.375 -25.222656 4.375 -31.734375 C 4.375 -38.179688 5.789062 -43.894531 8.625 -48.875 C 11.457031 -53.851562 15.328125 -57.6875 20.234375 -60.375 C 25.140625 -63.0625 30.625 -64.40625 36.6875 -64.40625 C 42.738281 -64.40625 48.21875 -63.0625 53.125 -60.375 C 58.03125 -57.6875 61.898438 -53.851562 64.734375 -48.875 C 67.578125 -43.894531 69 -38.179688 69 -31.734375 C 69 -25.296875 67.539062 -19.582031 64.625 -14.59375 C 61.71875 -9.613281 57.75 -5.765625 52.71875 -3.046875 C 47.695312 -0.328125 42.160156 1.03125 36.109375 1.03125 Z M 36.109375 -10.34375 C 39.484375 -10.34375 42.644531 -11.148438 45.59375 -12.765625 C 48.550781 -14.378906 50.945312 -16.796875 52.78125 -20.015625 C 54.625 -23.234375 55.546875 -27.140625 55.546875 -31.734375 C 55.546875 -36.335938 54.660156 -40.226562 52.890625 -43.40625 C 51.128906 -46.59375 48.789062 -48.988281 45.875 -50.59375 C 42.96875 -52.207031 39.828125 -53.015625 36.453125 -53.015625 C 33.078125 -53.015625 29.953125 -52.207031 27.078125 -50.59375 C 24.203125 -48.988281 21.921875 -46.59375 20.234375 -43.40625 C 18.546875 -40.226562 17.703125 -36.335938 17.703125 -31.734375 C 17.703125 -24.910156 19.445312 -19.640625 22.9375 -15.921875 C 26.425781 -12.203125 30.816406 -10.34375 36.109375 -10.34375 Z M 36.109375 -10.34375 "/></g></g></g><g fill="#ffffff" fill-opacity="1"><g transform="translate(492.14687, 152.250004)"><g><path d="M 4.25 -31.96875 C 4.25 -38.332031 5.570312 -43.96875 8.21875 -48.875 C 10.863281 -53.78125 14.46875 -57.59375 19.03125 -60.3125 C 23.59375 -63.039062 28.671875 -64.40625 34.265625 -64.40625 C 38.410156 -64.40625 42.492188 -63.503906 46.515625 -61.703125 C 50.546875 -59.898438 53.75 -57.503906 56.125 -54.515625 L 56.125 -85.09375 L 69.34375 -85.09375 L 69.34375 0 L 56.125 0 L 56.125 -9.546875 C 53.976562 -6.472656 51.003906 -3.941406 47.203125 -1.953125 C 43.410156 0.0351562 39.0625 1.03125 34.15625 1.03125 C 28.632812 1.03125 23.59375 -0.363281 19.03125 -3.15625 C 14.46875 -5.957031 10.863281 -9.867188 8.21875 -14.890625 C 5.570312 -19.910156 4.25 -25.601562 4.25 -31.96875 Z M 56.125 -31.734375 C 56.125 -36.109375 55.222656 -39.90625 53.421875 -43.125 C 51.617188 -46.34375 49.257812 -48.796875 46.34375 -50.484375 C 43.425781 -52.171875 40.285156 -53.015625 36.921875 -53.015625 C 33.546875 -53.015625 30.398438 -52.1875 27.484375 -50.53125 C 24.566406 -48.882812 22.207031 -46.472656 20.40625 -43.296875 C 18.601562 -40.117188 17.703125 -36.34375 17.703125 -31.96875 C 17.703125 -27.601562 18.601562 -23.769531 20.40625 -20.46875 C 22.207031 -17.175781 24.582031 -14.664062 27.53125 -12.9375 C 30.488281 -11.207031 33.617188 -10.34375 36.921875 -10.34375 C 40.285156 -10.34375 43.425781 -11.1875 46.34375 -12.875 C 49.257812 -14.5625 51.617188 -17.035156 53.421875 -20.296875 C 55.222656 -23.554688 56.125 -27.367188 56.125 -31.734375 Z M 56.125 -31.734375 "/></g></g></g><g fill="#ffffff" fill-opacity="1"><g transform="translate(570.114251, 152.250004)"><g><path d="M 66.703125 -33.234375 C 66.703125 -30.859375 66.546875 -28.710938 66.234375 -26.796875 L 17.828125 -26.796875 C 18.210938 -21.734375 20.085938 -17.664062 23.453125 -14.59375 C 26.828125 -11.53125 30.96875 -10 35.875 -10 C 42.925781 -10 47.910156 -12.953125 50.828125 -18.859375 L 64.96875 -18.859375 C 63.050781 -13.035156 59.582031 -8.265625 54.5625 -4.546875 C 49.539062 -0.828125 43.3125 1.03125 35.875 1.03125 C 29.820312 1.03125 24.398438 -0.328125 19.609375 -3.046875 C 14.816406 -5.765625 11.054688 -9.597656 8.328125 -14.546875 C 5.609375 -19.492188 4.25 -25.222656 4.25 -31.734375 C 4.25 -38.253906 5.570312 -43.984375 8.21875 -48.921875 C 10.863281 -53.867188 14.582031 -57.6875 19.375 -60.375 C 24.164062 -63.0625 29.664062 -64.40625 35.875 -64.40625 C 41.851562 -64.40625 47.179688 -63.097656 51.859375 -60.484375 C 56.535156 -57.878906 60.175781 -54.21875 62.78125 -49.5 C 65.394531 -44.789062 66.703125 -39.367188 66.703125 -33.234375 Z M 53.015625 -37.375 C 52.941406 -42.207031 51.21875 -46.078125 47.84375 -48.984375 C 44.46875 -51.898438 40.289062 -53.359375 35.3125 -53.359375 C 30.78125 -53.359375 26.90625 -51.921875 23.6875 -49.046875 C 20.46875 -46.171875 18.550781 -42.28125 17.9375 -37.375 Z M 53.015625 -37.375 "/></g></g></g><g clip-path="url(#6293ab85cb)"><path fill="#ffffff" d="M 22.5 33.125 L 181.25 33.125 L 181.25 191.875 L 22.5 191.875 Z M 22.5 33.125 " fill-opacity="1" fill-rule="nonzero"/></g></svg>