<svg xmlns="http://www.w3.org/2000/svg" xmlns:xlink="http://www.w3.org/1999/xlink" width="900" zoomAndPan="magnify"
  viewBox="0 0 675 225" height="300" preserveAspectRatio="xMidYMid meet" version="1.0">
  <defs>
    <g />
    <clipPath id="2244279537">
      <path d="M 22.5 30 L 187.5 30 L 187.5 195 L 22.5 195 Z M 22.5 30 " clip-rule="nonzero" />
    </clipPath>
  </defs>
  <g clip-path="url(#2244279537)">
    <path fill="#000000" d="M 22.5 30 L 187.5 30 L 187.5 195 L 22.5 195 Z M 22.5 30 " fill-opacity="1"
      fill-rule="nonzero" />
  </g>
  <g fill="#000000" fill-opacity="1">
    <g transform="translate(210.253088, 154.125004)">
      <g>
        <path
          d="M 60.25 -45.375 C 64.082031 -43.375 67.082031 -40.625 69.25 -37.125 C 71.414062 -33.625 72.5 -29.582031 72.5 -25 C 72.5 -17.832031 69.957031 -11.875 64.875 -7.125 C 59.789062 -2.375 53.582031 0 46.25 0 L 8.75 0 L 8.75 -87.5 L 43.5 -87.5 C 50.664062 -87.5 56.726562 -85.1875 61.6875 -80.5625 C 66.644531 -75.9375 69.125 -70.164062 69.125 -63.25 C 69.125 -55.664062 66.164062 -49.707031 60.25 -45.375 Z M 43.5 -74 L 23.125 -74 L 23.125 -51 L 43.5 -51 C 46.664062 -51 49.332031 -52.101562 51.5 -54.3125 C 53.664062 -56.519531 54.75 -59.25 54.75 -62.5 C 54.75 -65.75 53.664062 -68.476562 51.5 -70.6875 C 49.332031 -72.894531 46.664062 -74 43.5 -74 Z M 46.25 -13.5 C 49.582031 -13.5 52.394531 -14.6875 54.6875 -17.0625 C 56.976562 -19.4375 58.125 -22.332031 58.125 -25.75 C 58.125 -29.164062 56.976562 -32.0625 54.6875 -34.4375 C 52.394531 -36.8125 49.582031 -38 46.25 -38 L 23.125 -38 L 23.125 -13.5 Z M 46.25 -13.5 " />
      </g>
    </g>
  </g>
  <g fill="#000000" fill-opacity="1">
    <g transform="translate(286.498317, 154.125004)">
      <g>
        <path
          d="M 37.375 1.625 C 28.207031 1.625 20.414062 -1.539062 14 -7.875 C 7.582031 -14.207031 4.375 -22 4.375 -31.25 C 4.375 -40.5 7.582031 -48.289062 14 -54.625 C 20.414062 -60.957031 28.207031 -64.125 37.375 -64.125 C 46.625 -64.125 54.4375 -60.957031 60.8125 -54.625 C 67.1875 -48.289062 70.375 -40.5 70.375 -31.25 C 70.375 -22 67.1875 -14.207031 60.8125 -7.875 C 54.4375 -1.539062 46.625 1.625 37.375 1.625 Z M 23.5 -17.125 C 27.25 -13.375 31.875 -11.5 37.375 -11.5 C 42.875 -11.5 47.5 -13.375 51.25 -17.125 C 55 -20.875 56.875 -25.582031 56.875 -31.25 C 56.875 -36.914062 55 -41.625 51.25 -45.375 C 47.5 -49.125 42.875 -51 37.375 -51 C 31.875 -51 27.25 -49.125 23.5 -45.375 C 19.75 -41.625 17.875 -36.914062 17.875 -31.25 C 17.875 -25.582031 19.75 -20.875 23.5 -17.125 Z M 23.5 -17.125 " />
      </g>
    </g>
  </g>
  <g fill="#000000" fill-opacity="1">
    <g transform="translate(361.243648, 154.125004)">
      <g>
        <path
          d="M 63.75 0 L 48.125 0 L 32.625 -21.375 L 17 0 L 1.25 0 L 24.75 -32.125 L 2.5 -62.5 L 18.125 -62.5 L 32.5 -42.75 L 46.875 -62.5 L 62.625 -62.5 L 40.375 -32 Z M 63.75 0 " />
      </g>
    </g>
  </g>
  <g fill="#000000" fill-opacity="1">
    <g transform="translate(426.239575, 154.125004)">
      <g>
        <path
          d="M 37.375 1.625 C 28.207031 1.625 20.414062 -1.539062 14 -7.875 C 7.582031 -14.207031 4.375 -22 4.375 -31.25 C 4.375 -40.5 7.582031 -48.289062 14 -54.625 C 20.414062 -60.957031 28.207031 -64.125 37.375 -64.125 C 46.625 -64.125 54.4375 -60.957031 60.8125 -54.625 C 67.1875 -48.289062 70.375 -40.5 70.375 -31.25 C 70.375 -22 67.1875 -14.207031 60.8125 -7.875 C 54.4375 -1.539062 46.625 1.625 37.375 1.625 Z M 23.5 -17.125 C 27.25 -13.375 31.875 -11.5 37.375 -11.5 C 42.875 -11.5 47.5 -13.375 51.25 -17.125 C 55 -20.875 56.875 -25.582031 56.875 -31.25 C 56.875 -36.914062 55 -41.625 51.25 -45.375 C 47.5 -49.125 42.875 -51 37.375 -51 C 31.875 -51 27.25 -49.125 23.5 -45.375 C 19.75 -41.625 17.875 -36.914062 17.875 -31.25 C 17.875 -25.582031 19.75 -20.875 23.5 -17.125 Z M 23.5 -17.125 " />
      </g>
    </g>
  </g>
  <g fill="#000000" fill-opacity="1">
    <g transform="translate(500.984918, 154.125004)">
      <g>
        <path
          d="M 57.375 -87.5 L 70.875 -87.5 L 70.875 0 L 57.375 0 L 57.375 -9 C 52.289062 -1.914062 45 1.625 35.5 1.625 C 26.914062 1.625 19.582031 -1.5625 13.5 -7.9375 C 7.414062 -14.3125 4.375 -22.082031 4.375 -31.25 C 4.375 -40.5 7.414062 -48.289062 13.5 -54.625 C 19.582031 -60.957031 26.914062 -64.125 35.5 -64.125 C 45 -64.125 52.289062 -60.625 57.375 -53.625 Z M 23.5 -16.9375 C 27.25 -13.144531 31.957031 -11.25 37.625 -11.25 C 43.289062 -11.25 48 -13.144531 51.75 -16.9375 C 55.5 -20.726562 57.375 -25.5 57.375 -31.25 C 57.375 -37 55.5 -41.769531 51.75 -45.5625 C 48 -49.351562 43.289062 -51.25 37.625 -51.25 C 31.957031 -51.25 27.25 -49.351562 23.5 -45.5625 C 19.75 -41.769531 17.875 -37 17.875 -31.25 C 17.875 -25.5 19.75 -20.726562 23.5 -16.9375 Z M 23.5 -16.9375 " />
      </g>
    </g>
  </g>
  <g fill="#000000" fill-opacity="1">
    <g transform="translate(579.729994, 154.125004)">
      <g>
        <path
          d="M 18.5 -25.5 C 19.5 -20.75 21.789062 -17.101562 25.375 -14.5625 C 28.957031 -12.019531 33.332031 -10.75 38.5 -10.75 C 45.664062 -10.75 51.039062 -13.332031 54.625 -18.5 L 65.75 -12 C 59.582031 -2.914062 50.457031 1.625 38.375 1.625 C 28.207031 1.625 20 -1.476562 13.75 -7.6875 C 7.5 -13.894531 4.375 -21.75 4.375 -31.25 C 4.375 -40.582031 7.457031 -48.394531 13.625 -54.6875 C 19.789062 -60.976562 27.707031 -64.125 37.375 -64.125 C 46.539062 -64.125 54.0625 -60.914062 59.9375 -54.5 C 65.8125 -48.082031 68.75 -40.289062 68.75 -31.125 C 68.75 -29.707031 68.582031 -27.832031 68.25 -25.5 Z M 18.375 -36.5 L 55.125 -36.5 C 54.207031 -41.582031 52.101562 -45.414062 48.8125 -48 C 45.519531 -50.582031 41.664062 -51.875 37.25 -51.875 C 32.25 -51.875 28.082031 -50.5 24.75 -47.75 C 21.414062 -45 19.289062 -41.25 18.375 -36.5 Z M 18.375 -36.5 " />
      </g>
    </g>
  </g>
</svg>