<svg xmlns="http://www.w3.org/2000/svg" version="1.1" xmlns:xlink="http://www.w3.org/1999/xlink"
	xmlns:svgjs="http://svgjs.dev/svgjs" viewBox="0 0 800 800" opacity="0.76" width="800" height="800">
	<g stroke-width="2.25" stroke="hsla(0, 0%, 27%, 1.00)" fill="none">
		<rect width="10.526315789473685" height="10.526315789473685" x="-5.2631578947368425" y="-5.2631578947368425"
			fill="hsla(0, 0%, 27%, 1.00)" stroke="none"></rect>
		<rect width="10.526315789473685" height="10.526315789473685" x="56.2753036437247" y="-5.2631578947368425"
			fill="hsla(0, 0%, 27%, 1.00)" stroke="none"></rect>
		<rect width="10.526315789473685" height="10.526315789473685" x="117.81376518218624" y="-5.2631578947368425"
			fill="hsla(0, 0%, 27%, 1.00)" stroke="none"></rect>
		<rect width="10.526315789473685" height="10.526315789473685" x="179.35222672064776" y="-5.2631578947368425"
			fill="hsla(0, 0%, 27%, 1.00)" stroke="none"></rect>
		<rect width="10.526315789473685" height="10.526315789473685" x="240.8906882591093" y="-5.2631578947368425"
			fill="hsla(0, 0%, 27%, 1.00)" stroke="none"></rect>
		<rect width="10.526315789473685" height="10.526315789473685" x="302.42914979757086" y="-5.2631578947368425"
			fill="hsla(0, 0%, 27%, 1.00)" stroke="none"></rect>
		<rect width="10.526315789473685" height="10.526315789473685" x="363.9676113360324" y="-5.2631578947368425"
			fill="hsla(0, 0%, 27%, 1.00)" stroke="none"></rect>
		<rect width="10.526315789473685" height="10.526315789473685" x="425.50607287449395" y="-5.2631578947368425"
			fill="hsla(0, 0%, 27%, 1.00)" stroke="none"></rect>
		<rect width="10.526315789473685" height="10.526315789473685" x="487.0445344129555" y="-5.2631578947368425"
			fill="hsla(0, 0%, 27%, 1.00)" stroke="none"></rect>
		<rect width="10.526315789473685" height="10.526315789473685" x="548.5829959514169" y="-5.2631578947368425"
			fill="hsla(0, 0%, 27%, 1.00)" stroke="none"></rect>
		<rect width="10.526315789473685" height="10.526315789473685" x="610.1214574898785" y="-5.2631578947368425"
			fill="hsla(0, 0%, 27%, 1.00)" stroke="none"></rect>
		<rect width="10.526315789473685" height="10.526315789473685" x="671.65991902834" y="-5.2631578947368425"
			fill="hsla(0, 0%, 27%, 1.00)" stroke="none"></rect>
		<rect width="10.526315789473685" height="10.526315789473685" x="733.1983805668016" y="-5.2631578947368425"
			fill="hsla(0, 0%, 27%, 1.00)" stroke="none"></rect>
		<rect width="10.526315789473685" height="10.526315789473685" x="794.7368421052631" y="-5.2631578947368425"
			fill="hsla(0, 0%, 27%, 1.00)" stroke="none"></rect>
		<rect width="10.526315789473685" height="10.526315789473685" x="-5.2631578947368425" y="56.2753036437247"
			fill="hsla(0, 0%, 27%, 1.00)" stroke="none"></rect>
		<rect width="10.526315789473685" height="10.526315789473685" x="56.2753036437247" y="56.2753036437247"
			fill="hsla(0, 0%, 27%, 1.00)" stroke="none"></rect>
		<rect width="10.526315789473685" height="10.526315789473685" x="117.81376518218624" y="56.2753036437247"
			fill="hsla(0, 0%, 27%, 1.00)" stroke="none"></rect>
		<rect width="10.526315789473685" height="10.526315789473685" x="179.35222672064776" y="56.2753036437247"
			fill="hsla(0, 0%, 27%, 1.00)" stroke="none"></rect>
		<rect width="10.526315789473685" height="10.526315789473685" x="240.8906882591093" y="56.2753036437247"
			fill="hsla(0, 0%, 27%, 1.00)" stroke="none" transform="rotate(45, 246.15384615384616, 61.53846153846154)"></rect>
		<rect width="10.526315789473685" height="10.526315789473685" x="302.42914979757086" y="56.2753036437247"
			fill="hsla(0, 0%, 27%, 1.00)" stroke="none"></rect>
		<rect width="10.526315789473685" height="10.526315789473685" x="363.9676113360324" y="56.2753036437247"
			fill="hsla(0, 0%, 27%, 1.00)" stroke="none"></rect>
		<rect width="10.526315789473685" height="10.526315789473685" x="425.50607287449395" y="56.2753036437247"
			fill="hsla(0, 0%, 27%, 1.00)" stroke="none" transform="rotate(45, 430.7692307692308, 61.53846153846154)"></rect>
		<rect width="10.526315789473685" height="10.526315789473685" x="487.0445344129555" y="56.2753036437247"
			fill="hsla(0, 0%, 27%, 1.00)" stroke="none"></rect>
		<rect width="10.526315789473685" height="10.526315789473685" x="548.5829959514169" y="56.2753036437247"
			fill="hsla(0, 0%, 27%, 1.00)" stroke="none"></rect>
		<rect width="10.526315789473685" height="10.526315789473685" x="610.1214574898785" y="56.2753036437247"
			fill="hsla(0, 0%, 27%, 1.00)" stroke="none"></rect>
		<rect width="10.526315789473685" height="10.526315789473685" x="671.65991902834" y="56.2753036437247"
			fill="hsla(0, 0%, 27%, 1.00)" stroke="none"></rect>
		<rect width="10.526315789473685" height="10.526315789473685" x="733.1983805668016" y="56.2753036437247"
			fill="hsla(0, 0%, 27%, 1.00)" stroke="none"></rect>
		<rect width="10.526315789473685" height="10.526315789473685" x="794.7368421052631" y="56.2753036437247"
			fill="hsla(0, 0%, 27%, 1.00)" stroke="none"></rect>
		<rect width="10.526315789473685" height="10.526315789473685" x="-5.2631578947368425" y="117.81376518218624"
			fill="hsla(0, 0%, 27%, 1.00)" stroke="none"></rect>
		<rect width="10.526315789473685" height="10.526315789473685" x="56.2753036437247" y="117.81376518218624"
			fill="hsla(0, 0%, 27%, 1.00)" stroke="none"></rect>
		<rect width="10.526315789473685" height="10.526315789473685" x="117.81376518218624" y="117.81376518218624"
			fill="hsla(0, 0%, 27%, 1.00)" stroke="none"></rect>
		<rect width="10.526315789473685" height="10.526315789473685" x="179.35222672064776" y="117.81376518218624"
			fill="hsla(0, 0%, 27%, 1.00)" stroke="none"></rect>
		<rect width="10.526315789473685" height="10.526315789473685" x="240.8906882591093" y="117.81376518218624"
			fill="hsla(0, 0%, 27%, 1.00)" stroke="none" transform="rotate(45, 246.15384615384616, 123.07692307692308)"></rect>
		<rect width="10.526315789473685" height="10.526315789473685" x="302.42914979757086" y="117.81376518218624"
			fill="hsla(0, 0%, 27%, 1.00)" stroke="none" transform="rotate(45, 307.6923076923077, 123.07692307692308)"></rect>
		<rect width="10.526315789473685" height="10.526315789473685" x="363.9676113360324" y="117.81376518218624"
			fill="hsla(0, 0%, 27%, 1.00)" stroke="none"></rect>
		<rect width="10.526315789473685" height="10.526315789473685" x="425.50607287449395" y="117.81376518218624"
			fill="hsla(0, 0%, 27%, 1.00)" stroke="none"></rect>
		<rect width="10.526315789473685" height="10.526315789473685" x="487.0445344129555" y="117.81376518218624"
			fill="hsla(0, 0%, 27%, 1.00)" stroke="none"></rect>
		<rect width="10.526315789473685" height="10.526315789473685" x="548.5829959514169" y="117.81376518218624"
			fill="hsla(0, 0%, 27%, 1.00)" stroke="none"></rect>
		<rect width="10.526315789473685" height="10.526315789473685" x="610.1214574898785" y="117.81376518218624"
			fill="hsla(0, 0%, 27%, 1.00)" stroke="none"></rect>
		<rect width="10.526315789473685" height="10.526315789473685" x="671.65991902834" y="117.81376518218624"
			fill="hsla(0, 0%, 27%, 1.00)" stroke="none"></rect>
		<rect width="10.526315789473685" height="10.526315789473685" x="733.1983805668016" y="117.81376518218624"
			fill="hsla(0, 0%, 27%, 1.00)" stroke="none"></rect>
		<rect width="10.526315789473685" height="10.526315789473685" x="794.7368421052631" y="117.81376518218624"
			fill="hsla(0, 0%, 27%, 1.00)" stroke="none"></rect>
		<rect width="10.526315789473685" height="10.526315789473685" x="-5.2631578947368425" y="179.35222672064776"
			fill="hsla(0, 0%, 27%, 1.00)" stroke="none"></rect>
		<rect width="10.526315789473685" height="10.526315789473685" x="56.2753036437247" y="179.35222672064776"
			fill="hsla(0, 0%, 27%, 1.00)" stroke="none"></rect>
		<rect width="10.526315789473685" height="10.526315789473685" x="117.81376518218624" y="179.35222672064776"
			fill="hsla(0, 0%, 27%, 1.00)" stroke="none"></rect>
		<rect width="10.526315789473685" height="10.526315789473685" x="179.35222672064776" y="179.35222672064776"
			fill="hsla(0, 0%, 27%, 1.00)" stroke="none"></rect>
		<rect width="10.526315789473685" height="10.526315789473685" x="240.8906882591093" y="179.35222672064776"
			fill="hsla(0, 0%, 27%, 1.00)" stroke="none" transform="rotate(45, 246.15384615384616, 184.6153846153846)"></rect>
		<rect width="10.526315789473685" height="10.526315789473685" x="302.42914979757086" y="179.35222672064776"
			fill="hsla(0, 0%, 27%, 1.00)" stroke="none" transform="rotate(45, 307.6923076923077, 184.6153846153846)"></rect>
		<rect width="10.526315789473685" height="10.526315789473685" x="363.9676113360324" y="179.35222672064776"
			fill="hsla(0, 0%, 27%, 1.00)" stroke="none" transform="rotate(45, 369.2307692307692, 184.6153846153846)"></rect>
		<rect width="10.526315789473685" height="10.526315789473685" x="425.50607287449395" y="179.35222672064776"
			fill="hsla(0, 0%, 27%, 1.00)" stroke="none"></rect>
		<rect width="10.526315789473685" height="10.526315789473685" x="487.0445344129555" y="179.35222672064776"
			fill="hsla(0, 0%, 27%, 1.00)" stroke="none" transform="rotate(45, 492.3076923076923, 184.6153846153846)"></rect>
		<rect width="10.526315789473685" height="10.526315789473685" x="548.5829959514169" y="179.35222672064776"
			fill="hsla(0, 0%, 27%, 1.00)" stroke="none"></rect>
		<rect width="10.526315789473685" height="10.526315789473685" x="610.1214574898785" y="179.35222672064776"
			fill="hsla(0, 0%, 27%, 1.00)" stroke="none"></rect>
		<rect width="10.526315789473685" height="10.526315789473685" x="671.65991902834" y="179.35222672064776"
			fill="hsla(0, 0%, 27%, 1.00)" stroke="none"></rect>
		<rect width="10.526315789473685" height="10.526315789473685" x="733.1983805668016" y="179.35222672064776"
			fill="hsla(0, 0%, 27%, 1.00)" stroke="none"></rect>
		<rect width="10.526315789473685" height="10.526315789473685" x="794.7368421052631" y="179.35222672064776"
			fill="hsla(0, 0%, 27%, 1.00)" stroke="none"></rect>
		<rect width="10.526315789473685" height="10.526315789473685" x="-5.2631578947368425" y="240.8906882591093"
			fill="hsla(0, 0%, 27%, 1.00)" stroke="none"></rect>
		<rect width="10.526315789473685" height="10.526315789473685" x="56.2753036437247" y="240.8906882591093"
			fill="hsla(0, 0%, 27%, 1.00)" stroke="none"></rect>
		<rect width="10.526315789473685" height="10.526315789473685" x="117.81376518218624" y="240.8906882591093"
			fill="hsla(0, 0%, 27%, 1.00)" stroke="none"></rect>
		<rect width="10.526315789473685" height="10.526315789473685" x="179.35222672064776" y="240.8906882591093"
			fill="hsla(0, 0%, 27%, 1.00)" stroke="none"></rect>
		<rect width="10.526315789473685" height="10.526315789473685" x="240.8906882591093" y="240.8906882591093"
			fill="hsla(0, 0%, 27%, 1.00)" stroke="none" transform="rotate(45, 246.15384615384616, 246.15384615384616)"></rect>
		<rect width="10.526315789473685" height="10.526315789473685" x="302.42914979757086" y="240.8906882591093"
			fill="hsla(0, 0%, 27%, 1.00)" stroke="none" transform="rotate(45, 307.6923076923077, 246.15384615384616)"></rect>
		<rect width="10.526315789473685" height="10.526315789473685" x="363.9676113360324" y="240.8906882591093"
			fill="hsla(0, 0%, 27%, 1.00)" stroke="none" transform="rotate(45, 369.2307692307692, 246.15384615384616)"></rect>
		<rect width="10.526315789473685" height="10.526315789473685" x="425.50607287449395" y="240.8906882591093"
			fill="hsla(0, 0%, 27%, 1.00)" stroke="none"></rect>
		<rect width="10.526315789473685" height="10.526315789473685" x="487.0445344129555" y="240.8906882591093"
			fill="hsla(0, 0%, 27%, 1.00)" stroke="none" transform="rotate(45, 492.3076923076923, 246.15384615384616)"></rect>
		<rect width="10.526315789473685" height="10.526315789473685" x="548.5829959514169" y="240.8906882591093"
			fill="hsla(0, 0%, 27%, 1.00)" stroke="none"></rect>
		<rect width="10.526315789473685" height="10.526315789473685" x="610.1214574898785" y="240.8906882591093"
			fill="hsla(0, 0%, 27%, 1.00)" stroke="none"></rect>
		<rect width="10.526315789473685" height="10.526315789473685" x="671.65991902834" y="240.8906882591093"
			fill="hsla(0, 0%, 27%, 1.00)" stroke="none"></rect>
		<rect width="10.526315789473685" height="10.526315789473685" x="733.1983805668016" y="240.8906882591093"
			fill="hsla(0, 0%, 27%, 1.00)" stroke="none"></rect>
		<rect width="10.526315789473685" height="10.526315789473685" x="794.7368421052631" y="240.8906882591093"
			fill="hsla(0, 0%, 27%, 1.00)" stroke="none"></rect>
		<rect width="10.526315789473685" height="10.526315789473685" x="-5.2631578947368425" y="302.42914979757086"
			fill="hsla(0, 0%, 27%, 1.00)" stroke="none"></rect>
		<rect width="10.526315789473685" height="10.526315789473685" x="56.2753036437247" y="302.42914979757086"
			fill="hsla(0, 0%, 27%, 1.00)" stroke="none"></rect>
		<rect width="10.526315789473685" height="10.526315789473685" x="117.81376518218624" y="302.42914979757086"
			fill="hsla(0, 0%, 27%, 1.00)" stroke="none"></rect>
		<rect width="10.526315789473685" height="10.526315789473685" x="179.35222672064776" y="302.42914979757086"
			fill="hsla(0, 0%, 27%, 1.00)" stroke="none"></rect>
		<rect width="10.526315789473685" height="10.526315789473685" x="240.8906882591093" y="302.42914979757086"
			fill="hsla(0, 0%, 27%, 1.00)" stroke="none"></rect>
		<rect width="10.526315789473685" height="10.526315789473685" x="302.42914979757086" y="302.42914979757086"
			fill="hsla(0, 0%, 27%, 1.00)" stroke="none"></rect>
		<rect width="10.526315789473685" height="10.526315789473685" x="363.9676113360324" y="302.42914979757086"
			fill="hsla(0, 0%, 27%, 1.00)" stroke="none" transform="rotate(45, 369.2307692307692, 307.6923076923077)"></rect>
		<rect width="10.526315789473685" height="10.526315789473685" x="425.50607287449395" y="302.42914979757086"
			fill="hsla(0, 0%, 27%, 1.00)" stroke="none"></rect>
		<rect width="10.526315789473685" height="10.526315789473685" x="487.0445344129555" y="302.42914979757086"
			fill="hsla(0, 0%, 27%, 1.00)" stroke="none"></rect>
		<rect width="10.526315789473685" height="10.526315789473685" x="548.5829959514169" y="302.42914979757086"
			fill="hsla(0, 0%, 27%, 1.00)" stroke="none"></rect>
		<rect width="10.526315789473685" height="10.526315789473685" x="610.1214574898785" y="302.42914979757086"
			fill="hsla(0, 0%, 27%, 1.00)" stroke="none"></rect>
		<rect width="10.526315789473685" height="10.526315789473685" x="671.65991902834" y="302.42914979757086"
			fill="hsla(0, 0%, 27%, 1.00)" stroke="none"></rect>
		<rect width="10.526315789473685" height="10.526315789473685" x="733.1983805668016" y="302.42914979757086"
			fill="hsla(0, 0%, 27%, 1.00)" stroke="none"></rect>
		<rect width="10.526315789473685" height="10.526315789473685" x="794.7368421052631" y="302.42914979757086"
			fill="hsla(0, 0%, 27%, 1.00)" stroke="none"></rect>
		<rect width="10.526315789473685" height="10.526315789473685" x="-5.2631578947368425" y="363.9676113360324"
			fill="hsla(0, 0%, 27%, 1.00)" stroke="none"></rect>
		<rect width="10.526315789473685" height="10.526315789473685" x="56.2753036437247" y="363.9676113360324"
			fill="hsla(0, 0%, 27%, 1.00)" stroke="none" transform="rotate(45, 61.53846153846154, 369.2307692307692)"></rect>
		<rect width="10.526315789473685" height="10.526315789473685" x="117.81376518218624" y="363.9676113360324"
			fill="hsla(0, 0%, 27%, 1.00)" stroke="none"></rect>
		<rect width="10.526315789473685" height="10.526315789473685" x="179.35222672064776" y="363.9676113360324"
			fill="hsla(0, 0%, 27%, 1.00)" stroke="none"></rect>
		<rect width="10.526315789473685" height="10.526315789473685" x="240.8906882591093" y="363.9676113360324"
			fill="hsla(0, 0%, 27%, 1.00)" stroke="none"></rect>
		<rect width="10.526315789473685" height="10.526315789473685" x="302.42914979757086" y="363.9676113360324"
			fill="hsla(0, 0%, 27%, 1.00)" stroke="none" transform="rotate(45, 307.6923076923077, 369.2307692307692)"></rect>
		<rect width="10.526315789473685" height="10.526315789473685" x="363.9676113360324" y="363.9676113360324"
			fill="hsla(0, 0%, 27%, 1.00)" stroke="none"></rect>
		<rect width="10.526315789473685" height="10.526315789473685" x="425.50607287449395" y="363.9676113360324"
			fill="hsla(0, 0%, 27%, 1.00)" stroke="none"></rect>
		<rect width="10.526315789473685" height="10.526315789473685" x="487.0445344129555" y="363.9676113360324"
			fill="hsla(0, 0%, 27%, 1.00)" stroke="none"></rect>
		<rect width="10.526315789473685" height="10.526315789473685" x="548.5829959514169" y="363.9676113360324"
			fill="hsla(0, 0%, 27%, 1.00)" stroke="none"></rect>
		<rect width="10.526315789473685" height="10.526315789473685" x="610.1214574898785" y="363.9676113360324"
			fill="hsla(0, 0%, 27%, 1.00)" stroke="none" transform="rotate(45, 615.3846153846154, 369.2307692307692)"></rect>
		<rect width="10.526315789473685" height="10.526315789473685" x="671.65991902834" y="363.9676113360324"
			fill="hsla(0, 0%, 27%, 1.00)" stroke="none"></rect>
		<rect width="10.526315789473685" height="10.526315789473685" x="733.1983805668016" y="363.9676113360324"
			fill="hsla(0, 0%, 27%, 1.00)" stroke="none" transform="rotate(45, 738.4615384615385, 369.2307692307692)"></rect>
		<rect width="10.526315789473685" height="10.526315789473685" x="794.7368421052631" y="363.9676113360324"
			fill="hsla(0, 0%, 27%, 1.00)" stroke="none"></rect>
		<rect width="10.526315789473685" height="10.526315789473685" x="-5.2631578947368425" y="425.50607287449395"
			fill="hsla(0, 0%, 27%, 1.00)" stroke="none"></rect>
		<rect width="10.526315789473685" height="10.526315789473685" x="56.2753036437247" y="425.50607287449395"
			fill="hsla(0, 0%, 27%, 1.00)" stroke="none"></rect>
		<rect width="10.526315789473685" height="10.526315789473685" x="117.81376518218624" y="425.50607287449395"
			fill="hsla(0, 0%, 27%, 1.00)" stroke="none"></rect>
		<rect width="10.526315789473685" height="10.526315789473685" x="179.35222672064776" y="425.50607287449395"
			fill="hsla(0, 0%, 27%, 1.00)" stroke="none"></rect>
		<rect width="10.526315789473685" height="10.526315789473685" x="240.8906882591093" y="425.50607287449395"
			fill="hsla(0, 0%, 27%, 1.00)" stroke="none"></rect>
		<rect width="10.526315789473685" height="10.526315789473685" x="302.42914979757086" y="425.50607287449395"
			fill="hsla(0, 0%, 27%, 1.00)" stroke="none"></rect>
		<rect width="10.526315789473685" height="10.526315789473685" x="363.9676113360324" y="425.50607287449395"
			fill="hsla(0, 0%, 27%, 1.00)" stroke="none" transform="rotate(45, 369.2307692307692, 430.7692307692308)"></rect>
		<rect width="10.526315789473685" height="10.526315789473685" x="425.50607287449395" y="425.50607287449395"
			fill="hsla(0, 0%, 27%, 1.00)" stroke="none"></rect>
		<rect width="10.526315789473685" height="10.526315789473685" x="487.0445344129555" y="425.50607287449395"
			fill="hsla(0, 0%, 27%, 1.00)" stroke="none" transform="rotate(45, 492.3076923076923, 430.7692307692308)"></rect>
		<rect width="10.526315789473685" height="10.526315789473685" x="548.5829959514169" y="425.50607287449395"
			fill="hsla(0, 0%, 27%, 1.00)" stroke="none"></rect>
		<rect width="10.526315789473685" height="10.526315789473685" x="610.1214574898785" y="425.50607287449395"
			fill="hsla(0, 0%, 27%, 1.00)" stroke="none"></rect>
		<rect width="10.526315789473685" height="10.526315789473685" x="671.65991902834" y="425.50607287449395"
			fill="hsla(0, 0%, 27%, 1.00)" stroke="none"></rect>
		<rect width="10.526315789473685" height="10.526315789473685" x="733.1983805668016" y="425.50607287449395"
			fill="hsla(0, 0%, 27%, 1.00)" stroke="none" transform="rotate(45, 738.4615384615385, 430.7692307692308)"></rect>
		<rect width="10.526315789473685" height="10.526315789473685" x="794.7368421052631" y="425.50607287449395"
			fill="hsla(0, 0%, 27%, 1.00)" stroke="none"></rect>
		<rect width="10.526315789473685" height="10.526315789473685" x="-5.2631578947368425" y="487.0445344129555"
			fill="hsla(0, 0%, 27%, 1.00)" stroke="none"></rect>
		<rect width="10.526315789473685" height="10.526315789473685" x="56.2753036437247" y="487.0445344129555"
			fill="hsla(0, 0%, 27%, 1.00)" stroke="none"></rect>
		<rect width="10.526315789473685" height="10.526315789473685" x="117.81376518218624" y="487.0445344129555"
			fill="hsla(0, 0%, 27%, 1.00)" stroke="none"></rect>
		<rect width="10.526315789473685" height="10.526315789473685" x="179.35222672064776" y="487.0445344129555"
			fill="hsla(0, 0%, 27%, 1.00)" stroke="none"></rect>
		<rect width="10.526315789473685" height="10.526315789473685" x="240.8906882591093" y="487.0445344129555"
			fill="hsla(0, 0%, 27%, 1.00)" stroke="none"></rect>
		<rect width="10.526315789473685" height="10.526315789473685" x="302.42914979757086" y="487.0445344129555"
			fill="hsla(0, 0%, 27%, 1.00)" stroke="none"></rect>
		<rect width="10.526315789473685" height="10.526315789473685" x="363.9676113360324" y="487.0445344129555"
			fill="hsla(0, 0%, 27%, 1.00)" stroke="none"></rect>
		<rect width="10.526315789473685" height="10.526315789473685" x="425.50607287449395" y="487.0445344129555"
			fill="hsla(0, 0%, 27%, 1.00)" stroke="none" transform="rotate(45, 430.7692307692308, 492.3076923076923)"></rect>
		<rect width="10.526315789473685" height="10.526315789473685" x="487.0445344129555" y="487.0445344129555"
			fill="hsla(0, 0%, 27%, 1.00)" stroke="none"></rect>
		<rect width="10.526315789473685" height="10.526315789473685" x="548.5829959514169" y="487.0445344129555"
			fill="hsla(0, 0%, 27%, 1.00)" stroke="none"></rect>
		<rect width="10.526315789473685" height="10.526315789473685" x="610.1214574898785" y="487.0445344129555"
			fill="hsla(0, 0%, 27%, 1.00)" stroke="none"></rect>
		<rect width="10.526315789473685" height="10.526315789473685" x="671.65991902834" y="487.0445344129555"
			fill="hsla(0, 0%, 27%, 1.00)" stroke="none" transform="rotate(45, 676.9230769230769, 492.3076923076923)"></rect>
		<rect width="10.526315789473685" height="10.526315789473685" x="733.1983805668016" y="487.0445344129555"
			fill="hsla(0, 0%, 27%, 1.00)" stroke="none"></rect>
		<rect width="10.526315789473685" height="10.526315789473685" x="794.7368421052631" y="487.0445344129555"
			fill="hsla(0, 0%, 27%, 1.00)" stroke="none"></rect>
		<rect width="10.526315789473685" height="10.526315789473685" x="-5.2631578947368425" y="548.5829959514169"
			fill="hsla(0, 0%, 27%, 1.00)" stroke="none"></rect>
		<rect width="10.526315789473685" height="10.526315789473685" x="56.2753036437247" y="548.5829959514169"
			fill="hsla(0, 0%, 27%, 1.00)" stroke="none" transform="rotate(45, 61.53846153846154, 553.8461538461538)"></rect>
		<rect width="10.526315789473685" height="10.526315789473685" x="117.81376518218624" y="548.5829959514169"
			fill="hsla(0, 0%, 27%, 1.00)" stroke="none" transform="rotate(45, 123.07692307692308, 553.8461538461538)"></rect>
		<rect width="10.526315789473685" height="10.526315789473685" x="179.35222672064776" y="548.5829959514169"
			fill="hsla(0, 0%, 27%, 1.00)" stroke="none"></rect>
		<rect width="10.526315789473685" height="10.526315789473685" x="240.8906882591093" y="548.5829959514169"
			fill="hsla(0, 0%, 27%, 1.00)" stroke="none"></rect>
		<rect width="10.526315789473685" height="10.526315789473685" x="302.42914979757086" y="548.5829959514169"
			fill="hsla(0, 0%, 27%, 1.00)" stroke="none" transform="rotate(45, 307.6923076923077, 553.8461538461538)"></rect>
		<rect width="10.526315789473685" height="10.526315789473685" x="363.9676113360324" y="548.5829959514169"
			fill="hsla(0, 0%, 27%, 1.00)" stroke="none"></rect>
		<rect width="10.526315789473685" height="10.526315789473685" x="425.50607287449395" y="548.5829959514169"
			fill="hsla(0, 0%, 27%, 1.00)" stroke="none"></rect>
		<rect width="10.526315789473685" height="10.526315789473685" x="487.0445344129555" y="548.5829959514169"
			fill="hsla(0, 0%, 27%, 1.00)" stroke="none" transform="rotate(45, 492.3076923076923, 553.8461538461538)"></rect>
		<rect width="10.526315789473685" height="10.526315789473685" x="548.5829959514169" y="548.5829959514169"
			fill="hsla(0, 0%, 27%, 1.00)" stroke="none"></rect>
		<rect width="10.526315789473685" height="10.526315789473685" x="610.1214574898785" y="548.5829959514169"
			fill="hsla(0, 0%, 27%, 1.00)" stroke="none" transform="rotate(45, 615.3846153846154, 553.8461538461538)"></rect>
		<rect width="10.526315789473685" height="10.526315789473685" x="671.65991902834" y="548.5829959514169"
			fill="hsla(0, 0%, 27%, 1.00)" stroke="none" transform="rotate(45, 676.9230769230769, 553.8461538461538)"></rect>
		<rect width="10.526315789473685" height="10.526315789473685" x="733.1983805668016" y="548.5829959514169"
			fill="hsla(0, 0%, 27%, 1.00)" stroke="none" transform="rotate(45, 738.4615384615385, 553.8461538461538)"></rect>
		<rect width="10.526315789473685" height="10.526315789473685" x="794.7368421052631" y="548.5829959514169"
			fill="hsla(0, 0%, 27%, 1.00)" stroke="none"></rect>
		<rect width="10.526315789473685" height="10.526315789473685" x="-5.2631578947368425" y="610.1214574898785"
			fill="hsla(0, 0%, 27%, 1.00)" stroke="none"></rect>
		<rect width="10.526315789473685" height="10.526315789473685" x="56.2753036437247" y="610.1214574898785"
			fill="hsla(0, 0%, 27%, 1.00)" stroke="none" transform="rotate(45, 61.53846153846154, 615.3846153846154)"></rect>
		<rect width="10.526315789473685" height="10.526315789473685" x="117.81376518218624" y="610.1214574898785"
			fill="hsla(0, 0%, 27%, 1.00)" stroke="none"></rect>
		<rect width="10.526315789473685" height="10.526315789473685" x="179.35222672064776" y="610.1214574898785"
			fill="hsla(0, 0%, 27%, 1.00)" stroke="none"></rect>
		<rect width="10.526315789473685" height="10.526315789473685" x="240.8906882591093" y="610.1214574898785"
			fill="hsla(0, 0%, 27%, 1.00)" stroke="none"></rect>
		<rect width="10.526315789473685" height="10.526315789473685" x="302.42914979757086" y="610.1214574898785"
			fill="hsla(0, 0%, 27%, 1.00)" stroke="none"></rect>
		<rect width="10.526315789473685" height="10.526315789473685" x="363.9676113360324" y="610.1214574898785"
			fill="hsla(0, 0%, 27%, 1.00)" stroke="none"></rect>
		<rect width="10.526315789473685" height="10.526315789473685" x="425.50607287449395" y="610.1214574898785"
			fill="hsla(0, 0%, 27%, 1.00)" stroke="none"></rect>
		<rect width="10.526315789473685" height="10.526315789473685" x="487.0445344129555" y="610.1214574898785"
			fill="hsla(0, 0%, 27%, 1.00)" stroke="none" transform="rotate(45, 492.3076923076923, 615.3846153846154)"></rect>
		<rect width="10.526315789473685" height="10.526315789473685" x="548.5829959514169" y="610.1214574898785"
			fill="hsla(0, 0%, 27%, 1.00)" stroke="none" transform="rotate(45, 553.8461538461538, 615.3846153846154)"></rect>
		<rect width="10.526315789473685" height="10.526315789473685" x="610.1214574898785" y="610.1214574898785"
			fill="hsla(0, 0%, 27%, 1.00)" stroke="none"></rect>
		<rect width="10.526315789473685" height="10.526315789473685" x="671.65991902834" y="610.1214574898785"
			fill="hsla(0, 0%, 27%, 1.00)" stroke="none"></rect>
		<rect width="10.526315789473685" height="10.526315789473685" x="733.1983805668016" y="610.1214574898785"
			fill="hsla(0, 0%, 27%, 1.00)" stroke="none"></rect>
		<rect width="10.526315789473685" height="10.526315789473685" x="794.7368421052631" y="610.1214574898785"
			fill="hsla(0, 0%, 27%, 1.00)" stroke="none"></rect>
		<rect width="10.526315789473685" height="10.526315789473685" x="-5.2631578947368425" y="671.65991902834"
			fill="hsla(0, 0%, 27%, 1.00)" stroke="none"></rect>
		<rect width="10.526315789473685" height="10.526315789473685" x="56.2753036437247" y="671.65991902834"
			fill="hsla(0, 0%, 27%, 1.00)" stroke="none" transform="rotate(45, 61.53846153846154, 676.9230769230769)"></rect>
		<rect width="10.526315789473685" height="10.526315789473685" x="117.81376518218624" y="671.65991902834"
			fill="hsla(0, 0%, 27%, 1.00)" stroke="none"></rect>
		<rect width="10.526315789473685" height="10.526315789473685" x="179.35222672064776" y="671.65991902834"
			fill="hsla(0, 0%, 27%, 1.00)" stroke="none"></rect>
		<rect width="10.526315789473685" height="10.526315789473685" x="240.8906882591093" y="671.65991902834"
			fill="hsla(0, 0%, 27%, 1.00)" stroke="none" transform="rotate(45, 246.15384615384616, 676.9230769230769)"></rect>
		<rect width="10.526315789473685" height="10.526315789473685" x="302.42914979757086" y="671.65991902834"
			fill="hsla(0, 0%, 27%, 1.00)" stroke="none"></rect>
		<rect width="10.526315789473685" height="10.526315789473685" x="363.9676113360324" y="671.65991902834"
			fill="hsla(0, 0%, 27%, 1.00)" stroke="none" transform="rotate(45, 369.2307692307692, 676.9230769230769)"></rect>
		<rect width="10.526315789473685" height="10.526315789473685" x="425.50607287449395" y="671.65991902834"
			fill="hsla(0, 0%, 27%, 1.00)" stroke="none"></rect>
		<rect width="10.526315789473685" height="10.526315789473685" x="487.0445344129555" y="671.65991902834"
			fill="hsla(0, 0%, 27%, 1.00)" stroke="none"></rect>
		<rect width="10.526315789473685" height="10.526315789473685" x="548.5829959514169" y="671.65991902834"
			fill="hsla(0, 0%, 27%, 1.00)" stroke="none"></rect>
		<rect width="10.526315789473685" height="10.526315789473685" x="610.1214574898785" y="671.65991902834"
			fill="hsla(0, 0%, 27%, 1.00)" stroke="none"></rect>
		<rect width="10.526315789473685" height="10.526315789473685" x="671.65991902834" y="671.65991902834"
			fill="hsla(0, 0%, 27%, 1.00)" stroke="none" transform="rotate(45, 676.9230769230769, 676.9230769230769)"></rect>
		<rect width="10.526315789473685" height="10.526315789473685" x="733.1983805668016" y="671.65991902834"
			fill="hsla(0, 0%, 27%, 1.00)" stroke="none"></rect>
		<rect width="10.526315789473685" height="10.526315789473685" x="794.7368421052631" y="671.65991902834"
			fill="hsla(0, 0%, 27%, 1.00)" stroke="none"></rect>
		<rect width="10.526315789473685" height="10.526315789473685" x="-5.2631578947368425" y="733.1983805668016"
			fill="hsla(0, 0%, 27%, 1.00)" stroke="none"></rect>
		<rect width="10.526315789473685" height="10.526315789473685" x="56.2753036437247" y="733.1983805668016"
			fill="hsla(0, 0%, 27%, 1.00)" stroke="none"></rect>
		<rect width="10.526315789473685" height="10.526315789473685" x="117.81376518218624" y="733.1983805668016"
			fill="hsla(0, 0%, 27%, 1.00)" stroke="none"></rect>
		<rect width="10.526315789473685" height="10.526315789473685" x="179.35222672064776" y="733.1983805668016"
			fill="hsla(0, 0%, 27%, 1.00)" stroke="none" transform="rotate(45, 184.6153846153846, 738.4615384615385)"></rect>
		<rect width="10.526315789473685" height="10.526315789473685" x="240.8906882591093" y="733.1983805668016"
			fill="hsla(0, 0%, 27%, 1.00)" stroke="none"></rect>
		<rect width="10.526315789473685" height="10.526315789473685" x="302.42914979757086" y="733.1983805668016"
			fill="hsla(0, 0%, 27%, 1.00)" stroke="none" transform="rotate(45, 307.6923076923077, 738.4615384615385)"></rect>
		<rect width="10.526315789473685" height="10.526315789473685" x="363.9676113360324" y="733.1983805668016"
			fill="hsla(0, 0%, 27%, 1.00)" stroke="none"></rect>
		<rect width="10.526315789473685" height="10.526315789473685" x="425.50607287449395" y="733.1983805668016"
			fill="hsla(0, 0%, 27%, 1.00)" stroke="none"></rect>
		<rect width="10.526315789473685" height="10.526315789473685" x="487.0445344129555" y="733.1983805668016"
			fill="hsla(0, 0%, 27%, 1.00)" stroke="none"></rect>
		<rect width="10.526315789473685" height="10.526315789473685" x="548.5829959514169" y="733.1983805668016"
			fill="hsla(0, 0%, 27%, 1.00)" stroke="none"></rect>
		<rect width="10.526315789473685" height="10.526315789473685" x="610.1214574898785" y="733.1983805668016"
			fill="hsla(0, 0%, 27%, 1.00)" stroke="none" transform="rotate(45, 615.3846153846154, 738.4615384615385)"></rect>
		<rect width="10.526315789473685" height="10.526315789473685" x="671.65991902834" y="733.1983805668016"
			fill="hsla(0, 0%, 27%, 1.00)" stroke="none"></rect>
		<rect width="10.526315789473685" height="10.526315789473685" x="733.1983805668016" y="733.1983805668016"
			fill="hsla(0, 0%, 27%, 1.00)" stroke="none"></rect>
		<rect width="10.526315789473685" height="10.526315789473685" x="794.7368421052631" y="733.1983805668016"
			fill="hsla(0, 0%, 27%, 1.00)" stroke="none"></rect>
		<rect width="10.526315789473685" height="10.526315789473685" x="-5.2631578947368425" y="794.7368421052631"
			fill="hsla(0, 0%, 27%, 1.00)" stroke="none"></rect>
		<rect width="10.526315789473685" height="10.526315789473685" x="56.2753036437247" y="794.7368421052631"
			fill="hsla(0, 0%, 27%, 1.00)" stroke="none"></rect>
		<rect width="10.526315789473685" height="10.526315789473685" x="117.81376518218624" y="794.7368421052631"
			fill="hsla(0, 0%, 27%, 1.00)" stroke="none"></rect>
		<rect width="10.526315789473685" height="10.526315789473685" x="179.35222672064776" y="794.7368421052631"
			fill="hsla(0, 0%, 27%, 1.00)" stroke="none"></rect>
		<rect width="10.526315789473685" height="10.526315789473685" x="240.8906882591093" y="794.7368421052631"
			fill="hsla(0, 0%, 27%, 1.00)" stroke="none"></rect>
		<rect width="10.526315789473685" height="10.526315789473685" x="302.42914979757086" y="794.7368421052631"
			fill="hsla(0, 0%, 27%, 1.00)" stroke="none"></rect>
		<rect width="10.526315789473685" height="10.526315789473685" x="363.9676113360324" y="794.7368421052631"
			fill="hsla(0, 0%, 27%, 1.00)" stroke="none"></rect>
		<rect width="10.526315789473685" height="10.526315789473685" x="425.50607287449395" y="794.7368421052631"
			fill="hsla(0, 0%, 27%, 1.00)" stroke="none"></rect>
		<rect width="10.526315789473685" height="10.526315789473685" x="487.0445344129555" y="794.7368421052631"
			fill="hsla(0, 0%, 27%, 1.00)" stroke="none"></rect>
		<rect width="10.526315789473685" height="10.526315789473685" x="548.5829959514169" y="794.7368421052631"
			fill="hsla(0, 0%, 27%, 1.00)" stroke="none"></rect>
		<rect width="10.526315789473685" height="10.526315789473685" x="610.1214574898785" y="794.7368421052631"
			fill="hsla(0, 0%, 27%, 1.00)" stroke="none"></rect>
		<rect width="10.526315789473685" height="10.526315789473685" x="671.65991902834" y="794.7368421052631"
			fill="hsla(0, 0%, 27%, 1.00)" stroke="none"></rect>
		<rect width="10.526315789473685" height="10.526315789473685" x="733.1983805668016" y="794.7368421052631"
			fill="hsla(0, 0%, 27%, 1.00)" stroke="none"></rect>
		<rect width="10.526315789473685" height="10.526315789473685" x="794.7368421052631" y="794.7368421052631"
			fill="hsla(0, 0%, 27%, 1.00)" stroke="none"></rect>
	</g>
</svg>