<svg xmlns="http://www.w3.org/2000/svg" xmlns:xlink="http://www.w3.org/1999/xlink" width="500" zoomAndPan="magnify" viewBox="0 0 375 374.999991" height="500" preserveAspectRatio="xMidYMid meet" version="1.0"><defs><clipPath id="2d33e49bc7"><path d="M 37.5 42 L 337.5 42 L 337.5 331 L 37.5 331 Z M 37.5 42 " clip-rule="nonzero"/></clipPath></defs><g clip-path="url(#2d33e49bc7)"><path fill="#ffffff" d="M 337.5 186.75 C 337.5 171.75 323.398438 162.75 312.148438 156 C 308.652344 154.023438 305.300781 151.824219 302.101562 149.398438 C 303.226562 145.332031 304.675781 141.378906 306.449219 137.550781 C 311.398438 125.550781 317.699219 110.699219 308.851562 98.550781 C 300 86.398438 283.800781 87.601562 270.75 88.800781 C 266.601562 89.09375 262.449219 89.09375 258.300781 88.800781 C 257.25 86.101562 255.898438 80.550781 255 76.949219 C 252.148438 64.199219 248.398438 48.300781 233.851562 43.648438 C 219.300781 39 207.601562 49.5 197.851562 57.898438 C 194.625 61.113281 191.171875 64.0625 187.5 66.75 C 183.851562 64.300781 180.402344 61.601562 177.148438 58.648438 C 167.398438 50.25 155.25 39.75 141.148438 44.398438 C 127.050781 49.050781 122.851562 64.648438 120 77.398438 C 119.101562 81 117.75 86.550781 116.699219 89.25 C 112.550781 89.542969 108.398438 89.542969 104.25 89.25 C 91.199219 88.050781 75.148438 86.699219 66.148438 99 C 57.148438 111.300781 63.601562 126 68.550781 138 C 70.324219 141.832031 71.773438 145.78125 72.898438 149.851562 C 69.699219 152.273438 66.347656 154.472656 62.851562 156.449219 C 51.601562 162.75 37.5 171.75 37.5 186.75 C 37.5 201.75 51.601562 210.75 62.851562 217.5 C 66.347656 219.476562 69.699219 221.675781 72.898438 224.101562 C 71.773438 228.167969 70.324219 232.121094 68.550781 235.949219 C 63.601562 247.949219 57.300781 262.800781 66.148438 274.949219 C 75 287.101562 91.199219 285.898438 104.25 284.699219 C 108.398438 284.40625 112.550781 284.40625 116.699219 284.699219 C 117.75 287.398438 119.101562 292.949219 120 296.550781 C 122.851562 309.300781 126.601562 325.199219 141.148438 329.851562 C 155.699219 334.5 167.398438 324 177.148438 314.851562 C 180.402344 311.898438 183.851562 309.199219 187.5 306.75 C 191.148438 309.199219 194.597656 311.898438 197.851562 314.851562 C 199.742188 316.882812 201.796875 318.742188 204.007812 320.421875 C 206.21875 322.101562 208.558594 323.582031 211.023438 324.859375 C 213.492188 326.136719 216.050781 327.195312 218.699219 328.03125 C 221.347656 328.871094 224.046875 329.476562 226.800781 329.851562 C 229.210938 329.804688 231.558594 329.402344 233.851562 328.648438 C 248.851562 324 252.148438 308.101562 255 295.351562 C 255.898438 291.75 257.25 286.199219 258.300781 283.5 C 262.449219 283.207031 266.601562 283.207031 270.75 283.5 C 283.800781 284.699219 299.851562 286.050781 308.851562 273.75 C 317.851562 261.449219 311.398438 246.75 306.449219 234.75 C 304.675781 230.917969 303.226562 226.96875 302.101562 222.898438 C 305.300781 220.476562 308.652344 218.277344 312.148438 216.300781 C 323.398438 210.75 337.5 201.75 337.5 186.75 Z M 244.199219 158.550781 L 184.199219 233.550781 C 183.550781 234.378906 182.820312 235.128906 182.011719 235.800781 C 181.207031 236.476562 180.335938 237.058594 179.40625 237.546875 C 178.476562 238.039062 177.503906 238.429688 176.492188 238.714844 C 175.480469 239.003906 174.449219 239.179688 173.398438 239.25 L 172.5 239.25 C 170.507812 239.261719 168.585938 238.890625 166.742188 238.136719 C 164.894531 237.382812 163.265625 236.304688 161.851562 234.898438 L 131.851562 204.898438 C 131.152344 204.199219 130.527344 203.441406 129.980469 202.617188 C 129.429688 201.796875 128.96875 200.925781 128.589844 200.015625 C 128.210938 199.101562 127.925781 198.160156 127.734375 197.1875 C 127.542969 196.21875 127.445312 195.242188 127.445312 194.253906 C 127.445312 193.265625 127.542969 192.285156 127.738281 191.316406 C 127.929688 190.347656 128.214844 189.40625 128.59375 188.492188 C 128.972656 187.578125 129.4375 186.710938 129.984375 185.890625 C 130.535156 185.066406 131.160156 184.308594 131.859375 183.609375 C 132.558594 182.910156 133.316406 182.285156 134.140625 181.734375 C 134.960938 181.1875 135.828125 180.722656 136.742188 180.34375 C 137.65625 179.964844 138.597656 179.679688 139.566406 179.488281 C 140.535156 179.292969 141.515625 179.195312 142.503906 179.195312 C 143.492188 179.195312 144.46875 179.292969 145.4375 179.484375 C 146.410156 179.675781 147.351562 179.960938 148.265625 180.339844 C 149.175781 180.71875 150.046875 181.179688 150.867188 181.730469 C 151.691406 182.277344 152.449219 182.902344 153.148438 183.601562 L 171.300781 201.75 L 220.800781 139.949219 C 221.4375 139.273438 222.136719 138.660156 222.890625 138.113281 C 223.640625 137.566406 224.441406 137.09375 225.28125 136.691406 C 226.121094 136.292969 226.992188 135.976562 227.894531 135.738281 C 228.796875 135.503906 229.710938 135.351562 230.640625 135.285156 C 231.566406 135.21875 232.496094 135.238281 233.421875 135.34375 C 234.347656 135.449219 235.253906 135.640625 236.144531 135.917969 C 237.03125 136.191406 237.890625 136.546875 238.710938 136.980469 C 239.535156 137.417969 240.3125 137.925781 241.042969 138.503906 C 241.769531 139.082031 242.441406 139.726562 243.050781 140.429688 C 243.660156 141.132812 244.199219 141.886719 244.667969 142.691406 C 245.136719 143.496094 245.527344 144.339844 245.839844 145.214844 C 246.152344 146.09375 246.378906 146.992188 246.523438 147.910156 C 246.671875 148.832031 246.730469 149.757812 246.703125 150.6875 C 246.675781 151.617188 246.5625 152.539062 246.363281 153.449219 C 246.164062 154.359375 245.882812 155.242188 245.519531 156.101562 C 245.15625 156.957031 244.714844 157.773438 244.199219 158.550781 Z M 244.199219 158.550781 " fill-opacity="1" fill-rule="nonzero"/></g></svg>