<?xml version="1.0" standalone="no"?>
<!DOCTYPE svg PUBLIC "-//W3C//DTD SVG 20010904//EN"
 "http://www.w3.org/TR/2001/REC-SVG-20010904/DTD/svg10.dtd">
<svg version="1.0" xmlns="http://www.w3.org/2000/svg"
 width="1080.000000pt" height="1080.000000pt" viewBox="0 0 1080.000000 1080.000000"
 preserveAspectRatio="xMidYMid meet">
<metadata>
Created by potrace 1.14, written by Peter Selinger 2001-2017
</metadata>
<g transform="translate(0.000000,1080.000000) scale(0.100000,-0.100000)"
fill="#000000" stroke="none">
<path d="M5070 10789 c-667 -36 -1389 -224 -2000 -520 -579 -281 -1034 -602
-1471 -1038 -366 -366 -641 -725 -891 -1161 -799 -1397 -928 -3100 -348 -4605
276 -715 678 -1334 1220 -1875 493 -494 1023 -857 1660 -1138 780 -344 1719
-505 2550 -437 830 67 1579 295 2278 692 679 385 1281 930 1734 1569 708 998
1060 2217 988 3427 -72 1210 -530 2336 -1319 3242 -401 460 -882 853 -1417
1156 -902 511 -1920 745 -2984 688z m3240 -5389 l0 -2910 -2910 0 -2910 0 0
2910 0 2910 2910 0 2910 0 0 -2910z"/>
<path d="M2730 5400 l0 -2670 310 0 310 0 0 2360 0 2360 2360 0 2360 0 0 310
0 310 -2670 0 -2670 0 0 -2670z"/>
</g>
</svg>
