<?xml version="1.0" standalone="no"?>
<!DOCTYPE svg PUBLIC "-//W3C//DTD SVG 20010904//EN"
 "http://www.w3.org/TR/2001/REC-SVG-20010904/DTD/svg10.dtd">
<svg version="1.0" xmlns="http://www.w3.org/2000/svg"
 width="1756.000000pt" height="1756.000000pt" viewBox="0 0 1756.000000 1756.000000"
 preserveAspectRatio="xMidYMid meet">
<metadata>
Created by potrace 1.14, written by Peter Selinger 2001-2017
</metadata>
<g transform="translate(0.000000,1756.000000) scale(0.100000,-0.100000)"
fill="#000000" stroke="none">
<path d="M12800 12322 c0 -7 54 -81 345 -477 45 -60 121 -164 169 -230 48 -66
133 -183 190 -260 56 -77 151 -207 211 -290 60 -82 119 -163 132 -180 32 -41
24 -30 158 -215 66 -91 159 -219 208 -285 49 -66 95 -129 103 -140 23 -32 284
-388 304 -415 42 -56 346 -474 365 -500 11 -16 75 -104 143 -196 68 -91 121
-172 119 -178 -4 -9 -238 -336 -304 -425 -10 -13 -31 -42 -48 -66 -25 -36
-108 -151 -335 -464 -19 -27 -57 -79 -84 -117 -73 -103 -225 -313 -262 -364
-18 -25 -85 -117 -148 -205 -63 -88 -119 -164 -123 -170 -5 -5 -31 -41 -58
-80 -27 -38 -53 -74 -58 -80 -4 -5 -66 -91 -138 -190 -71 -99 -181 -252 -244
-340 -63 -88 -160 -223 -216 -300 -55 -77 -109 -151 -119 -165 -31 -41 -446
-615 -454 -628 -5 -8 182 -10 756 -8 420 2 781 7 803 11 353 60 600 157 855
334 36 25 67 48 70 51 3 3 27 23 55 45 130 104 245 233 401 451 205 285 439
609 599 830 88 122 167 232 175 244 18 26 116 161 128 175 4 6 18 26 32 45 13
19 45 64 72 100 58 80 268 371 288 401 8 12 35 49 60 83 25 33 140 192 255
351 115 160 239 332 277 382 37 51 68 97 68 103 0 8 -513 718 -563 780 -7 8
-51 69 -99 135 -47 66 -111 154 -142 195 -74 100 -53 72 -326 445 -132 182
-269 368 -304 415 -34 47 -90 123 -124 170 -34 47 -65 90 -69 95 -5 6 -71 96
-147 200 -171 235 -206 277 -319 388 -234 229 -546 406 -851 482 -77 19 -87
21 -166 34 -30 6 -71 13 -90 17 -46 9 -1550 15 -1550 6z"/>
<path d="M3327 12204 c-1 -1 -31 -5 -67 -8 -116 -12 -205 -28 -340 -61 -80
-20 -208 -69 -320 -123 -303 -145 -526 -339 -768 -667 -133 -181 -680 -928
-841 -1149 -47 -65 -118 -162 -157 -215 -39 -53 -178 -242 -308 -421 -130
-179 -243 -332 -249 -340 -7 -8 -40 -54 -75 -102 -35 -48 -94 -129 -132 -180
-38 -51 -70 -95 -70 -98 0 -6 27 -43 385 -537 143 -197 269 -371 281 -388 11
-16 105 -147 209 -290 104 -143 209 -289 234 -325 25 -36 48 -67 51 -70 3 -3
21 -27 40 -55 19 -27 38 -54 43 -60 12 -14 334 -461 408 -565 156 -221 429
-594 474 -646 257 -301 610 -521 984 -614 64 -16 136 -32 161 -35 25 -3 56 -8
70 -10 14 -3 54 -7 90 -11 75 -7 1459 -9 1466 -2 2 3 -44 72 -103 154 -60 82
-115 159 -123 171 -8 12 -60 84 -116 160 -93 127 -418 577 -642 888 -51 72
-100 139 -108 150 -8 11 -94 130 -191 265 -97 135 -254 353 -350 485 -95 132
-181 251 -190 264 -10 14 -34 46 -53 73 -19 26 -51 71 -70 99 -19 28 -40 56
-45 62 -6 7 -57 77 -114 157 -57 80 -121 168 -141 195 -20 28 -107 148 -194
268 l-156 217 68 93 c38 50 92 124 120 162 141 194 402 551 409 560 14 17 217
294 240 328 12 18 95 132 185 254 90 122 170 231 178 243 8 12 46 63 83 113
72 97 447 610 604 825 51 70 97 132 102 139 6 6 23 30 38 52 26 37 165 227
344 471 43 58 78 110 78 115 1 7 -242 10 -710 10 -391 0 -711 -1 -712 -1z"/>
<path d="M3740 9856 c0 -8 336 -802 390 -921 9 -22 48 -112 85 -200 37 -88 75
-178 85 -200 26 -60 55 -126 335 -783 l257 -602 381 2 381 3 133 310 c72 171
143 335 156 365 14 30 41 96 62 145 20 50 47 113 60 140 12 28 113 264 225
525 111 261 211 493 221 515 69 153 298 699 294 703 -6 6 -754 7 -758 1 -1 -2
-19 -44 -39 -94 -20 -49 -130 -308 -243 -575 -114 -267 -252 -589 -306 -717
-53 -127 -106 -251 -117 -275 -11 -23 -23 -53 -26 -65 -4 -13 -11 -23 -15 -23
-6 0 -97 214 -263 619 -21 52 -45 108 -53 125 -8 17 -41 99 -75 181 -34 83
-67 164 -74 180 -25 56 -85 200 -104 250 -11 28 -49 120 -84 205 -36 85 -68
163 -71 173 -4 10 -17 17 -34 18 -251 5 -803 2 -803 -5z"/>
<path d="M7486 9860 c-1 -3 -2 -140 -2 -305 l1 -300 380 -2 c209 -1 396 -2
416 -2 l36 -1 -1 -1032 c-1 -568 1 -1041 3 -1050 3 -17 30 -18 386 -18 l383 0
0 1046 c0 575 2 1047 4 1049 2 3 187 5 411 6 224 1 408 4 408 8 4 21 3 594 -1
599 -6 8 -2421 10 -2424 2z"/>
<path d="M10634 9858 c-3 -4 10 -29 29 -55 19 -26 118 -167 222 -313 103 -146
210 -296 237 -335 27 -38 102 -144 166 -235 217 -306 277 -394 275 -401 -1 -4
-55 -81 -120 -171 -65 -90 -125 -173 -133 -185 -8 -12 -78 -109 -155 -215 -77
-106 -147 -202 -155 -214 -8 -13 -64 -91 -125 -175 -60 -83 -130 -180 -155
-214 -25 -35 -66 -93 -92 -129 l-47 -66 439 0 440 0 243 368 c133 202 256 388
272 414 17 27 32 48 35 48 3 0 130 -186 281 -412 l276 -413 446 -3 447 -2 -52
72 c-29 40 -77 107 -108 149 -30 41 -69 95 -86 120 -45 64 -441 617 -476 664
-16 22 -87 121 -158 219 l-128 180 28 35 c15 20 67 92 117 161 49 69 141 196
204 283 63 87 121 168 129 180 27 38 389 542 397 552 45 56 64 88 55 94 -5 3
-191 5 -413 5 l-402 -2 -21 -28 c-20 -27 -244 -355 -299 -439 -15 -22 -31 -45
-35 -50 -5 -6 -45 -66 -90 -133 -46 -67 -86 -122 -90 -122 -4 0 -17 15 -29 33
-11 17 -52 77 -91 132 -38 55 -135 195 -215 310 -80 116 -149 215 -154 220 -5
6 -18 25 -28 43 -11 17 -22 32 -25 33 -44 5 -853 2 -856 -3z"/>
</g>
</svg>
