<?xml version="1.0" standalone="no"?>
<!DOCTYPE svg PUBLIC "-//W3C//DTD SVG 20010904//EN" "http://www.w3.org/TR/2001/REC-SVG-20010904/DTD/svg10.dtd">
<svg version="1.0" xmlns="http://www.w3.org/2000/svg" width="190.000000pt" height="190.000000pt"
    viewBox="0 0 190.000000 190.000000" preserveAspectRatio="xMidYMid meet">
    <metadata>
        Created by potrace 1.14, written by Peter Selinger 2001-2017
    </metadata>
    <g transform="translate(0.000000,190.000000) scale(0.100000,-0.100000)" fill="#000000" stroke="none">
        <path d="M1515 1405 c-38 -7 -123 -22 -188 -33 -64 -11 -122 -24 -127 -27 -6
-3 -10 -19 -10 -34 l0 -28 68 13 c37 7 83 15 102 18 19 3 46 8 60 11 13 2 42
7 65 10 22 4 54 10 70 14 38 10 75 -3 76 -26 1 -10 2 -60 3 -111 1 -83 3 -96
23 -111 21 -18 21 -18 2 -34 -21 -19 -21 -14 -24 -155 -1 -56 -4 -104 -7 -107
-5 -5 -112 -27 -191 -39 -81 -13 -107 -47 -111 -146 -2 -87 2 -100 32 -89 18
7 22 17 23 51 1 24 1 51 0 60 -5 47 17 58 139 75 86 11 124 27 147 62 21 30
23 46 23 147 0 64 4 114 9 114 5 0 17 7 25 16 19 19 22 96 4 93 -34 -4 -36 2
-40 122 -4 160 -8 163 -173 134z" />
        <path d="M510 1374 c-7 -7 -13 -40 -13 -73 -2 -68 -8 -77 -57 -85 -239 -37
-241 -39 -247 -213 -3 -65 -9 -120 -14 -121 -23 -9 -37 -34 -37 -72 -1 -36 2
-40 24 -40 24 0 24 0 24 -105 0 -139 16 -171 80 -167 11 1 337 58 380 67 14 3
45 8 70 11 25 3 61 10 80 15 19 5 47 9 62 9 28 0 48 23 48 55 0 14 -6 16 -37
10 -60 -11 -66 -12 -308 -54 -126 -22 -243 -43 -260 -46 -52 -10 -58 2 -60
126 -2 105 -4 113 -26 130 -13 10 -19 19 -12 19 25 0 36 46 37 152 1 62 6 112
12 118 6 6 49 18 94 26 133 23 157 32 182 67 19 26 23 45 23 106 0 62 -3 74
-17 77 -9 1 -22 -4 -28 -12z" />
        <path d="M1393 1210 c-12 -5 -39 -34 -60 -64 -21 -30 -44 -57 -50 -60 -8 -3
-23 15 -39 45 l-25 51 -61 -6 c-34 -4 -64 -8 -67 -10 -5 -3 -70 -13 -141 -21
-59 -8 -222 -34 -226 -37 -3 -4 -105 -182 -137 -240 -12 -21 -24 -38 -28 -38
-4 0 -10 21 -15 48 -9 55 -6 41 -28 128 l-17 71 -42 -8 c-23 -4 -45 -8 -48 -9
-3 0 9 -62 28 -137 57 -236 52 -223 83 -223 16 0 36 3 44 6 9 3 60 83 113 178
53 94 101 176 106 181 7 7 7 5 2 -4 -7 -12 2 -13 53 -7 l62 7 -6 -43 c-3 -24
-8 -50 -11 -58 -2 -8 -7 -31 -9 -50 -3 -19 -10 -63 -18 -97 -12 -61 -12 -63 8
-62 12 1 32 4 45 8 26 7 23 -4 66 228 l17 91 59 7 c32 4 59 10 60 13 6 53 13
58 30 24 7 -15 26 -49 41 -75 l28 -48 -77 -97 c-43 -53 -82 -100 -87 -104 -19
-13 0 -17 46 -10 43 6 51 12 98 75 28 37 54 67 58 67 4 0 20 -24 35 -54 l28
-54 42 5 c23 3 45 9 50 12 4 4 -13 43 -38 86 -25 44 -45 84 -45 90 0 5 34 52
75 104 41 51 75 95 75 97 0 7 -55 3 -77 -6z" />
    </g>
</svg>