<?xml version="1.0" standalone="no"?>
<!DOCTYPE svg PUBLIC "-//W3C//DTD SVG 20010904//EN" "http://www.w3.org/TR/2001/REC-SVG-20010904/DTD/svg10.dtd">
<svg version="1.0" xmlns="http://www.w3.org/2000/svg" width="500.000000pt" height="500.000000pt"
    viewBox="0 0 500.000000 500.000000" preserveAspectRatio="xMidYMid meet">
    <g transform="translate(0.000000,500.000000) scale(0.100000,-0.100000)" fill="#000000" stroke="none">
        <path d="M4387 3804 c-1 -1 -27 -5 -57 -9 -30 -4 -58 -9 -61 -11 -4 -2 -28 -7
-55 -10 -74 -10 -89 -12 -89 -14 0 -1 -9 -3 -20 -4 -11 -2 -33 -6 -50 -9 -16
-4 -46 -9 -65 -12 -19 -3 -84 -14 -145 -25 -60 -11 -126 -22 -145 -25 -19 -3
-46 -7 -60 -10 -14 -3 -41 -7 -60 -10 -19 -3 -42 -8 -50 -10 -8 -2 -35 -7 -60
-10 -24 -4 -47 -8 -50 -10 -3 -1 -27 -6 -55 -10 -135 -21 -130 -19 -133 -44
-2 -14 -9 -34 -16 -45 -6 -12 -11 -30 -10 -41 1 -11 2 -32 3 -47 1 -28 5 -28
91 -12 60 11 137 25 155 28 11 2 43 7 70 11 28 4 59 9 70 11 22 5 223 41 270
49 17 2 40 7 51 9 12 2 39 7 60 11 22 3 113 19 204 35 182 33 208 35 243 19
51 -23 56 -53 56 -353 1 -297 5 -327 53 -358 13 -9 32 -17 42 -19 19 -4 32
-39 15 -39 -23 0 -68 -61 -88 -120 -21 -61 -23 -84 -25 -354 l-2 -288 -29 -24
c-25 -20 -65 -33 -155 -49 -8 -2 -40 -6 -70 -9 -52 -6 -160 -24 -205 -33 -18
-4 -35 -6 -115 -17 -14 -2 -26 -5 -27 -6 -3 -3 -6 -4 -55 -13 -21 -5 -38 -13
-38 -19 0 -6 -3 -8 -6 -5 -10 10 -63 -24 -84 -53 -21 -30 -71 -118 -70 -125 0
-3 -1 -7 -1 -10 -1 -3 -3 -9 -4 -15 -1 -5 -3 -11 -5 -12 -8 -11 -11 -67 -13
-231 l-2 -187 38 -1 c20 -1 49 -1 64 -2 23 -1 29 4 33 28 3 16 9 27 15 24 6
-2 10 47 12 131 4 239 6 256 33 278 22 18 85 36 160 47 14 2 36 6 50 9 50 10
146 25 195 31 27 3 57 7 65 10 8 2 31 7 50 9 158 23 222 66 283 190 38 76 39
95 41 506 0 175 2 186 21 197 11 7 31 13 45 13 33 0 48 11 44 33 -1 9 4 17 12
17 15 0 15 5 15 110 1 120 -1 141 -10 135 -6 -3 -28 -8 -50 -11 -35 -5 -41 -3
-58 22 -16 25 -18 55 -19 304 0 151 -4 291 -8 310 -23 96 -99 154 -195 148
-23 -1 -43 -3 -44 -4z" />
        <path d="M1303 3700 c-10 -3 -18 -11 -19 -17 -2 -29 -5 -33 -21 -33 -16 0 -18
-15 -19 -168 -1 -92 -6 -179 -12 -193 -8 -20 -24 -31 -59 -42 -45 -14 -117
-27 -170 -31 -13 0 -23 -5 -23 -9 0 -5 -4 -6 -8 -3 -5 3 -24 1 -43 -4 -55 -15
-96 -22 -189 -35 -30 -4 -58 -9 -61 -11 -4 -2 -24 -6 -45 -10 -60 -9 -136 -45
-167 -79 -28 -29 -52 -73 -49 -87 1 -5 -2 -8 -7 -8 -5 0 -8 -11 -6 -25 1 -14
-1 -28 -5 -30 -17 -10 -23 -99 -24 -359 -2 -268 -2 -269 -25 -287 -13 -11 -33
-20 -45 -21 -11 0 -28 -1 -36 -2 -9 -1 -16 -13 -18 -31 -2 -16 -7 -34 -11 -40
-4 -5 -7 -55 -7 -110 l1 -100 53 0 c41 0 57 -5 68 -20 17 -23 16 1 18 -325 2
-146 6 -278 10 -293 22 -93 107 -153 199 -144 44 4 179 26 252 41 11 2 40 7
65 11 25 4 54 9 65 11 43 8 192 34 230 39 22 4 48 8 57 11 10 3 28 7 40 9 38
6 173 29 178 30 3 1 32 5 65 10 33 5 62 10 65 10 50 14 69 17 165 31 17 2 41
6 55 9 21 4 78 14 225 40 17 3 80 14 140 25 61 11 128 22 150 26 51 8 55 10
50 34 -2 13 2 20 11 20 11 0 14 16 14 69 l0 69 -40 -9 c-22 -5 -57 -12 -78
-15 -20 -3 -44 -7 -52 -9 -8 -2 -28 -6 -45 -9 -56 -9 -210 -36 -235 -41 -42
-9 -154 -28 -175 -30 -11 -1 -38 -6 -60 -10 -22 -4 -49 -9 -60 -11 -29 -6
-195 -34 -230 -40 -16 -3 -37 -7 -45 -9 -8 -2 -31 -6 -50 -9 -33 -5 -68 -12
-215 -37 -33 -6 -67 -12 -75 -13 -16 -2 -91 -15 -125 -21 -11 -2 -20 -4 -20
-5 0 -1 -22 -5 -90 -15 -11 -1 -20 -3 -20 -5 0 -1 -11 -3 -25 -5 -14 -1 -45
-6 -70 -10 -63 -11 -97 -10 -125 5 -45 24 -49 55 -50 355 -1 320 -4 335 -76
363 -21 8 -39 22 -39 30 0 8 18 31 40 50 23 19 39 37 36 39 -2 3 5 23 17 46
20 39 21 55 22 339 1 279 2 299 21 319 18 21 53 39 84 45 45 9 88 17 110 20
14 3 61 11 105 19 44 8 96 17 115 19 19 3 35 5 35 6 0 1 45 9 85 15 14 1 27 4
30 5 3 1 9 2 14 1 4 -1 14 3 21 9 7 6 19 8 28 4 8 -3 18 -1 22 5 3 6 15 11 26
11 10 0 19 5 19 10 0 6 6 10 13 10 14 0 70 57 105 107 25 36 43 77 48 108 6
37 7 375 1 381 -7 8 -81 10 -104 4z" />
        <path d="M3862 3220 c-57 -9 -107 -21 -110 -27 -4 -6 -17 -23 -29 -39 -13 -16
-78 -100 -144 -186 l-122 -158 -19 38 c-30 57 -100 183 -121 217 -9 17 -20 38
-24 48 -6 19 -33 19 -108 4 -17 -4 -55 -10 -145 -22 -28 -4 -215 -34 -255 -41
-22 -4 -51 -8 -65 -9 -14 -2 -25 -4 -25 -5 0 0 -17 -3 -37 -5 -21 -2 -100 -14
-175 -25 -76 -12 -147 -23 -158 -24 -11 -2 -40 -6 -65 -10 -75 -13 -96 -16
-136 -21 -22 -3 -48 -7 -59 -9 -11 -2 -45 -8 -75 -12 -30 -4 -58 -9 -62 -10
-5 -1 -15 -2 -23 -3 -7 0 -31 -31 -51 -68 -21 -38 -40 -70 -43 -73 -3 -3 -13
-19 -22 -35 -26 -52 -85 -157 -136 -245 -27 -47 -52 -92 -56 -100 -4 -8 -13
-24 -20 -35 -7 -12 -43 -76 -80 -143 -38 -67 -72 -122 -76 -122 -5 0 -12 19
-16 43 -4 23 -9 47 -10 52 -8 28 -55 229 -59 248 -2 12 -17 76 -34 142 -16 66
-35 146 -42 178 l-13 58 -50 -6 c-28 -3 -54 -8 -58 -10 -4 -3 -35 -8 -70 -11
-35 -3 -69 -9 -75 -13 -10 -5 10 -100 81 -381 10 -36 18 -74 20 -85 5 -26 5
-25 60 -250 26 -104 48 -197 50 -205 18 -88 27 -108 48 -105 12 2 54 8 92 14
81 13 129 21 131 24 0 1 59 106 131 232 71 127 176 313 234 415 57 102 106
187 109 190 3 3 14 23 26 45 66 126 124 222 110 182 -3 -9 -8 -38 -12 -63 l-6
-46 53 6 c29 4 62 9 73 11 26 6 75 12 148 21 56 6 57 6 53 -17 -22 -127 -91
-507 -109 -595 -2 -12 -7 -39 -10 -60 -4 -22 -8 -46 -11 -54 -16 -55 -29 -164
-19 -158 9 6 41 12 129 23 112 14 103 7 119 95 3 14 10 50 16 80 6 30 13 71
16 90 2 19 7 46 11 60 9 35 10 44 17 87 3 21 15 85 26 143 11 58 23 121 26
140 3 19 7 42 9 50 3 8 7 33 11 55 3 22 8 47 9 55 2 8 4 23 4 32 1 16 14 21
91 33 72 12 87 14 167 25 89 13 88 12 98 85 12 78 14 88 25 99 7 7 10 7 10 -1
0 -6 25 -55 56 -109 31 -55 67 -119 81 -144 14 -25 41 -74 61 -110 20 -36 38
-72 39 -80 1 -11 -53 -86 -136 -186 -53 -64 -341 -426 -341 -429 0 -2 19 -2
43 0 23 2 42 4 42 5 0 1 15 3 33 6 17 2 47 6 65 8 17 3 32 5 32 6 0 1 13 4 30
6 16 3 30 6 31 7 3 7 248 326 302 395 16 20 8 32 112 -163 87 -164 89 -167 98
-161 6 4 57 13 107 20 11 2 45 7 75 11 30 5 58 9 62 9 21 2 16 23 -24 93 -122
212 -178 313 -178 323 0 5 -4 10 -8 10 -4 0 -18 20 -30 44 l-21 45 87 109 c48
59 98 123 112 141 14 19 32 41 40 50 14 16 25 29 114 145 22 28 44 56 50 63 6
7 16 18 21 25 6 7 16 21 24 31 13 16 11 17 -15 15 -16 -1 -75 -10 -132 -18z" />
    </g>
</svg>